<svg id="Layer_1" data-name="Layer 1" xmlns="http://www.w3.org/2000/svg" viewBox="0 0 300 113.81"><defs><style>.cls-1{fill:#e22f18;}.cls-2{fill:#1d196a;}</style></defs><title>alert-bg</title><path class="cls-1" d="M194.16,21.2l-.48-7s-13.5,4-24.23,7Z"/><path class="cls-1" d="M29,50.15a29,29,0,0,1,29-28.95h70.43a181.71,181.71,0,0,1-20.89-4.74C93.94,12.28,81.4,7,57.59,11,34.91,14.76,37.32,25.47,20.27,37.38A29.8,29.8,0,0,1,0,43.81L3.86,62.47C7.83,62.47,19,57,29,51.75Z"/><path class="cls-1" d="M29,63.3c-9.37,5-20.39,8.83-22.53,9.22L10,85.28,28.12,80Z"/><path class="cls-1" d="M29,90.79A72.75,72.75,0,0,1,14,95L29,113.2Z"/><path class="cls-2" d="M290,15.8c-10.9-13.56-36.18-25-94.7-2.49l-.64.25,0,.69c.09,2.37.19,4.67.3,7h73.38a29,29,0,0,1,28.95,29V67.7c.57-2.56,1.08-5.11,1.44-7.63C300.58,47.16,300.58,29,290,15.8Z"/></svg>