<svg id="Layer_1" data-name="Layer 1" xmlns="http://www.w3.org/2000/svg" viewBox="0 0 60 60"><defs><style>.cls-1{fill:#fff;}</style></defs><title>conference</title><path class="cls-1" d="M17.56,2.69v25L51.72,59.31a3.67,3.67,0,0,0,.05-3.73c-1.14-1.8,0-1.66-1-3.1-.29-.4.13-.63.12-.89s.25-.42.21-.91.93-1,1.44-.78a13.12,13.12,0,0,0,2.13.82c.43.1.18-.27.32-.3s.27-.09.28-.49c.18-1.31.27-4.24.27-4.24v-43Z"/><path class="cls-1" d="M4,35.63H5.42c3.84-.12,6.46-.39,8.09-2.19a3.69,3.69,0,0,0-.41-5.53,5.74,5.74,0,0,0-3.65-1.51L9,27.7a4.49,4.49,0,0,1,2.82,1.05A2.34,2.34,0,0,1,12,32.4c-1.34,1.46-3.61,1.7-8.24,1.81l-1.94.06-.74.81,6.22,5.64,1-1.09L4,35.66Z"/><path class="cls-1" d="M21,35.1c-2-1.79-5-1.27-8,2S9.85,43.29,11.75,45c2.15,1.95,5,1.24,8-2.07C22.6,39.85,23.09,37,21,35.1Zm-2.62,6.71c-2.26,2.49-4.33,3.48-5.67,2.26s-.68-3.24,1.62-5.77S18.89,35,20,36.05C21.41,37.29,20.59,39.42,18.42,41.81Z"/><polygon class="cls-1" points="28.34 42.02 25.18 41.23 24.52 42.46 27.04 43.09 27.07 43.11 19.36 51.62 20.63 52.77 29.46 43.04 28.34 42.02"/><path class="cls-1" d="M36.43,49.06A4.5,4.5,0,0,0,30,49.5a3.81,3.81,0,0,0,.17,5.59,3.86,3.86,0,0,0,3.24,1l0,0a5.79,5.79,0,0,1-3.64,1.42,4.85,4.85,0,0,1-2.89-.9,6.9,6.9,0,0,1-1.11-.92l-1,1.08a8.27,8.27,0,0,0,1.29,1,6.52,6.52,0,0,0,4,1.27,8.32,8.32,0,0,0,5.82-3.05C38.18,53.6,38.42,50.86,36.43,49.06Zm-1.69,5.65a1.16,1.16,0,0,1-.55.37,2.94,2.94,0,0,1-2.84-.72,2.53,2.53,0,0,1,0-3.77C32.6,49.22,34.29,49,35.41,50,36.79,51.22,36.25,53.05,34.74,54.71Z"/></svg>