<svg id="Layer_1" data-name="Layer 1" xmlns="http://www.w3.org/2000/svg" viewBox="0 0 50 50"><defs><style>.cls-1{fill:#4c4c4c;}.cls-2{fill:red;}</style></defs><title>error</title><path class="cls-1" d="M23,49.5a19.5,19.5,0,0,1,0-39c.29,0,.57,0,.86,0l2.77-9h17.2L36.25,15.72A19.48,19.48,0,0,1,23,49.5Zm-3-17A6.55,6.55,0,1,0,26.55,39,6.56,6.56,0,0,0,20,32.45Zm.85-4.11A7.48,7.48,0,0,1,27,31L35,16l-.06-.05a5.57,5.57,0,0,0-.51-.46,18.32,18.32,0,0,0-9.8-3.64L19.7,28.4A11.37,11.37,0,0,1,20.85,28.34Z"/><path class="cls-2" d="M35.63,15.83,43,2H27l-2.78,9.06c-.4,0-.81-.06-1.22-.06a19,19,0,1,0,12.63,4.83ZM24.25,11.27a19.11,19.11,0,0,1,10.48,3.78c.31.25.59.55.88.81L27,32s-2-4-8-3ZM20,46.05a7,7,0,1,1,7.05-7A7.05,7.05,0,0,1,20,46.05Z"/></svg>