<svg id="Layer_1" data-name="Layer 1" xmlns="http://www.w3.org/2000/svg" viewBox="0 0 25 25"><defs><style>.cls-1{fill:#2b2978;}.cls-2{fill:#550f0e;}</style></defs><title>info</title><path class="cls-1" d="M12.54.16A12.34,12.34,0,1,0,24.88,12.5,12.36,12.36,0,0,0,12.54.16Zm0,21.7A9.36,9.36,0,1,1,21.9,12.5,9.37,9.37,0,0,1,12.54,21.86Z"/><path class="cls-2" d="M13.62,13.1v2.65c0,.68,0,1.08,0,1.2.07.61.26.92.55.92a4,4,0,0,0,.51-.1.83.83,0,0,1,.31,0c.52,0,.77.22.77.67a.61.61,0,0,1-.25.49,1,1,0,0,1-.64.2,8.33,8.33,0,0,1-1-.09,8,8,0,0,0-1-.09,8.79,8.79,0,0,0-1.19.08,9.63,9.63,0,0,1-1.06.1c-.54,0-.82-.23-.82-.69s.24-.67.7-.67a3,3,0,0,1,.49.06,2.79,2.79,0,0,0,.48.06c.33,0,.53-.44.6-1.31V11.33C12,10.47,11.82,10,11.48,10a1.9,1.9,0,0,0-.46.07,2,2,0,0,1-.45.07c-.49,0-.74-.21-.74-.65s.3-.69.9-.69a3.81,3.81,0,0,1,.55,0c.43.05.71.08.84.08l.5,0a4.42,4.42,0,0,1,.49-.05c.4,0,.6.26.6.79,0,.06,0,.14,0,.25s0,.19,0,.24,0,.53,0,1.27C13.63,11.94,13.62,12.51,13.62,13.1Z"/><path class="cls-2" d="M12.56,7.76a1.07,1.07,0,0,1-.8-.34,1.1,1.1,0,0,1-.34-.8,1.14,1.14,0,0,1,1.14-1.13,1.12,1.12,0,0,1,.81.33,1.09,1.09,0,0,1,.34.8,1.1,1.1,0,0,1-.34.8A1.09,1.09,0,0,1,12.56,7.76Z"/></svg>