<svg id="Layer_1" data-name="Layer 1" xmlns="http://www.w3.org/2000/svg" viewBox="0 0 60 60"><defs><style>.cls-1{fill:#fff;}</style></defs><title>join</title><path class="cls-1" d="M12.93,19.59l-.29-3.33c-.16-1.58-.39-3.13-.64-4.63l.06,0c.92,1.18,1.84,2.38,3,3.65l1.73,1.9a22.1,22.1,0,0,1,6.57-2.06L11,1.51,4.87,4.17l1.93,23A22.28,22.28,0,0,1,12.93,19.59Z"/><path class="cls-1" d="M46.64,7.1A5.46,5.46,0,0,0,43.8,4.5a20.49,20.49,0,0,0-3-1.21L35,15l1.53.74L38.88,11a5.67,5.67,0,0,0,1.18.71,5.47,5.47,0,0,0,4.25.47,3.85,3.85,0,0,0,2.15-2.08A3.56,3.56,0,0,0,46.64,7.1ZM44.9,9.41c-.8,1.63-2.36,2-4.2,1.08a5.81,5.81,0,0,1-1.21-.74l2.25-4.61a7,7,0,0,1,1.5.59C44.93,6.55,45.67,7.85,44.9,9.41Z"/><path class="cls-1" d="M54.51,13.49a19.06,19.06,0,0,0-2.32-2.31l-9.86,8.5L43.44,21l4-3.45a6,6,0,0,0,.8,1.12A5.53,5.53,0,0,0,52,20.74a3.85,3.85,0,0,0,2.79-1.07A3.57,3.57,0,0,0,56.1,17,5.42,5.42,0,0,0,54.51,13.49Zm-.92,4.94c-1.37,1.19-3,.9-4.29-.66a6.33,6.33,0,0,1-.81-1.15l3.88-3.35a7.1,7.1,0,0,1,1.15,1.13C54.74,15.82,54.91,17.3,53.59,18.43Z"/><path class="cls-1" d="M13.29,23.83l6.86-3-3.36-3.69a22.06,22.06,0,0,0-3.86,2.44Z"/><path class="cls-1" d="M22.42,48.46l-.84-4.92,27-4.64c.06-.65.09-1.31.09-2a22.1,22.1,0,0,0-22.1-22.11,21.7,21.7,0,0,0-3.25.27l18,19.71L36,37.15,26.41,26.67l-13.86,6,1.29,14.07L8.62,49.05,6.8,27.18a22.09,22.09,0,1,0,40.69,17Z"/><path class="cls-1" d="M29.84,1.05,27.79,1,23,14.05l1.76,0L26.2,10l4.67.12,1.3,4.18,1.82.05ZM26.59,8.46,28,4.68c.27-.79.51-1.59.72-2.36h0c.18.76.35,1.55.62,2.42l1.19,3.82Z"/></svg>