<svg id="Layer_1" data-name="Layer 1" xmlns="http://www.w3.org/2000/svg" viewBox="0 0 252.71 192.04"><defs><style>.cls-1{fill:#e22f18;}.cls-2{fill:#1d196a;}.cls-3{fill:#fff;}</style></defs><title>logo</title><path id="Red-Main" class="cls-1" d="M81.33,162.3c-.18.66-.34,1.23-.45,1.58a4.49,4.49,0,0,1-2,2.41l-13.55,9.1c5.48-10,7.2-17.15,7.73-20.49A74.94,74.94,0,0,0,81.33,162.3Zm-25.57-36a24.52,24.52,0,0,0-1.25,2.16,21,21,0,0,0-2,10A54.49,54.49,0,0,0,53,149.77c.93,7-.74,15.78-3.15,22.1-2.22,5.78-12.08,16.1-13.7,17.77-.15.16,0,.16,0,.16l17.06-4.9a1.48,1.48,0,0,0,.25-.15c6.4-6.48,7-14.77,8.44-19.38,1.13-3.54.43-18.3,0-25.11A73.54,73.54,0,0,1,55.76,126.26ZM45.6,149.58c0-3.71.37-11.14,2-14.67s3.71-8.17,3.71-8.17l-10.4,5s-1.48.37-2,3-2.6,23.39-3.9,26.37S31.85,171.49,22.2,178c-7.08,4.77-10.27,6.94-11.47,7.76a.31.31,0,0,0,0,.56l13.06,3.26a1.55,1.55,0,0,0,.78-.14c2.36-1.92,17.1-14.23,18.81-22.76C45.22,157.38,45.6,153.3,45.6,149.58Zm6.87-39.33L44.89,107c.8,2.45,2.07,6,3.12,7.13s4.08,4.8,6.61,8.25A74.38,74.38,0,0,1,52.47,110.25Zm178.25,76.84c-3-1.86-11.51-8-14.48-11.7s-7.43-11.69-7.61-14.48,1.85-13.93,1.48-16.15-.37-8-3.9-11a47.31,47.31,0,0,0-6.5-4.64,32.72,32.72,0,0,0,5.2.74c1.86,0,5.76-2,6.87-3.34a43.57,43.57,0,0,0,6.13-9.47c1.67-3.9,4.27-9.47,4.64-10.59s1.57-6,1.57-6l-10.88,3.72c-.17.68-.34,1.36-.53,2-1.67,6.13-4.08,8.91-5.38,11.14s-9.1,7.24-9.1,7.24l6.12-16.9,0-.47-4.63,1.58a73.7,73.7,0,0,1-4.52,20.59,7.37,7.37,0,0,1,4,3.74c1.48,3.35,2.59,6.32,2,14.49s0,22.65,3.34,27.48,8.73,12.07,11.51,14.11,4.27,3.34,7.8,2.41a44.83,44.83,0,0,0,7.24-2.22C232,189,233.69,189,230.72,187.09ZM44.85,128,54.32,124s-8.72-2.41-11.51-7.06c-2.47-4.11-5.22-9.38-6-13.37L23.91,98a16.05,16.05,0,0,1-.71-1.79C24,98.78,32,124.17,44.85,128Zm152.08,49.58a46.32,46.32,0,0,1-4.46-14.48,59.58,59.58,0,0,1,.56-12.26,28.71,28.71,0,0,0,2-12.07c-.17-2.93-.26-5.67-.45-8a73.74,73.74,0,0,1-10.29,18c-.22,2.82-.49,6.17-.59,7.47-.18,2.41-.18,12.62,1.86,18.94s5.2,11.32,12.26,14.11,9.09,1.86,12.06,2.23C209.92,191.55,199.9,183.93,196.93,177.62Zm-31-12a22.71,22.71,0,0,0,4.06,4.74c1.67,1.3,10.77,7.06,10.77,7.06A44.59,44.59,0,0,1,175,158.79,74.33,74.33,0,0,1,165.94,165.64Zm-27,10.57.24,5.12,5.43-6.35C142.75,175.47,140.86,175.87,138.94,176.21Zm-38.47-3.41,4.17,7.61,1.31-5.83C104.09,174.06,102.27,173.46,100.47,172.8Z"/><path id="Blue-Main" class="cls-2" d="M252.71,27.24c-.16,0-6.52,6.46-6.52,6.46l-.54-1-1.28.8L243,31.14l1.37-.77-1-1.19S252.87,27.24,252.71,27.24ZM238.63,37.42l-49.4,26.29,1.3,1.71,48.09-25.69c.18,2.71-4.72,25.64-6.55,33.32s-7.86,27.53-7.86,27.53l-24.44,8.35a73.86,73.86,0,0,1-147.21,1.35L24,98c-1.66-3.25-7-24.23-8.39-32.2S12.89,39,12.89,39l49.8,26.6c.24-.4.49-.8.74-1.2L13.36,36l1.78-2.89L65.69,61c.14-.2.29-.4.43-.61-.92-.51-5.48-3.08-6.44-3.56a28.77,28.77,0,0,1-4.43-3.07c-1.06-.95-.71-1.6-.71-1.6s0-1.3.06-1.86S54,50,53.54,50.12a14.36,14.36,0,0,1-4.91,0c-1.83-.35-3.07-1.59-5.73-3.6a19.6,19.6,0,0,1-5-6.73c-.24-.65-.65-2.13.29-2.78s.36-.95,0-1c-.83-.12.65.54-5.37-2.18S23.41,26,20,21.18,14.84,7.29,14.84,7.29c1.3.83,9.69,3,17,4.38S51.29,13.73,59,13.73s39.4-1.36,39.4-1.36l5.62,10.11a33.71,33.71,0,0,0,6.85-9.93c1.95-4.55-1.71-10.81-1.71-10.81-1.3-1.95.88-1.65.88-1.65S110,1,111.43.38c1.27-.53,1.18-.35,1.18-.35a8.87,8.87,0,0,0,4.55,2.6c3.31.94,6.26.71,10.81.17s5.91,1.66,6.68,2.31A10,10,0,0,0,138.55,7c1,.06,2.95-.24,4.61,1.24s1.41,2.18,1.77,4.25,0,3-.65,5.67a12.7,12.7,0,0,1-3.13,5.14,18.83,18.83,0,0,0-2.6-2.48c-1-.88-2.13-.47-3.19,0a8,8,0,0,0-2.78,3.25c-.06.47-.94,3,3.54,2.66s6.62-2.84,9.22-5.38,4.37-8.92,4.37-8.92c1.89.24,19.08,1.72,33.09,2.48a135.34,135.34,0,0,0,25.46-.7c2.77-.36,29.89-5,29.89-5-1,3-1.65,3.16-3.77,7.65s-5.56,8.72-9.7,12.91a22.37,22.37,0,0,1-10.46,5.73c-.47,0-1.06-.06-1.35.42a3.16,3.16,0,0,0-.42,1.89c.06.71.3,1.12-1.06,4.55s-4.67,5.73-6.62,7-7,2-8,2.06-1.42-.14-1,.71c1.18,2.45-1.77,4.08-3.31,5a22.37,22.37,0,0,1-5.13,2.25c-1.34.35-.18,1.48.7,1.12s48.92-26.17,48.92-26.17Zm-62.28-7.54c-1.58,1.14-2.59,2.1-4.22,2.42a11,11,0,0,1-2.43.36c-.2,0-.67-.08-.79.36s-2,5.84-2.15,6-.44.88.12,1.2A52,52,0,0,1,175,46.74c2.59,2.78,5.45,5.57,6.92,6.28s2.39,1.27,3.18.92,1.43-.56,1.39-2.23a6,6,0,0,0-2.3-5.17,45.62,45.62,0,0,0-5.81-4.06c-1.75-.95-5.41-3-6.32-3.54s-1.16-.83-1.31-.83a.37.37,0,0,1-.24-.6,13.24,13.24,0,0,0,.75-2.11c.12-.35.28-.95.72-1a5.13,5.13,0,0,0,1.63-.4c.32-.2.32-.36.52-.51a.64.64,0,0,1,.91.07,35.75,35.75,0,0,0,3.54,3.62c.76.52,4.3,3.38,7.24,4.22a25,25,0,0,0,10.34,1c3.66-.55,6-1.19,6.32-2s.64-1.86-.71-2.62A29.36,29.36,0,0,0,196,35.4c-2-.55-16.19-5.76-16.35-6s-.23-.28-.08-.68a5.55,5.55,0,0,1,.4-1.23,2.65,2.65,0,0,0,.24-1.43c0-.52-.16-1.12.48-1s12.25,2.87,13.84,3.19,7.71,1.47,10.22,1.27a21.74,21.74,0,0,0,9.22-3,44.26,44.26,0,0,0,5.57-4.46c.32-.36.28-.68-.12-.64a3.65,3.65,0,0,1-.53,0s-5.68,2.1-39.87-.8c-1.43-.13-1.08.54-1.08.54a18.83,18.83,0,0,1,0,3.69C177.77,26.26,178,28.68,176.35,29.88Zm-19.9-12.61a3.92,3.92,0,0,0,.22.44s5.67,6,6.55,6.57,1.8,1.77,4.46,1.64,2.93-.19,3.53-.52,1.23-.47,1.45-1.26a10.82,10.82,0,0,0,.27-3.12c-.08-.74.3-1.21-.79-1.51s-13.25-2.3-13.25-2.3a15.33,15.33,0,0,0-2.22-.3C156.45,17,156.37,17.05,156.45,17.27Zm-55,10.32c-2.09.5-2.59.58-2.79.64s-.84.32-.15.7,2.94,1.83,3.32,2a14.23,14.23,0,0,1,1.33.9s.84.38-.06.67a6.82,6.82,0,0,0-2.44,1.17,1.1,1.1,0,0,0,.07.57S130,23,158.52,37.51l.46.25s.69.58,1.22,0S164,34.33,162.31,31a25.92,25.92,0,0,0-5-7.21c-2.33-2.49-3.58-3.89-3.84-4.12s-1.3-1.75-2-.7-.61.49-.79,2.09-.18,6.58,1,9.46-.07,3.66-.31,3.64,0,.1-1.86-.57-2.53-3.9-2.53-3.9a24.06,24.06,0,0,1-.49-2.64c0-.35-.15-1-.76-.49a15.42,15.42,0,0,1-3,2.26c-1.19.58-1.48,1.11-3.58.67a56.09,56.09,0,0,0-6-1.13c-1.37-.09-4.13-.12-4.51-.09s-2.79,0-2.18-2.38,1.92-5.9,3.35-6.86a12.85,12.85,0,0,1,3.51-1.8,25.89,25.89,0,0,1,5.93-1.11,7.74,7.74,0,0,0,1.51,0c.21,0,.67.12.7-.78a4,4,0,0,0-1-3.23c-1-1-.75-.84-1-1s-.69-.64-1.48.21a8.27,8.27,0,0,1-2.38,2.18,4.46,4.46,0,0,1-2.85.26,4.22,4.22,0,0,0-1.13-.29.3.3,0,0,0-.38.35,1.35,1.35,0,0,1-.32,1.27,2.88,2.88,0,0,1-2.21.88c-.93-.06-1.68-.15-2-.53a3.06,3.06,0,0,1-.64-1.65c0-.61.18-.93-.46-1.37s-1.69-1.19-1.77-1.28l-.09-.08.1.08h0l-.1-.08c-.55-.47-.9-.67-1-.76s-.35-.46-.14-.58a1.13,1.13,0,0,1,1-.2A3.34,3.34,0,0,1,125,10c.26.23.29.55.58.52s.58.18,1-.08.82-1.05,1.57-1a5,5,0,0,1,1.72.49,10.56,10.56,0,0,0,1.89.7,2.41,2.41,0,0,0,1.48.09c.43-.18.72-.15.78-.5s.06-.29-.35-.55a14.78,14.78,0,0,1-2.15-1.54c-.37-.43-.52-.87-1.07-1a2.22,2.22,0,0,0-1.72.24,16.4,16.4,0,0,1-4.62.78,48,48,0,0,1-5.58-.73c-.67-.2-1.65-.61-2.18-.2s-.61.67-.61,1a32.38,32.38,0,0,1-.17,4.5,28.21,28.21,0,0,1-1.6,5.23,19.93,19.93,0,0,1-6.16,6.69C104.62,26.55,103.49,27.1,101.4,27.59Zm-6.15-7.45-.06,0-.5.44c-2.07,1.73-8,6.83-8.68,7.37s-2.54,2.46-2.7,2.62a2.32,2.32,0,0,0-.49.64,1.66,1.66,0,0,0-.21.48c0,.15,0,.57,0,1.49a5.69,5.69,0,0,0,.51,1.86,6.56,6.56,0,0,0,.3.67,6.82,6.82,0,0,0,.43.81,30,30,0,0,0,4.17,3.05l.06,0a.66.66,0,0,0,.82.23l.11,0a1.61,1.61,0,0,0,.31-.2l0,0c.23-.14.64-.38,1.15-.66l.18-.06a3.23,3.23,0,0,0,.92-.45c.08-.11.81-.62-.39-.94l-.06,0a15.63,15.63,0,0,0-1.87-.35s-.07-.11-.07-.11l.19-3.54c0-.17,0-.3,0-.36.1-.41.41-.31.41-.31l3.94-.06h2.41a.28.28,0,0,0,.25,0h.28l.1-.57L96.51,32a5.71,5.71,0,0,0-.93-.35c-1-.39-2.31-.88-2.7-1-.65-.2-1.91-.49-2.41-.6-.14-.08-.25-.18-.25-.32a6.83,6.83,0,0,1,.16-.92c.21-.45.55-2.44.75-3.08a.94.94,0,0,1,.18-.39.92.92,0,0,1,.63,0,3.43,3.43,0,0,0,1.34.29c.12,0,.52,0,1-.07a10.36,10.36,0,0,0,1.8-.14l.34-.05A16.32,16.32,0,0,0,98,25l.2-.07.2-.05c.45-.05.44-.34.32-.62s-.43-.72-.61-.95l-.06-.07L98,23.07c-.26-.4-.7-1.16-1-1.6s-.58-1-.71-1.16-.35-.66-.88-.27Zm-22.34.34a12.7,12.7,0,0,0,2.57,3.9c.46.36,1.08,1.23,3.8,1.28s6.57-3.28,6.57-3.28,6.05-3.54,3.8-4.06S72.91,20.48,72.91,20.48ZM71,53.11c2.4-.13,3.21-1.63,4.39-2.69s4.11-6,4.28-6.22.36-.41.36-.41l2.85.41c.12,0,.28-.33.32-.45s-.08-.24-.73-.61-1-.93-2.64-2.24-2.51-7.35-2.6-8c0,0-.06-.06-.09-.07-3.76-.88-7.41-3.65-8.34-5.23-.83-1.4-1.5-5.73-1.64-6.68,0-.12-.12-.19-.29-.19l-31.58.12a4.28,4.28,0,0,0-1.87.45c-.7.36-.33,1.34-.05,1.75a17.13,17.13,0,0,0,3.26,2.44,22.34,22.34,0,0,0,9.07,2.8,55.68,55.68,0,0,0,14.07-.69,30.23,30.23,0,0,0,6-1.75c.53-.24,1,.33,1.18.78s.74,1.83,1.14,2.6.21,1,.08,1.18-1,.37-1.54.53l-4.68,1.38c-.57.16-9.07,2.36-10.29,2.73a10.83,10.83,0,0,0-2.89,1.46c-.61.41-.57.73-.65,1.67A3,3,0,0,0,49,40.78c.78.77,3.91,1.51,5.94,1.75s5.82-.81,7-1.3a42,42,0,0,0,5.53-3.82c.69-.57,3.91-4,4.07-4.23s.69-.13.85,0,1.39.49,2,.66a1.28,1.28,0,0,1,.89.61,8.81,8.81,0,0,1,.49,1.91c0,.2-.2.28-.37.36s-2.72,2-3.62,2.61S67.58,42.77,66,44a4.88,4.88,0,0,0-2,2.4,4.54,4.54,0,0,0,.24,3.83C65.23,52.25,68.56,53.23,71,53.11Zm55.12-20a70.71,70.71,0,1,0,70.71,70.71A70.79,70.79,0,0,0,126.08,33.1ZM8,29.32l1-1.25L0,26.24,5.83,32.9l.66-1.22,1.38.8,1.46-2.29Zm2.26.77L8.15,33.62l1.32,2.22L13,30.09Zm3.33.24L9.92,36.19h2.5l2.36-3.78Zm181.19,73.48A68.71,68.71,0,1,1,126.08,35.1,68.78,68.78,0,0,1,194.79,103.81Zm-16.42,0a52.29,52.29,0,1,0-52.29,52.29A52.35,52.35,0,0,0,178.37,103.81Zm59.09-70.43,2.38,3.9,2.27-.1-3.33-5.6Zm-61.09,70.43a50.29,50.29,0,1,1-50.29-50.29A50.35,50.35,0,0,1,176.37,103.81Zm-4.33-.07a45.81,45.81,0,1,0-45.81,45.81A45.8,45.8,0,0,0,172,103.74Zm67.59-72.42,3,5.07L244,34.54l-1.8-3.27Z"/><path id="Circular_Text" data-name="Circular Text" class="cls-3" d="M113.82,159.63l3.66.68,1.15-2.09,1.55.29-5.36,9.31-1.23-.23L111.94,157l1.55.29ZM114,161l.59,4.62h0l2.2-4.1Zm-6.72,5.14-1.31-.5-.31-7.17-4.91,5.22-1.31-.5,3.55-9.49,1.4.53-2.22,5.91,0,0,3.63-3.84,1.16.43.22,5.28h0l2.22-5.92,1.39.53Zm-11.39-4.73-5.42-3.15.73-1.25,4.13,2.4,1.46-2.5-3.53-2,.68-1.18,3.53,2.05,1.5-2.58-4.14-2.4.73-1.25,5.42,3.15Zm-8-4.89-3-2.4a2.91,2.91,0,0,1-1.14-1.77,2.73,2.73,0,0,1,.59-2.3,2.81,2.81,0,0,1,3.23-1l1-4.93,1.38,1.1-1.12,4.65,1.48,1.19,2.71-3.38,1.16.93Zm1.61-4.4-1.76-1.41a1.57,1.57,0,0,0-2.31.22,1.36,1.36,0,0,0-.33,1.21,1.65,1.65,0,0,0,.65.93l1.83,1.46Zm-9-2-1-1L86.6,142l1.05,1Zm-1.79-13.12a3.87,3.87,0,0,1,2.46-.41,3.43,3.43,0,0,1,2,1.26,3.31,3.31,0,0,1,.76,1.86,3.21,3.21,0,0,1-.24,1.67,4.32,4.32,0,0,1-.22.43,3.14,3.14,0,0,1-.33.45,20.49,20.49,0,0,1-1.77,1.55,16.62,16.62,0,0,1-1.9,1.41,2.9,2.9,0,0,1-1,.35,3.42,3.42,0,0,1-1.69-.1,3.33,3.33,0,0,1-1.66-1.15,3.23,3.23,0,0,1-.78-2.34,3.83,3.83,0,0,1,1-2.22l1,1.22a2.38,2.38,0,0,0-.4,1.18,1.9,1.9,0,0,0,.44,1.21A2,2,0,0,0,77,144a1.79,1.79,0,0,0,.8.16,1.77,1.77,0,0,0,.89-.23,14.28,14.28,0,0,0,1.66-1.2,12.92,12.92,0,0,0,1.51-1.36,1.76,1.76,0,0,0,.42-.84,1.79,1.79,0,0,0,0-.8,1.72,1.72,0,0,0-.39-.85,2,2,0,0,0-2.26-.59Zm-3-6,1.89,3.21,2.34-.5.8,1.36-10.55,2.06-.63-1.07,6.93-8.21.79,1.35Zm-.95,1.06-3.11,3.47,0,0,4.54-1Zm-8.23-1.65-.5-1.31,5.13-6.73v0L64.42,125l-.53-1.39L73.35,120l.51,1.31L68.72,128v0l6.73-2.58.53,1.39Zm2.2-24.42L69,109.8l2.31.58.12,1.57-10.37-2.81L61,107.9l9.84-4.31.12,1.57Zm-1.32.53-4.32,1.74v0l4.53,1.09Zm1-4.54a4.27,4.27,0,0,0,1.21-2.71c.08-1.27-.34-2-1.26-2-.75-.07-1.24.32-1.45,1.17-.09.39-.18.82-.29,1.28a3.21,3.21,0,0,1-1.11,1.85,2.79,2.79,0,0,1-1.92.54,2.85,2.85,0,0,1-2.07-1,3.3,3.3,0,0,1-.65-2.41,5.39,5.39,0,0,1,1.29-3.09l1.19.92a4.51,4.51,0,0,0-1,2.37,1.84,1.84,0,0,0,.27,1.16,1.34,1.34,0,0,0,1.06.58,1.14,1.14,0,0,0,.81-.27,1.85,1.85,0,0,0,.58-1c.07-.26.15-.63.25-1.09a3,3,0,0,1,1.17-2,3,3,0,0,1,1.93-.51q2.89.3,2.69,3.66a5.5,5.5,0,0,1-1.66,3.63Zm.82-8.38a4.24,4.24,0,0,0,1.59-2.5c.27-1.25-.05-2-1-2.21a1.31,1.31,0,0,0-1.61,1c-.14.38-.3.78-.47,1.23a3.18,3.18,0,0,1-1.36,1.67,3,3,0,0,1-3.89-1.06,3.25,3.25,0,0,1-.28-2.47A5.31,5.31,0,0,1,64,86.43l1,1.08a4.42,4.42,0,0,0-1.29,2.2,1.86,1.86,0,0,0,.09,1.2,1.37,1.37,0,0,0,1,.72,1.11,1.11,0,0,0,.84-.15,1.86,1.86,0,0,0,.73-.92c.1-.25.23-.6.39-1a3.07,3.07,0,0,1,1.45-1.77,3,3,0,0,1,2-.22c1.88.48,2.59,1.81,2.12,4a5.47,5.47,0,0,1-2.17,3.35ZM68.7,85a17.28,17.28,0,0,1-2.17-1,2.94,2.94,0,0,1-.78-.66A3.4,3.4,0,0,1,65,81.84a3.3,3.3,0,0,1,.17-2,3.39,3.39,0,0,1,1.25-1.61A3.26,3.26,0,0,1,68,77.64a2.23,2.23,0,0,1,1,0,20.11,20.11,0,0,1,2.24.78,18.87,18.87,0,0,1,2.15.94,2.36,2.36,0,0,1,.79.68,3.22,3.22,0,0,1,.74,1.49,3.37,3.37,0,0,1-.17,2,3.29,3.29,0,0,1-1.24,1.58,3.38,3.38,0,0,1-1.57.62l-.48,0a3.4,3.4,0,0,1-.56-.07A17.64,17.64,0,0,1,68.7,85Zm.54-1.38a12.39,12.39,0,0,0,1.93.64,1.73,1.73,0,0,0,.94,0,1.81,1.81,0,0,0,.7-.39,1.93,1.93,0,0,0,.66-1.7,1.63,1.63,0,0,0-.25-.74,1.78,1.78,0,0,0-.66-.68,13.45,13.45,0,0,0-1.85-.84,14.09,14.09,0,0,0-1.93-.65,2.21,2.21,0,0,0-1.64.43,2,2,0,0,0-.53.78,1.92,1.92,0,0,0-.13.92,1.76,1.76,0,0,0,.26.77,1.61,1.61,0,0,0,.64.66A12.81,12.81,0,0,0,69.24,83.59Zm8.45-12.16A3.93,3.93,0,0,1,79,73.58a3.44,3.44,0,0,1-.46,2.3A3.34,3.34,0,0,1,77,77.26a3.28,3.28,0,0,1-1.64.37l-.48,0a2.49,2.49,0,0,1-.54-.15,18,18,0,0,1-2.08-1.08,17.25,17.25,0,0,1-2-1.27,2.86,2.86,0,0,1-.67-.77,3.49,3.49,0,0,1-.52-1.62,3.4,3.4,0,0,1,.47-2,3.28,3.28,0,0,1,1.91-1.57,3.9,3.9,0,0,1,2.41.08l-.78,1.37a2.27,2.27,0,0,0-1.24,0,1.88,1.88,0,0,0-1,.84,2,2,0,0,0-.27.89,1.87,1.87,0,0,0,.15.8,1.73,1.73,0,0,0,.53.76A13,13,0,0,0,73,75.06a12.61,12.61,0,0,0,1.81.92,1.7,1.7,0,0,0,.93.09,1.81,1.81,0,0,0,.75-.28,1.75,1.75,0,0,0,.65-.67,2,2,0,0,0-.26-2.32Zm-4.91-5.56.87-1.2,8.21,6L81,71.83Zm12-2.27-2.51,2.75,1.17,2.09L82.43,69.6l-5.09-9.46.84-.92,9.9,4.19L87,64.57ZM83.54,63l-4.23-1.94,0,0,2.32,4Zm.3-7.41-2,1.75-.89-1,5.22-4.47.88,1-2,1.76,5.71,6.65-1.12,1ZM88,50.52l1.22-.85L95.05,58l-1.22.85Zm6.07,1.9a18.18,18.18,0,0,1-1-2.13,2.92,2.92,0,0,1-.18-1,3.46,3.46,0,0,1,.41-1.64,3.31,3.31,0,0,1,1.42-1.43,3.4,3.4,0,0,1,3.57.13A2.49,2.49,0,0,1,99,47a20.29,20.29,0,0,1,1.21,2,18.46,18.46,0,0,1,1,2.1,2.39,2.39,0,0,1,.17,1,3.32,3.32,0,0,1-.39,1.62,3.41,3.41,0,0,1-1.43,1.44,3.34,3.34,0,0,1-2,.42,3.27,3.27,0,0,1-1.59-.54l-.38-.29a2.58,2.58,0,0,1-.38-.41A18.09,18.09,0,0,1,94.08,52.42Zm1.31-.72a12.27,12.27,0,0,0,1.06,1.73,1.79,1.79,0,0,0,.75.57,2,2,0,0,0,1.69-.09,1.88,1.88,0,0,0,1-1.37,1.71,1.71,0,0,0-.06-.94,13.05,13.05,0,0,0-.88-1.83A13,13,0,0,0,97.86,48a1.82,1.82,0,0,0-.75-.55,1.94,1.94,0,0,0-.77-.18,2.21,2.21,0,0,0-.92.26,2,2,0,0,0-.69.62,1.93,1.93,0,0,0-.29.76,1.64,1.64,0,0,0,.06.92A12.38,12.38,0,0,0,95.39,51.7ZM101,43.13l1.33-.46L108.93,48h0l-2.37-6.81,1.41-.48,3.32,9.57-1.33.46-6.56-5.35h0l2.36,6.81-1.4.48Zm18.85.41a17.66,17.66,0,0,1,0-2.37,2.92,2.92,0,0,1,.29-1,3.52,3.52,0,0,1,1.09-1.29,3.46,3.46,0,0,1,5,1,2.52,2.52,0,0,1,.38,1,19,19,0,0,1,.19,2.36,20,20,0,0,1,0,2.35,2.52,2.52,0,0,1-.3,1,3.31,3.31,0,0,1-1.07,1.29,3.4,3.4,0,0,1-1.92.66,3.3,3.3,0,0,1-2-.5,3.34,3.34,0,0,1-1.2-1.19c-.08-.15-.15-.29-.21-.43a2.58,2.58,0,0,1-.16-.53A18.74,18.74,0,0,1,119.89,43.54Zm1.49-.06a11.72,11.72,0,0,0,.19,2,1.76,1.76,0,0,0,.42.84,1.64,1.64,0,0,0,.64.48,1.68,1.68,0,0,0,.91.2,1.91,1.91,0,0,0,.92-.27,1.71,1.71,0,0,0,.57-.53,1.9,1.9,0,0,0,.36-.88,12.57,12.57,0,0,0,0-2,13.75,13.75,0,0,0-.18-2,1.79,1.79,0,0,0-.44-.83,1.65,1.65,0,0,0-.61-.49,2,2,0,0,0-.93-.18,2.06,2.06,0,0,0-.9.25,1.74,1.74,0,0,0-.59.55,1.67,1.67,0,0,0-.35.86A11.3,11.3,0,0,0,121.38,43.48Zm8.7-5.15,6.24.65-.15,1.43-4.76-.49-.31,3,4.06.42L135,44.68,131,44.26l-.44,4.31L129,48.41Zm17,3.3,3.31,1.31a5.53,5.53,0,0,1,1,.51,2.87,2.87,0,0,1,.79,1,2.41,2.41,0,0,1,.35,1.18,3.43,3.43,0,0,1-.25,1.46,3.17,3.17,0,0,1-1.47,1.62,2.88,2.88,0,0,1-2.51.09l-2.11-.83-1.45,3.68-1.38-.55Zm-.36,4.95,2.06.81a1.54,1.54,0,0,0,1.35,0,1.79,1.79,0,0,0,.78-.9,2,2,0,0,0,.17-.86,1.35,1.35,0,0,0-.26-.63,1.82,1.82,0,0,0-.89-.66l-2-.79Zm6.6,3.13a17.92,17.92,0,0,1,1.29-2,2.86,2.86,0,0,1,.77-.67,3.48,3.48,0,0,1,1.62-.49,3.29,3.29,0,0,1,2,.48,3.36,3.36,0,0,1,1.73,3.12,2.33,2.33,0,0,1-.19,1,20.84,20.84,0,0,1-1.12,2.08,22.78,22.78,0,0,1-1.26,2,2.48,2.48,0,0,1-.79.67,3.22,3.22,0,0,1-1.59.5,3.38,3.38,0,0,1-2-.48,3.33,3.33,0,0,1-1.37-1.48A3.28,3.28,0,0,1,152,52.8q0-.25.06-.48a2.92,2.92,0,0,1,.15-.53A18.38,18.38,0,0,1,153.3,49.71Zm1.29.75a11.08,11.08,0,0,0-.93,1.8,1.63,1.63,0,0,0-.1.93,1.83,1.83,0,0,0,.27.76,1.75,1.75,0,0,0,.67.65,1.77,1.77,0,0,0,.91.27,1.63,1.63,0,0,0,.77-.14,1.78,1.78,0,0,0,.78-.54,13.84,13.84,0,0,0,1.11-1.7,12.87,12.87,0,0,0,.94-1.81,1.78,1.78,0,0,0,.08-.93,1.71,1.71,0,0,0-.25-.75,2,2,0,0,0-1.57-.92,1.9,1.9,0,0,0-.8.14,1.73,1.73,0,0,0-.76.53A13.17,13.17,0,0,0,154.59,50.46Zm10.13.39,1.16.93-5.45,6.77,3.72,3-.9,1.12-4.89-3.93Zm6.81,5.83,1.05,1-7.14,7.19-1.06-1.05Zm1.84,13.12a3.89,3.89,0,0,1-2.46.41,3.45,3.45,0,0,1-2-1.24,3.33,3.33,0,0,1-.77-1.87,3.23,3.23,0,0,1,.24-1.67q.1-.23.21-.42a2.42,2.42,0,0,1,.34-.45A17.47,17.47,0,0,1,170.7,63a17.74,17.74,0,0,1,1.9-1.42,2.69,2.69,0,0,1,1-.35,3.41,3.41,0,0,1,1.69.09,3.33,3.33,0,0,1,1.66,1.14,3.24,3.24,0,0,1,.79,2.34,3.86,3.86,0,0,1-.93,2.23l-1-1.23a2.21,2.21,0,0,0,.39-1.17A2,2,0,0,0,175,62.86a1.92,1.92,0,0,0-.8-.15,1.63,1.63,0,0,0-.9.23,13.34,13.34,0,0,0-1.65,1.21,12.5,12.5,0,0,0-1.5,1.36,1.76,1.76,0,0,0-.42.84,1.8,1.8,0,0,0,0,.8,1.69,1.69,0,0,0,.39.85,2,2,0,0,0,2.26.58Zm7.14-2.41,3.24,5.37-1.24.75L180,69.41l-2.49,1.49,2.11,3.5-1.16.71-2.11-3.5-2.56,1.54,2.47,4.1-1.23.74-3.24-5.37Zm7.69,15.84.94,3.43a4.78,4.78,0,0,1,.19,1.11A2.88,2.88,0,0,1,189,89a2.34,2.34,0,0,1-.74,1,3.2,3.2,0,0,1-1.31.68,3.13,3.13,0,0,1-2.18-.21,2.84,2.84,0,0,1-1.58-2l-.59-2.18-3.82,1-.39-1.43ZM184,85.91l.58,2.13a1.57,1.57,0,0,0,.84,1.06,1.73,1.73,0,0,0,1.18.09,2.16,2.16,0,0,0,.79-.38,1.39,1.39,0,0,0,.36-.59,1.8,1.8,0,0,0,0-1.1L187.2,85Zm1.45,7.14a18,18,0,0,1,2.37-.16,2.68,2.68,0,0,1,1,.22,3.33,3.33,0,0,1,1.37,1A3.23,3.23,0,0,1,191,96a3.34,3.34,0,0,1-1.46,3.25,2.26,2.26,0,0,1-.92.45,22.21,22.21,0,0,1-2.34.36,18,18,0,0,1-2.34.17,2.29,2.29,0,0,1-1-.23,3.13,3.13,0,0,1-1.35-1,3.53,3.53,0,0,1-.44-3.86,3.37,3.37,0,0,1,1.1-1.27c.15-.09.28-.17.42-.24a2.7,2.7,0,0,1,.52-.2A19.63,19.63,0,0,1,185.48,93.05Zm.17,1.48a11.91,11.91,0,0,0-2,.34,1.63,1.63,0,0,0-.81.48,1.93,1.93,0,0,0-.56,1.59,1.84,1.84,0,0,0,.33.9,2,2,0,0,0,1.47.83,14.47,14.47,0,0,0,2-.13,12.61,12.61,0,0,0,2-.33,2.17,2.17,0,0,0,1.25-1.14,2.2,2.2,0,0,0,.11-.94,2.09,2.09,0,0,0-.32-.88,1.81,1.81,0,0,0-.59-.55,1.65,1.65,0,0,0-.88-.29A12.78,12.78,0,0,0,185.65,94.53Zm5.76,8.33,0,1.49-8.69-.3-.16,4.78-1.45,0,.22-6.26Zm-6.47,8,6.31-2.12-.22,1.56-4.73,1.45,4.17,2.67-.22,1.57-5.5-3.74-4.13-.57.19-1.39Zm-.46,9.31-1,3.35-2-.57a3.61,3.61,0,0,1-2.17-1.67,3.41,3.41,0,0,1-.32-2.68,3.51,3.51,0,0,1,2.6-2.46l.47-.06a2.76,2.76,0,0,1,.56,0,16.38,16.38,0,0,1,2.29.55,15.67,15.67,0,0,1,2.24.75,2.81,2.81,0,0,1,.84.58,3.57,3.57,0,0,1,.89,1.44,3.3,3.3,0,0,1,0,2,3.26,3.26,0,0,1-1.47,2,3.84,3.84,0,0,1-2.36.5l.43-1.51a2.27,2.27,0,0,0,1.19-.35,1.81,1.81,0,0,0,.74-1,1.82,1.82,0,0,0-.29-1.67,1.74,1.74,0,0,0-.7-.6,20.12,20.12,0,0,0-3.91-1.12,1.64,1.64,0,0,0-.93.14,1.77,1.77,0,0,0-.66.45,1.71,1.71,0,0,0-.47.81,1.87,1.87,0,0,0,.2,1.55,2.18,2.18,0,0,0,1.32,1l.51.14.55-1.92Zm2.2,7.86-1.62,3.48a2.9,2.9,0,0,1-1.45,1.53,2.74,2.74,0,0,1-2.37,0,2.8,2.8,0,0,1-1.74-2.9l-5,.16.74-1.6H180l.8-1.73-3.93-1.82.63-1.35ZM182,127.5l-1,2a1.61,1.61,0,0,0-.07,1.35,1.57,1.57,0,0,0,.84.84,1.35,1.35,0,0,0,1.25,0,1.7,1.7,0,0,0,.74-.86l1-2.12Zm-9.2,9.37,2.08-3.09-1.47-1.89.88-1.31,6.43,8.61-.69,1-10.41-2.68.88-1.3Zm1.37.41,4.48,1.28v0l-2.89-3.65Zm2.11,8-2.4,2.62a5.8,5.8,0,0,1-.84.75,2.89,2.89,0,0,1-1.18.4,2.4,2.4,0,0,1-1.23-.1,3.28,3.28,0,0,1-1.27-.76,3.12,3.12,0,0,1-1-1.95,2.86,2.86,0,0,1,.82-2.37l1.54-1.67-2.92-2.68,1-1.09Zm-4.49-2.1-1.49,1.62a1.56,1.56,0,0,0-.46,1.28,1.81,1.81,0,0,0,.56,1,2.08,2.08,0,0,0,.74.46,1.25,1.25,0,0,0,.69,0,1.88,1.88,0,0,0,.93-.59l1.45-1.59Zm-10.17,8.12,3-2.42L162,145.44l1.17-.92,6.29,7.94-1.16.92-2.7-3.4-3.05,2.41,2.7,3.41-1.17.92-6.29-7.94,1.16-.92Zm-.57,7.3-1.27.78-5.33-8.62,1.26-.78Zm-7.51-4.41a4.22,4.22,0,0,0-2.95.29c-1.14.57-1.52,1.27-1.14,2.11a1.3,1.3,0,0,0,1.74.68l1.26-.39a3.14,3.14,0,0,1,2.15,0,2.75,2.75,0,0,1,1.43,1.4,2.83,2.83,0,0,1,.15,2.3,3.28,3.28,0,0,1-1.76,1.76,5.44,5.44,0,0,1-3.32.43l.2-1.5a4.4,4.4,0,0,0,2.53-.35,1.89,1.89,0,0,0,.88-.81,1.36,1.36,0,0,0,0-1.21,1.16,1.16,0,0,0-.64-.57,1.86,1.86,0,0,0-1.17,0c-.27.07-.62.18-1.07.33a3,3,0,0,1-2.28,0,2.93,2.93,0,0,1-1.41-1.43q-1.19-2.66,1.83-4.14a5.48,5.48,0,0,1,4-.38Zm-7.23,9.93,2.57-.82.41,1.3-6.54,2.08-.42-1.29,2.57-.82-2.67-8.36,1.42-.45Zm-7.53-4.38a4.21,4.21,0,0,0-2.92-.52c-1.26.23-1.82.81-1.68,1.72.12.74.62,1.12,1.5,1.13l1.31,0a3.17,3.17,0,0,1,2.06.63,2.79,2.79,0,0,1,1,1.73,2.83,2.83,0,0,1-.48,2.26,3.32,3.32,0,0,1-2.17,1.21,5.41,5.41,0,0,1-3.32-.5l.61-1.38a4.41,4.41,0,0,0,2.53.36,1.78,1.78,0,0,0,1.06-.55,1.29,1.29,0,0,0,.3-1.16,1.14,1.14,0,0,0-.46-.73,1.86,1.86,0,0,0-1.12-.32l-1.12,0a3,3,0,0,1-2.18-.66,2.87,2.87,0,0,1-1-1.75c-.28-1.92.68-3.08,2.9-3.49a5.39,5.39,0,0,1,3.92.73Z"/><path id="Left_Stars" data-name="Left Stars" class="cls-3" d="M25.23,66.57,26,64.8l-1.11-1.16s0,0,0,0l1.47.39s.73-1.6.77-1.67.05,0,.05,0l.57,2,1.79.46c.05,0,0,0,0,0l-1.48.58.57,2.06s0,0,0,0-1.59-1.66-1.59-1.66l-1.83.72S25.22,66.6,25.23,66.57Zm1.65,9.33,1.82-.72,1.59,1.66s0,0,0,0-.58-2-.58-2l1.49-.59s0,0,0,0l-1.79-.46-.57-2s0-.07-.06,0L28,73.32l-1.46-.38s0,0,0,0l1.11,1.15s-.8,1.74-.82,1.77S26.83,75.92,26.88,75.9Zm11.27,5.21-1.79-.46-.57-2s0-.07-.06,0L35,80.28,33.5,79.9s0,0,0,0l1.11,1.16s-.8,1.74-.82,1.77,0,0,0,0l1.82-.72,1.59,1.66s0,0,0,0l-.58-2.06,1.49-.58S38.19,81.12,38.15,81.11Zm-2.12-9-1.79-.47-.57-2s0-.07-.06,0l-.76,1.67-1.47-.38s0,0,0,0L32.48,72l-.81,1.77s0,0,0,0l1.83-.71,1.58,1.65s0,0,0,0l-.57-2L36,72.11S36.08,72.08,36,72.07ZM33.47,82.93l-1.79-.47-.57-2s0-.07-.06,0l-.77,1.67-1.46-.38s0,0,0,0l1.11,1.15-.81,1.77s0,0,0,0L30.94,84l1.59,1.65s0,0,0,0l-.58-2L33.47,83S33.52,82.94,33.47,82.93Zm8-23.56s-.79,1.74-.81,1.77,0,0,0,0l1.82-.71,1.59,1.65s0,0,0,0L43.57,60l1.49-.59s0,0,0,0l-1.79-.47-.57-2s0-.07-.06,0-.77,1.67-.77,1.67L40.4,58.2s0,0,0,0Zm1.78,6.25s0-.07-.06,0l-.77,1.67L41,66.91s0,0,0,0l1.11,1.16s-.8,1.74-.82,1.77,0,0,0,0l1.82-.72,1.59,1.66s0,0,0,0l-.58-2.06,1.49-.58s0,0,0,0l-1.79-.46Zm-2.45,4.25L39,69.41l-.56-2s0-.07-.06,0S37.65,69,37.65,69l-1.47-.38s0,0,0,0l1.11,1.16-.81,1.77s0,0,0,0l1.82-.72,1.59,1.66s0,0,0,0l-.57-2.06,1.48-.58S40.88,69.88,40.83,69.87ZM55,83.55l-.57-2s0-.07-.06,0l-.77,1.67-1.46-.38s0,0,0,0L53.26,84l-.81,1.76s0,0,0,0l1.82-.72.31.31c.15-.6.32-1.2.49-1.8ZM58,71l-.81,1.77s0,0,0,0L59,72.1l.23.23c.26-.56.53-1.11.8-1.66l-.3-.08-.56-2s0-.07-.06,0-.77,1.67-.77,1.67l-1.47-.38s0,0,0,0Zm-5.8,3.79-1.8-.46-.56-2s0-.07-.06,0S49,74,49,74l-1.47-.38s0,0,0,0,1.11,1.15,1.11,1.15-.79,1.74-.81,1.77,0,0,0,0l1.82-.72,1.59,1.66s0,0,0,0l-.57-2,1.49-.59S52.23,74.82,52.19,74.81Zm2.32-4.16s0-.07-.06,0-.77,1.67-.77,1.67l-1.47-.38s0,0,0,0,1.11,1.15,1.11,1.15l-.81,1.77s0,0,0,0l1.82-.72,1.59,1.66s0,0,0,0l-.57-2,1.48-.59s0,0,0,0-1.8-.46-1.8-.46ZM42.83,79,41,78.53l-.57-2s0-.07-.06,0l-.77,1.67-1.46-.38s0,0,0,0L39.28,79s-.8,1.73-.82,1.76,0,0,0,0L40.3,80l1.59,1.65s0,0,0,0l-.58-2.05L42.83,79S42.87,79,42.83,79Zm8.81,6.89-1.8-.47-.56-2s0-.07-.06,0-.77,1.67-.77,1.67L47,84.68s0,0,0,0l1.11,1.16-.81,1.76s0,0,0,0l1.82-.72,1.59,1.65s0,0,0,0l-.57-2,1.48-.59S51.68,85.9,51.64,85.89Zm0-21.32-.81,1.76s0,0,0,0l1.82-.72,1.59,1.65s0,0,0,0l-.57-2,1.49-.59s0,0,0,0l-1.8-.47-.56-2s0-.07-.06,0-.77,1.67-.77,1.67l-1.47-.38s0,0,0,0Zm-6.6,9.94c0,.07-.77,1.67-.77,1.67l-1.47-.38s0,0,0,0L44,77s-.79,1.74-.81,1.77,0,0,0,0L45,78.05l1.59,1.66s0,0,0,0L46,77.64l1.49-.58s0,0,0,0l-1.79-.47-.57-2S45.12,74.44,45.09,74.51Zm1.8-8.32L46.08,68s0,0,0,0l1.83-.71,1.58,1.65s0,0,0,0l-.57-2,1.48-.59s.05,0,0,0l-1.79-.47-.57-2s0-.07-.06,0l-.76,1.67L45.79,65s0,0,0,0Zm-10.54-5L35.54,63s0,0,0,0l1.83-.72L39,63.94s0,0,0,0l-.57-2.06,1.48-.58s.05,0,0,0l-1.79-.46-.57-2s0-.08-.06,0l-.76,1.67L35.25,60s0,0,0,0Zm4,31.77s0,0,0,0l-.57-2,1.48-.59s0,0,0,0l-1.79-.46-.56-2s0-.07-.06,0-.77,1.67-.77,1.67l-1.47-.38s0,0,0,0,1.11,1.15,1.11,1.15L36.92,92s0,0,0,0l1.82-.72Zm1.12,5.21-.56-2s0-.07-.06,0-.77,1.67-.77,1.67l-1.47-.38s0,0,0,0l1.1,1.15s-.79,1.74-.81,1.77,0,0,0,0l1.82-.71,1.59,1.65s0,0,0,0l-.57-2,1.49-.59s0,0,0,0Zm4.08-7.37L45,88.76l1.49-.58s0,0,0-.05l-1.79-.47-.57-2s0-.07-.06,0l-.77,1.67-1.46-.38s0,0,0,0l1.11,1.16-.81,1.76s0,0,0,0l1.82-.72,1.59,1.66S45.56,90.85,45.55,90.82ZM32.39,60.3s0-.07-.06,0L31.56,62l-1.46-.38s0,0,0,0l1.11,1.15s-.8,1.74-.82,1.77,0,0,0,0l1.82-.71,1.59,1.65s0,0,0,0l-.58-2.05,1.49-.59s0,0,0,0L33,62.33Zm17.66,42.35-.57-2s0-.07-.06,0l-.76,1.67-1.47-.38s0,0,0,0l1.11,1.16-.81,1.77s0,0,0,0l1.83-.72,1.58,1.66s0,0,0,0l-.57-2.06,1.48-.58s0,0,0,0ZM48,99.33l-.57-2,1.48-.59s.05,0,0,0l-1.79-.46-.57-2s0-.07,0,0-.77,1.67-.77,1.67l-1.47-.38s0,0,0,0l1.11,1.15-.81,1.77s0,0,0,0l1.83-.72s1.56,1.64,1.59,1.66S48,99.36,48,99.33Zm4.95-5.18-.19-.05-.57-2s0-.07-.06,0-.77,1.67-.77,1.67l-1.46-.38s0,0,0,0L51,94.53l-.81,1.77s0,0,0,0L52,95.6l.67.7C52.75,95.58,52.85,94.86,52.94,94.15Zm-23.8-.25-.56-2s0-.07-.06,0-.77,1.67-.77,1.67l-1.47-.38s0,0,0,0l1.11,1.16-.81,1.76s0,.05,0,0l1.82-.72L30,97.06s0,0,0,0l-.57-2,1.48-.59s.05,0,0,0ZM34.32,92l-.55-2s0-.08-.06,0-.78,1.67-.78,1.67l-1.47-.4s0,0,0,0l1.09,1.17-.83,1.76s0,0,0,0l1.84-.7,1.57,1.67s0,0,0,0l-.55-2.06,1.49-.57s0,0,0,0ZM18.66,51.39s0,0,0,0l1.82-.72,1.59,1.66s0,0,0,0l-.58-2.06L23,49.7s0,0,0-.05l-1.79-.47-.57-2s0-.07-.06,0l-.77,1.67-1.46-.38s0,0,0,0l1.11,1.16Zm6.09,4.4-.81,1.76s0,.05,0,0l1.82-.72,1.59,1.66s0,0,0,0l-.57-2.06,1.48-.58s.05,0,0,0l-1.79-.47-.56-2s0-.07-.06,0S25.12,55,25.12,55l-1.47-.38s0,0,0,0Zm5-1.74s-.8,1.74-.82,1.77,0,0,0,0l1.82-.71,1.59,1.65s0,0,0,0-.58-2.05-.58-2.05l1.49-.59s0,0,0,0l-1.79-.47-.57-2s0-.07-.06,0-.77,1.67-.77,1.67l-1.46-.38s-.05,0,0,0ZM27.88,87.69l-.57-2.06,1.48-.58s.05,0,0,0L27,84.54l-.57-2s0-.08-.06,0l-.76,1.67-1.47-.38s0,0,0,0L25.24,85l-.81,1.77s0,0,0,0L26.27,86l1.58,1.66S27.89,87.72,27.88,87.69ZM22.23,60.44s0,0,0,0l-.57-2,1.48-.59s.05,0,0,0l-1.79-.47-.57-2s0-.07-.05,0S20,56.92,20,56.92l-1.47-.38s0,0,0,0l1.11,1.15-.81,1.77s0,0,0,0l1.83-.71S22.2,60.42,22.23,60.44ZM25.18,78.9l-.57-2.06,1.48-.58s.05,0,0-.05l-1.79-.46-.57-2s0-.07-.06,0-.76,1.67-.76,1.67L21.44,75s0,0,0,0l1.11,1.16L21.73,78s0,0,0,0l1.83-.72,1.58,1.66S25.19,78.93,25.18,78.9ZM23.5,69.74s0,0,0,0l-.58-2,1.49-.59s0,0,0,0l-1.79-.47-.57-2s0-.07-.06,0l-.77,1.67-1.46-.38s0,0,0,0L20.89,67l-.81,1.77s0,0,0,0l1.82-.71Z"/><path id="Right_Stars" data-name="Right Stars" class="cls-3" d="M217,74.27l.76,1.79s0,0,0,0L216,75.32l-1.63,1.61s0,0,0,0l.63-2-1.47-.62s-.05,0,0-.05l1.8-.42.62-2s0-.07.06,0l.72,1.69,1.48-.34s0,0,0,0ZM218.13,57s-.61,2-.63,2,0,0,0,0l1.63-1.61,1.8.76s0,0,0,0l-.76-1.79,1.14-1.12s0,0,0,0l-1.48.34-.72-1.69c0-.07-.06,0-.06,0l-.62,2-1.81.42s0,0,0,0Zm5,1.87-.63,2s0,0,0,0l1.63-1.62,1.81.77c.05,0,0,0,0,0l-.76-1.79s1.11-1.09,1.14-1.13,0,0,0,0l-1.47.35s-.69-1.62-.73-1.7-.06,0-.06,0l-.62,2-1.8.42c-.05,0,0,0,0,0Zm-9.68,12s0,0,0,0l-1.48.34-.72-1.69c0-.07-.06,0-.06,0l-.62,2-1.81.42s0,0,0,0l1.47.63s-.61,2-.63,2,0,0,0,0L211.21,73l1.81.77s0,0,0,0L212.27,72ZM206.24,62l-.62,2s0,0,0,0l1.63-1.61,1.81.77s0,0,0,0l-.76-1.78,1.14-1.13s0,0,0,0l-1.48.34-.72-1.69c0-.07-.06,0-.06,0l-.62,2-1.8.42c-.05,0,0,0,0,0Zm5.11,2-.63,2s0,0,0,0l1.64-1.62,1.8.77s0,0,0,0l-.76-1.79s1.11-1.09,1.14-1.13,0,0,0,0l-1.47.35s-.69-1.62-.73-1.69-.06,0-.06,0l-.62,2-1.8.42s0,0,0,0Zm5.11,1.69-.63,2s0,0,0,0l1.64-1.61,1.8.76c.05,0,0,0,0,0s-.77-1.79-.77-1.79,1.11-1.09,1.14-1.13,0,0,0,0l-1.47.34s-.69-1.62-.73-1.69-.06,0-.06,0l-.62,2L215,65c-.05,0,0,0,0,0Zm-11,5-.63,2s0,0,0,0l1.63-1.61,1.8.76c.05,0,0,0,0,0s-.77-1.79-.77-1.79L208.65,69s0,0,0,0l-1.47.34s-.69-1.62-.73-1.69-.05,0-.05,0l-.63,2L204,70c-.05,0,0,0,0,0Zm17.46,4.67s0,0,0,0l-1.48.35L220.69,74c0-.08-.06,0-.06,0L220,76l-1.81.42s0,0,0,0l1.47.63-.63,2s0,0,0,0l1.63-1.62,1.8.77c.05,0,0,0,0,0l-.76-1.79S222.86,75.39,222.89,75.35Zm-2.47,8.72s0,0,0,0l-1.48.34-.72-1.69c0-.07-.06,0-.06,0l-.62,2-1.8.41s0,0,0,.05l1.46.63-.62,2s0,0,0,0l1.63-1.62L220,87s0,0,0,0l-.76-1.79Zm4.36-18s0,0,0,0l-1.48.34-.72-1.69c0-.07-.06,0-.06,0l-.62,2-1.8.41c-.05,0,0,0,0,0l1.47.62-.63,2s0,0,0,0l1.63-1.61,1.81.77c.05,0,0,0,0,0l-.76-1.79S224.75,66.13,224.78,66.09Zm-13.61,13.8s0,0,0,0l-1.48.34L209,78.52c0-.07-.06,0-.06,0l-.62,2-1.8.42s0,0,0,0l1.47.63-.63,2s0,0,0,0L209,82.06l1.81.77c.05,0,0,0,0,0L210,81S211.14,79.93,211.17,79.89Zm4.62,2.24s0,0,0,0l-1.48.34-.72-1.69c0-.07-.06,0-.06,0l-.62,2-1.8.42s0,0,0,0l1.47.63-.63,2s0,0,0,0l1.63-1.62,1.81.77s0,0,0,0l-.76-1.79S215.76,82.17,215.79,82.13Zm-9.25-4.35s0,0,0,0l-1.48.34-.72-1.69c0-.07-.06,0-.06,0l-.62,2-1.81.41s0,0,0,0l1.47.62-.63,2s0,0,0,0L204.35,80l1.8.77s0,0,0,0l-.77-1.79S206.51,77.82,206.54,77.78Zm-4.36,8.77s0,0,0,0l-1.47.34s-.69-1.62-.73-1.69-.06,0-.06,0l-.62,2-.91.21c.05.24.11.47.16.7l.42.18-.22.72c0,.26.09.54.14.81l1.1-1.09,1.81.76c.05,0,0,0,0,0L201,87.67Zm-.25-11.09s0,0,0,0l-1.48.34-.72-1.69c0-.07-.06,0-.06,0l-.62,2-1.81.41s0,0,0,0l1.47.62s-.61,2-.63,2,0,0,0,0l1.63-1.61,1.81.77s0,0,0,0l-.76-1.79ZM223.55,86.6l-.72-1.69c0-.08-.06,0-.06,0l-.62,2-1.8.42s0,0,0,0l1.47.63-.63,2s0,0,0,0l1.63-1.61,1.81.76s0,0,0,0l-.76-1.79L225,86.28s0,0,0,0Zm2.94-8.72-.72-1.69c0-.07-.06,0-.06,0l-.62,2-1.81.41s0,0,0,0l1.47.62-.63,2s0,0,0,0l1.63-1.61,1.8.77s0,0,0,0l-.77-1.78L228,77.56s0,0,0,0ZM216,93.81s-.71-1.61-.74-1.69-.06,0-.06,0l-.6,2-1.8.43c-.05,0,0,0,0,0l1.47.61-.6,2s0,0,0,0l1.62-1.63,1.81.75c.05,0,0,0,0,0l-.78-1.78,1.13-1.14s0,0,0,0Zm5.12,2.09-.72-1.69c0-.07-.06,0-.06,0l-.62,2-1.81.42s0,0,0,0l1.47.62-.63,2s0,0,0,0l1.63-1.61,1.8.77c.05,0,0,0,0,0l-.77-1.78,1.14-1.13s0,0,0,0ZM200.68,68.66l-.63,2s0,0,0,0l1.64-1.62,1.8.77c.05,0,0,0,0,0s-.77-1.79-.77-1.79,1.11-1.09,1.14-1.13,0,0,0,0l-1.47.34s-.69-1.62-.73-1.69-.06,0-.06,0l-.62,2-1.8.41c-.05,0,0,0,0,0Zm29.23-9.16-.72-1.69c0-.07-.06,0-.06,0l-.62,2-1.8.42c-.05,0,0,0,0,0l1.47.62-.62,2s0,0,0,0l1.63-1.61,1.81.77s0,0,0,0l-.76-1.78,1.14-1.13s0,0,0,0Zm-1.52,9.26s-.69-1.62-.73-1.69,0,0,0,0l-.63,2s-1.75.41-1.8.41,0,0,0,0l1.47.62-.63,2s0,0,0,0l1.63-1.61,1.8.77c.05,0,0,0,0,0s-.77-1.79-.77-1.79,1.11-1.09,1.14-1.13,0,0,0,0Zm3.36-17.69-1.48.34-.72-1.69c0-.07-.06,0-.06,0l-.62,2-1.8.41s0,0,0,.05l1.47.62-.63,2s0,0,0,0l1.63-1.61,1.81.77s0,0,0,0l-.76-1.78s1.11-1.09,1.14-1.13S231.75,51.07,231.75,51.07Zm-36.89,25,.24-.24,1.8.76s0,0,0,0l-.77-1.79,1.14-1.12s0,0,0,0l-1.48.34-.72-1.69c0-.08-.06,0-.06,0l-.62,2-.26.06C194.4,74.93,194.63,75.51,194.86,76.08Zm5.33,28c0,.75,0,1.49-.06,2.23l1,.42s0,0,0,0l-.76-1.79,1.14-1.12s0,0,0,0ZM195.92,66.9l-.63,2s0,0,0,0L197,67.34l1.8.76c.05,0,0,0,0,0s-.77-1.79-.77-1.79l1.14-1.12s0,0,0,0l-1.47.34-.72-1.69c0-.08-.06,0-.06,0l-.62,2-1.81.42s0,0,0,0Zm11,24.94s-.77-1.79-.77-1.79,1.11-1.09,1.14-1.13,0,0,0,0l-1.47.35-.72-1.7c0-.07-.06,0-.06,0l-.63,2-1.8.42s0,0,0,0l1.47.63-.63,2s0,0,0,0l1.63-1.62,1.8.77S206.93,91.87,206.92,91.84Zm-3.78,5.85s-.69-1.62-.73-1.69-.06,0-.06,0l-.62,2-1.74.4v.09l1.4.59-.63,2s0,0,0,0,1.64-1.61,1.64-1.61l1.8.77c.05,0,0,0,0,0s-.77-1.79-.77-1.79,1.11-1.09,1.14-1.13,0,0,0,0Zm5.58,2.16s-.69-1.61-.73-1.69-.05,0-.05,0l-.63,2-1.8.42s0,0,0,0l1.47.63-.63,2s0,0,0,0L208,101.7l1.8.77c.05,0,0,0,0,0s-.77-1.79-.77-1.79,1.11-1.09,1.14-1.13,0,0,0,0Zm2.2-8.31-.72-1.69c0-.07-.06,0-.06,0l-.62,2-1.8.42c-.05,0,0,0,0,0l1.46.62-.62,2s0,0,0,0l1.63-1.61,1.81.77s0,0,0,0l-.76-1.78,1.14-1.13s0,0,0,0Z"/><path id="Top_Arch" data-name="Top Arch" class="cls-2" d="M94.63,92.35l5.16,5.05.7-.71L95.66,92c.9-.33,3.3-1.14,6.86-2l3.23,4.24.79-.6-3-3.9c9.64-2.33,26.6-4.93,45.14-1l-2.87,6.23.91.41,3-6.42a84.5,84.5,0,0,1,9,2.54l-4.76,4.38.68.73,5.16-4.74h0L160,75.18l-.31-.13c-.29-.12-29.68-12.37-65.9-.65l-.38.12Zm.9-1.41-1.08-15.7c33.7-10.77,61.31-.65,64.52.61l-.2,14.56C128.71,80.16,100.11,89.33,95.53,90.94Zm-.59-10.78V80l.26,0a2,2,0,0,0,1.27-.3l.41-.24a.89.89,0,0,1,.4-.37.55.55,0,0,1,.53,0h.39a1.58,1.58,0,0,0,1.13-.48s0-.1.08-.15a.76.76,0,0,1,.32-.4.64.64,0,0,1,.75,0l.07.07a.38.38,0,0,0,.33.19,1.15,1.15,0,0,0,.89-.64l.16-.35a.83.83,0,0,1,.55-.29.5.5,0,0,1,.51.22s.11.11.65.17a2.18,2.18,0,0,0,1.32-.39.49.49,0,0,0,.2-.25.19.19,0,0,0,0-.08.4.4,0,0,1,.21-.36c.18-.12.46-.17.78.2a1.48,1.48,0,0,0,1.31.17,1.84,1.84,0,0,0,1.19-.78.3.3,0,0,0,0-.08.61.61,0,0,1,.14-.26.69.69,0,0,1,.53-.2.31.31,0,0,1,.19.13,2.39,2.39,0,0,1,.13.21.78.78,0,0,0,.68.52,1.8,1.8,0,0,0,1.25-.47A1.2,1.2,0,0,0,112,75a.67.67,0,0,1,.23-.47.58.58,0,0,1,.42-.14.36.36,0,0,1,.35.25s0,.09,0,.13a1.18,1.18,0,0,0,.28.5,1.13,1.13,0,0,0,.91.25,1.24,1.24,0,0,0,.89-.39.75.75,0,0,1,.48-.38.6.6,0,0,1,.55.17,1.88,1.88,0,0,0,1.35.38,1.42,1.42,0,0,0,.92-.38l.21-.19a.75.75,0,0,1,.83-.38h0l.11.18.08.15a.56.56,0,0,0,.2.28,1.68,1.68,0,0,0,1.48-.14c.26-.17.36-.23.39-.26.09-.23.17-.32.27-.32s.16.12.16.39c0,0,0,.21.57.45a1.33,1.33,0,0,0,1-.09,1.13,1.13,0,0,0,.29-.38c.19-.31.42-.7.87-.64a.57.57,0,0,1,.45.33,1.09,1.09,0,0,0,.54.38,7,7,0,0,1,.7.17c.06-.08.19-.24.38-.5.06-.08.24-.12,1.06.34a2.06,2.06,0,0,0,1.31.16l.42-.08a.56.56,0,0,1,.42-.23.76.76,0,0,1,.55.22l.4.14a1.35,1.35,0,0,0,1.16-.06l.08-.13a.46.46,0,0,1,.33-.28.86.86,0,0,1,.77.32l.07.1a.67.67,0,0,0,.33.31.8.8,0,0,0,.92-.32l.16-.28a.65.65,0,0,1,.56-.11.91.91,0,0,1,.52.41,1.68,1.68,0,0,0,.65.4,2,2,0,0,0,1.34.1.3.3,0,0,0,.2-.18s0,0,0-.07a.28.28,0,0,1,.21-.3c.18,0,.47,0,.78.48a2,2,0,0,0,1.32.65,1.24,1.24,0,0,0,1.19-.36l0-.07a.44.44,0,0,1,.15-.2.54.54,0,0,1,.53,0,.51.51,0,0,1,.19.2l.12.26a1.33,1.33,0,0,0,.69.76,1.4,1.4,0,0,0,1.23,0,.82.82,0,0,0,.32-.72.47.47,0,0,1,.24-.39.46.46,0,0,1,.41,0,.58.58,0,0,1,.34.38.88.88,0,0,1,.05.15,1.87,1.87,0,0,0,.28.59,1.64,1.64,0,0,0,.89.57h0c.66.15.84-.08.84-.08a.47.47,0,0,1,.48-.21.84.84,0,0,1,.54.37,2.76,2.76,0,0,0,1.31.85,1.19,1.19,0,0,0,.9-.05l.19-.12c.13-.25.49-.29.81-.1l0,0,.11.23.07.18a1,1,0,0,0,.19.35,1.75,1.75,0,0,0,1.43.38l.38-.12c.08-.21.16-.27.26-.23s.15.18.15.44c0,0,0,.22.55.65a1.21,1.21,0,0,0,.91.24c.09,0,.18-.14.28-.27s.37-.51.73-.38l.1,0a1,1,0,0,1,.43.49,2.08,2.08,0,0,0,.68.75v.2a2.36,2.36,0,0,1-.84-.92.65.65,0,0,0-.3-.35c-.27-.14-.44,0-.64.31s-.2.29-.34.32a1.22,1.22,0,0,1-.64-.06,1.35,1.35,0,0,1-.46-.24c-.63-.52-.65-.8-.65-.84a.41.41,0,0,0,0-.12.69.69,0,0,1,0,.1s0,0-.45.17a1.91,1.91,0,0,1-1.65-.46,1.17,1.17,0,0,1-.25-.44l-.06-.16-.08-.14a.38.38,0,0,0-.54.09l0,0-.21.13a1.37,1.37,0,0,1-1,.07,2.94,2.94,0,0,1-1.45-1,.64.64,0,0,0-.37-.26.33.33,0,0,0-.33.16s-.22.3-1,.13h0a1.82,1.82,0,0,1-1-.67,2,2,0,0,1-.31-.65l0-.15a.33.33,0,0,0-.2-.24.27.27,0,0,0-.25,0,.29.29,0,0,0-.16.26,1,1,0,0,1-.38.84,1.63,1.63,0,0,1-1.43,0,1.49,1.49,0,0,1-.8-.88l-.12-.24a.19.19,0,0,0-.1-.1.33.33,0,0,0-.32,0,.26.26,0,0,0-.09.15l0,.07a1.38,1.38,0,0,1-1.36.44A2.22,2.22,0,0,1,139,75.4c-.19-.3-.38-.43-.55-.38s-.08,0-.09.15a.28.28,0,0,1,0,.09.45.45,0,0,1-.3.3,2.19,2.19,0,0,1-1.5-.11c-.6-.27-.73-.45-.75-.49a.65.65,0,0,0-.39-.3.46.46,0,0,0-.38.06l-.13.24a1,1,0,0,1-1.15.4.83.83,0,0,1-.44-.4l-.06-.09a.6.6,0,0,0-.55-.23c-.13,0-.16.09-.21.19l-.1.16a1.51,1.51,0,0,1-1.38.11l-.47-.17a.58.58,0,0,0-.4-.18.37.37,0,0,0-.29.18l0,0-.5.1a2.31,2.31,0,0,1-1.46-.19,2.8,2.8,0,0,0-.82-.36c-.45.6-.45.6-.54.57l-.06,0c-.1,0-.33-.1-.67-.17a1.15,1.15,0,0,1-.66-.46.45.45,0,0,0-.31-.25c-.29,0-.46.21-.67.56a1.25,1.25,0,0,1-.36.44,1.52,1.52,0,0,1-1.15.1c-.66-.29-.68-.57-.68-.6v-.12a.73.73,0,0,0,0,.12s0,0-.46.33a1.92,1.92,0,0,1-1.72.14.77.77,0,0,1-.26-.35l-.06-.13-.08-.13a.56.56,0,0,0-.56.29l0,0-.22.2a1.8,1.8,0,0,1-1.07.44,2,2,0,0,1-1.49-.43.4.4,0,0,0-.38-.13.53.53,0,0,0-.33.28s-.23.39-1,.49h0a1.27,1.27,0,0,1-1.06-.3,1.31,1.31,0,0,1-.32-.54s0-.09,0-.13-.11-.16-.21-.16a.34.34,0,0,0-.26.08.54.54,0,0,0-.16.32,1.41,1.41,0,0,1-.38,1,2,2,0,0,1-1.44.54,1,1,0,0,1-.81-.59,1.32,1.32,0,0,0-.12-.2.13.13,0,0,0-.09-.07.45.45,0,0,0-.33.12.48.48,0,0,0-.09.19.36.36,0,0,1,0,.09,2.09,2.09,0,0,1-1.36.92,1.64,1.64,0,0,1-1.48-.22c-.2-.23-.38-.29-.55-.19s-.08.09-.09.19a.31.31,0,0,1,0,.1.78.78,0,0,1-.29.4,2.46,2.46,0,0,1-1.49.43c-.6-.06-.72-.19-.74-.22a.41.41,0,0,0-.38-.17.57.57,0,0,0-.38.2l-.12.28a1.43,1.43,0,0,1-1.13.81.5.5,0,0,1-.43-.24l-.06-.06a.46.46,0,0,0-.55,0,.51.51,0,0,0-.2.26.93.93,0,0,1-.1.2,1.87,1.87,0,0,1-1.34.6h-.45a.45.45,0,0,0-.39,0,.63.63,0,0,0-.28.28l0,0-.48.28a2.25,2.25,0,0,1-1.41.33ZM95,88.74m.64,1.09a.19.19,0,0,0,0-.14.19.19,0,0,1,0-.2.32.32,0,0,1,.09-.08l0,0s0,0,0-.09a24.61,24.61,0,0,1,.52-2.49c.06-.26.13-.52.2-.78l0,2.18.11-.15,0,.13c.07.19.17.41.27.62s.16.36.22.52a.23.23,0,0,0,0-.17.21.21,0,0,1,0-.21l.09-.07,0,0s0,0,0-.08c.13-.81.3-1.65.52-2.48l.2-.78c0,.72,0,1.45,0,2.17l.11-.14,0,.13c.07.19.18.41.27.63s.16.34.22.49a.17.17,0,0,0,0-.14.19.19,0,0,1,.05-.2l.09-.07,0,0a.12.12,0,0,0,0-.08c.13-.82.31-1.65.52-2.48L99.8,85c0,.73,0,1.45,0,2.17l.11-.14,0,.13c.07.2.17.42.27.64s.15.32.21.47a.2.2,0,0,0,0-.11.19.19,0,0,1,0-.2l.09-.07,0,0s0,0,0-.08c.13-.8.31-1.63.53-2.46.07-.26.14-.51.2-.77,0,.72,0,1.45,0,2.17l.12-.14,0,.13c.07.2.18.42.28.64l.22.51a.24.24,0,0,0,0-.14.19.19,0,0,1,0-.2l.09-.07,0,0a.11.11,0,0,0,0-.08,24.34,24.34,0,0,1,.52-2.45l.21-.77,0,2.17.11-.14,0,.14c.07.19.17.42.27.64s.16.34.22.5a.16.16,0,0,0,0-.13.19.19,0,0,1,.05-.2l.09-.07,0,0s0,0,0-.08c.11-.68.43-2.26.66-3.18,0-.43.07-.44.15-.46h0c.1,0,.1.07.11.15v0h0l-.06.25c0,.53-.13,1.59-.16,2.17l.11-.13,0,.14c.07.19.17.42.27.64s.16.35.23.52a.24.24,0,0,0,0-.14.19.19,0,0,1,0-.2l.1-.07,0,0a.11.11,0,0,0,0-.08c0-.27.07-.55.11-.84a12.23,12.23,0,0,1,.3-1.71c.06-.25.13-.5.2-.76V84a7.16,7.16,0,0,0,0,.91c0,.21,0,.43,0,.63h0l.11-.13,0,.13c.07.2.17.43.27.66s.16.34.22.5a.17.17,0,0,0,0-.12.19.19,0,0,1,0-.2l.09-.07a.05.05,0,0,0,0,0,.11.11,0,0,0,0-.08,21.92,21.92,0,0,1,.53-2.42l.21-.76c0,.72,0,1.45,0,2.17l.11-.13,0,.13c.07.2.17.43.27.66s.16.35.23.52a.17.17,0,0,0,0-.14.17.17,0,0,1,.05-.19l.1-.07,0,0s0,0,0-.08l.07-.43c.13-.83.32-2,.5-2.64l.21-.75v.74c0,.28,0,.72,0,1.16s0,.65,0,.92l.12-.13,0,.14c.07.2.18.43.28.66s.15.34.21.5a.22.22,0,0,0,0-.11.14.14,0,0,1,0-.19.31.31,0,0,1,.09-.07l0,0s0,0,0-.08a21.17,21.17,0,0,1,.54-2.4l.21-.75c0,.72,0,1.44,0,2.16l.11-.12,0,.13c.07.2.17.44.27.67l.23.53a.22.22,0,0,0,0-.14.16.16,0,0,1,0-.19.24.24,0,0,1,.09-.06l0,0a.07.07,0,0,0,0-.07q.21-1.2.54-2.4l.21-.74c0,.72,0,1.44,0,2.16l.11-.12,0,.13c.07.21.18.45.28.68s.16.36.22.53a.18.18,0,0,0,0-.14.17.17,0,0,1,0-.19.47.47,0,0,1,.09-.06l0,0a.11.11,0,0,0,0-.08,23.93,23.93,0,0,1,.53-2.39l.21-.74c0,.72,0,1.45,0,2.17l.12-.12,0,.13c.07.21.17.45.27.68s.16.36.23.54a.24.24,0,0,0,0-.14.16.16,0,0,1,0-.19.47.47,0,0,1,.09-.06l0,0s0,0,0-.08c.14-.78.32-1.58.54-2.38l.21-.73c0,.72,0,1.44,0,2.16l.12-.12.05.14c.07.2.17.45.27.68s.17.39.24.57a.26.26,0,0,0,.05-.17.14.14,0,0,1,0-.19l.09-.06,0,0s0,0,0-.07c.14-.78.32-1.58.54-2.37l.21-.73c0,.72,0,1.44-.05,2.16l.12-.12,0,.14c.07.21.17.45.27.69l.23.54a.16.16,0,0,0,0-.13.17.17,0,0,1,0-.19.47.47,0,0,1,.09-.06l0,0a.09.09,0,0,0,0-.07,19.61,19.61,0,0,1,.54-2.36l.21-.73c0,.72,0,1.44,0,2.16l.11-.11,0,.14c.07.2.18.45.28.69l.22.52a.21.21,0,0,0,0-.11.16.16,0,0,1,0-.19l.09,0,0,0a.07.07,0,0,0,0-.07,22.17,22.17,0,0,1,.55-2.35l.21-.73c0,.72,0,1.44,0,2.16l.11-.11,0,.14c.07.21.18.46.28.7s.16.37.23.55a.17.17,0,0,0,0-.14.16.16,0,0,1,.06-.19l.09-.05,0,0s0,0,0-.07a24,24,0,0,1,.54-2.34l.21-.72c0,.72,0,1.44,0,2.16l.12-.11.05.14c.07.21.18.46.28.7s.16.38.22.55a.15.15,0,0,0,0-.13.17.17,0,0,1,0-.19l.09-.05h0s0,0,0-.07a18.12,18.12,0,0,1,.51-2.15l.21-.72V82c0,.29,0,.53,0,.77v.47h0l.12-.11,0,.14c.08.21.18.46.28.7l.23.56a.19.19,0,0,0,0-.13.16.16,0,0,1,0-.19l.09,0h0a.09.09,0,0,0,.05-.07,19.44,19.44,0,0,1,.54-2.32l.21-.72c0,.72,0,1.44-.05,2.16l.11-.11.05.14c.07.22.18.47.28.72l.23.56a.22.22,0,0,0,0-.14.14.14,0,0,1,0-.18l.09,0h0a.09.09,0,0,0,0-.07l0-.18a23.76,23.76,0,0,1,.5-2.43l.21-.71c0,.25,0,.49,0,.74s0,.61,0,1,0,.52,0,.75h0l.11-.11,0,.15c.07.21.18.47.28.71l.23.57a.19.19,0,0,0,0-.13.14.14,0,0,1,0-.19l.09,0,0,0s0,0,0-.07a20.76,20.76,0,0,1,.55-2.3l.21-.71c0,.72,0,1.44-.05,2.16h0l.11-.1,0,.14c.07.22.18.47.28.72s.15.37.22.54a.16.16,0,0,0,0-.1.15.15,0,0,1,.05-.18l.09-.05h0a.09.09,0,0,0,.05-.07,13.42,13.42,0,0,1,.42-1.66c0-.13.09-.27.13-.42l.21-.7,0,.74c0,.29,0,.52,0,.76s0,.28,0,.44l.12-.1,0,.14c.08.22.18.48.28.73l.23.57a.19.19,0,0,0,0-.13.15.15,0,0,1,0-.18l.09,0,0,0s0,0,.05-.07a18.39,18.39,0,0,1,.54-2.28l.21-.7c0,.72,0,1.44-.05,2.16h0l.11-.11.05.15c.07.22.18.48.28.73l.23.58a.19.19,0,0,0,0-.13.15.15,0,0,1,.05-.18l.1,0,0,0s0,0,0-.06c.13-.75.41-1.9.64-2.68l.21-.7c0,.25,0,.49,0,.74s0,.68-.07,1.06,0,.52-.06.75l.11-.09.05.15a7.65,7.65,0,0,0,.28.73c.07.2.15.4.22.59a.22.22,0,0,0,0-.14.15.15,0,0,1,0-.18.32.32,0,0,1,.09,0l0,0s0,0,.05-.06a16.24,16.24,0,0,1,.52-2.17l.21-.7c0,.25,0,.49,0,.74s0,.54,0,.8v.52h0l.11-.1.05.15c.07.22.18.49.28.74s.17.42.24.62a.18.18,0,0,0,0-.16.15.15,0,0,1,.05-.18.19.19,0,0,1,.1,0l0,0s0,0,0-.06a19.54,19.54,0,0,1,.54-2.26l.21-.69-.05,2.16h0l.11-.1,0,.15c.07.22.18.49.28.75s.16.4.23.59a.15.15,0,0,0,0-.13.15.15,0,0,1,.05-.18l.1,0h0s0,0,0-.06c0-.22.07-.45.11-.7a16,16,0,0,1,.37-1.88l.21-.68v.73c0,.28,0,.66,0,1s0,.5,0,.73h0l.11-.1,0,.15c.07.23.18.49.28.75s.15.39.22.57a.2.2,0,0,0,0-.11s0-.13.05-.17l.09,0h0s0,0,.05-.06a23.12,23.12,0,0,1,.61-2.58l.21-.68c0,.24,0,.49,0,.73s0,.67-.06,1,0,.49,0,.72l.11-.09,0,.15c.07.22.17.49.27.75l.23.6a.14.14,0,0,0,0-.13s0-.13.05-.17a.19.19,0,0,1,.1,0l0,0s0,0,0-.06a17.24,17.24,0,0,1,.5-2.17l.21-.68,0,.74c0,.28,0,.55,0,.82v.54h0l.11-.09.05.15c.07.22.18.5.28.76s.15.41.22.6a.19.19,0,0,0,0-.13.13.13,0,0,1,0-.18l.09,0h0s0,0,0-.07,0-.27.07-.42A17.37,17.37,0,0,1,143.1,83l.21-.68c0,.25,0,.49,0,.74s0,.62,0,1,0,.49,0,.71h0l.11-.09,0,.16c.07.22.17.49.28.76l.22.61a.19.19,0,0,0,0-.13s0-.13.05-.18l.09,0h0s0,0,0-.06a17,17,0,0,1,.54-2.21l.21-.67L144.89,85h0l.12-.08.05.15c.07.23.17.5.27.77s.16.41.22.6a.16.16,0,0,0,0-.12.15.15,0,0,1,.05-.18l.09,0h0s0,0,.05-.06a21.89,21.89,0,0,1,.6-2.51l.21-.66,0,.73c0,.29,0,.66-.06,1s0,.48,0,.7l.11-.08.05.15c.07.23.17.51.27.78s.16.42.23.61a.18.18,0,0,0,0-.13s0-.13.05-.17a.38.38,0,0,1,.1,0h0s0,0,0-.06a18.08,18.08,0,0,1,.53-2.2l.21-.66c0,.72,0,1.43,0,2.15h0l.11-.08.05.15c.07.23.17.51.27.78s.15.4.21.59a.16.16,0,0,0,0-.1.13.13,0,0,1,.05-.18l.09,0h0s0,0,0-.06a17.76,17.76,0,0,1,.53-2.18l.21-.66c0,.72,0,1.43-.05,2.15h0l.11-.08,0,.16c.07.23.17.51.27.78s.16.42.22.62a.17.17,0,0,0,0-.13s0-.13,0-.17l.09,0h0s0,0,0,0l0-.22a21.27,21.27,0,0,1,.49-2.28c.07-.21.13-.43.2-.65,0,.24,0,.49,0,.73s0,.65,0,1,0,.5,0,.72h0l.11-.07,0,.15c.07.24.17.52.27.79s.15.43.22.62a.16.16,0,0,0,0-.12s0-.13.05-.17l.09,0h0s0,0,0,0a17.18,17.18,0,0,1,.53-2.17c.07-.21.14-.43.2-.65,0,.72,0,1.43,0,2.15l.11-.08L153,87c.06.23.17.52.27.79l.22.63a.16.16,0,0,0,0-.12s0-.14.05-.17a.15.15,0,0,1,.09,0h0s0,0,0,0a25.18,25.18,0,0,1,.58-2.58l.21-.65c0,.24,0,.49,0,.73s0,.68-.05,1.07,0,.53,0,.77l.11-.08,0,.16c.07.24.17.52.27.8l.23.66a.14.14,0,0,0,0-.14c0-.05,0-.14.06-.17l.08,0h0s0,0,.05-.06a15.18,15.18,0,0,1,.52-2.14l.2-.65c0,.72,0,1.43-.05,2.15h0l.11-.08,0,.16c.07.24.17.53.27.81s.15.43.22.63a.16.16,0,0,0,0-.12s0-.13.05-.17h.13s0,0,0,0l.05-.25a19,19,0,0,1,.49-2.32c.07-.21.13-.43.2-.64,0,.24,0,.49,0,.73s0,.67,0,1.07,0,.54,0,.77l.11-.07,0,.16c.07.24.17.53.27.81s.15.42.21.61a.16.16,0,0,0,0-.1s0-.13,0-.17h.13s0,0,0-.06c0-.2.08-.4.12-.6v.8a.13.13,0,0,1-.07,0h-.09v0a.27.27,0,0,1-.18.34l0-.06h-.09c-.07-.24-.17-.53-.27-.81s-.15-.44-.21-.64l0,.06-.19.34v-.44c0-.28,0-.67,0-1.06v-.16c-.11.49-.2,1-.28,1.48l0,.25a.15.15,0,0,1-.14.15h-.08a.29.29,0,0,1-.18.35l-.05-.07h-.11c-.07-.23-.17-.52-.27-.8s-.15-.44-.22-.64a.43.43,0,0,0,0,.07l-.19.34,0-1.35c-.13.46-.23.94-.32,1.42a.15.15,0,0,1-.14.15h-.08v0a.3.3,0,0,1-.18.35l-.05-.08h-.14a8.39,8.39,0,0,0-.27-.8c-.07-.22-.15-.44-.22-.64l0,.07c-.07.11-.13.23-.19.34v-.44c0-.28,0-.67,0-1.06a.53.53,0,0,0,0-.13c-.17.7-.3,1.44-.35,1.71a.17.17,0,0,1-.14.16h-.08a.31.31,0,0,1-.18.36l0-.07h-.11c-.07-.24-.17-.52-.27-.8s-.16-.43-.22-.63a.18.18,0,0,0-.05.07l-.19.35,0-1.36c-.13.47-.23,1-.32,1.44a.17.17,0,0,1-.14.16h-.08v0a.3.3,0,0,1-.18.35l-.05-.07h-.11c-.07-.23-.17-.51-.27-.78s-.16-.43-.22-.63a.18.18,0,0,0-.05.07l-.19.35v-.44c0-.29,0-.65,0-1v-.15c-.11.49-.2,1-.28,1.47l0,.21a.18.18,0,0,1-.14.17h-.09v0a.32.32,0,0,1-.19.36l-.05-.07h-.11c-.07-.23-.17-.51-.27-.78s-.16-.43-.22-.63l-.05.07-.19.36,0-1.36c-.13.48-.23,1-.32,1.45A.17.17,0,0,1,149,87h-.09a.31.31,0,0,1-.18.37l0-.06h-.09c-.07-.23-.18-.51-.28-.78s-.16-.42-.22-.62l-.05.07-.19.36,0-1.35c-.13.47-.23,1-.32,1.45a.19.19,0,0,1-.14.16h-.09v0a.31.31,0,0,1-.18.36l-.05-.06H147c-.07-.23-.18-.5-.28-.77s-.15-.42-.22-.62l-.05.07-.19.37v-.45c0-.28,0-.64.05-1,0,0,0-.06,0-.09-.14.55-.28,1.15-.36,1.64a.22.22,0,0,1-.14.17h-.09v0a.33.33,0,0,1-.18.37l-.05-.06h-.1c-.07-.23-.18-.51-.28-.77s-.16-.42-.22-.62l-.05.07-.2.37,0-1.35c-.12.48-.23,1-.32,1.46a.2.2,0,0,1-.14.17h-.09v0a.34.34,0,0,1-.19.37l0-.07h-.11c-.07-.22-.18-.5-.28-.76s-.16-.42-.22-.61l0,.07c-.06.13-.13.25-.2.37v-.44c0-.29,0-.64,0-1v-.13c-.09.41-.16.86-.23,1.26,0,.15-.05.29-.08.42a.18.18,0,0,1-.14.18h-.09v0a.34.34,0,0,1-.19.37l-.05-.06h-.11c-.07-.22-.17-.5-.28-.76s-.16-.41-.22-.6l-.05.07-.2.37,0-.44c0-.28,0-.55,0-.82v-.08c-.11.47-.2.94-.3,1.46a.18.18,0,0,1-.14.18h-.09v0a.35.35,0,0,1-.19.37l0-.06-.11,0c-.07-.23-.18-.5-.28-.76l-.23-.6,0,.07c-.07.13-.14.25-.2.38v-.44c0-.29,0-.66.06-1v-.09c-.14.57-.28,1.18-.36,1.67a.21.21,0,0,1-.15.18l0,0s0,0,0,0h0a.34.34,0,0,1-.19.38l0,0H139c-.07-.22-.18-.49-.28-.75s-.16-.4-.23-.59l-.05.07-.19.38v-.44c0-.28,0-.66,0-1a1.09,1.09,0,0,0,0-.18c-.06.35-.12.72-.17,1.07s-.08.48-.12.7a.2.2,0,0,1-.14.18l-.06,0h0v0a.36.36,0,0,1-.18.39l-.05-.07-.11,0-.28-.74-.23-.59,0,.07-.2.38,0-1.35c-.13.49-.24,1-.33,1.49a.22.22,0,0,1-.14.18l-.06,0h0a.35.35,0,0,1-.18.39l-.06-.06-.14,0c-.07-.22-.17-.48-.27-.74s-.16-.4-.23-.59a.35.35,0,0,0,0,.08l-.2.38v-.44c0-.28,0-.54,0-.8V83c-.12.48-.22.94-.31,1.44a.22.22,0,0,1-.14.19l-.06,0h0a.36.36,0,0,1-.19.39l-.05,0-.11,0c-.07-.22-.18-.48-.28-.74s-.16-.4-.23-.58l0,.07c-.07.14-.14.27-.2.4v-.45c0-.28,0-.68.07-1.06a.22.22,0,0,1,0-.08c-.16.61-.3,1.25-.39,1.73a.21.21,0,0,1-.14.19l-.06,0h0a.37.37,0,0,1-.18.4l-.05-.06-.11,0c-.07-.21-.18-.47-.28-.73s-.16-.39-.23-.58l0,.08c-.06.13-.13.26-.2.39,0-.45,0-.9,0-1.35-.13.49-.24,1-.33,1.5a.22.22,0,0,1-.14.19l-.06,0,0,0h0a.38.38,0,0,1-.19.4l-.05-.06-.11,0c-.07-.22-.18-.48-.28-.73l-.23-.57,0,.07c-.06.14-.13.27-.19.4v-.44c0-.28,0-.51,0-.74h0a11.75,11.75,0,0,0-.33,1.33.23.23,0,0,1-.14.2l-.06,0h0v0a.37.37,0,0,1-.19.4l0,0-.09,0-.28-.72-.23-.57a.22.22,0,0,0-.05.08l-.2.4,0-1.36c-.12.5-.23,1-.32,1.52a.25.25,0,0,1-.14.19l-.06,0h0a.4.4,0,0,1-.19.41l-.05-.06-.11,0c-.07-.21-.18-.47-.28-.71l-.23-.57a.56.56,0,0,0-.05.08c-.06.13-.13.27-.2.4v-.44c0-.3,0-.67,0-1.05v-.09c-.11.52-.21,1.08-.29,1.56l0,.18a.25.25,0,0,1-.14.2l-.06,0h0v0a.39.39,0,0,1-.19.4l0,0-.11,0c-.07-.21-.18-.46-.28-.71l-.23-.56a.56.56,0,0,0,0,.08c-.06.13-.13.27-.19.41l0-1.37c-.13.51-.24,1-.33,1.53a.24.24,0,0,1-.14.2l-.06,0h0v0a.41.41,0,0,1-.19.41l0-.06-.11,0c-.07-.21-.18-.46-.28-.71l-.23-.56a.56.56,0,0,1,0,.08l-.19.42V82.76c-.12.46-.22.9-.31,1.42a.24.24,0,0,1-.14.2l-.06,0h0v0a.4.4,0,0,1-.18.41l0,0-.12,0a7.28,7.28,0,0,0-.28-.7c-.08-.18-.16-.38-.22-.55a.22.22,0,0,0,0,.08l-.2.42,0-1.37c-.13.51-.24,1-.32,1.54a.3.3,0,0,1-.15.21l-.06,0,0,0h0a.45.45,0,0,1-.19.42l0-.05-.11,0c-.08-.21-.18-.46-.28-.7s-.16-.38-.23-.55a.35.35,0,0,0,0,.08c-.06.14-.13.28-.2.43,0-.46,0-.92,0-1.37-.13.51-.24,1-.33,1.54a.27.27,0,0,1-.14.21l-.06,0h0v0a.43.43,0,0,1-.19.42l0-.05-.1,0c-.07-.21-.17-.46-.27-.69l-.23-.55a.22.22,0,0,0-.05.08c-.06.14-.13.29-.2.43l0-1.37c-.13.51-.24,1-.33,1.55a.28.28,0,0,1-.14.21l-.06,0,0,0h0a.43.43,0,0,1-.19.42l0,0-.11,0c-.07-.21-.18-.45-.28-.69l-.23-.54a.59.59,0,0,0,0,.08c-.07.14-.13.29-.2.43l0-1.37c-.13.52-.24,1-.32,1.56a.3.3,0,0,1-.15.21l0,0,0,0h0a.47.47,0,0,1-.19.43l-.05,0-.14,0c-.07-.21-.18-.45-.28-.68l-.23-.54,0,.08-.2.44,0-1.38c-.13.53-.24,1-.32,1.57a.29.29,0,0,1-.15.21l0,0h0v0a.45.45,0,0,1-.19.43l0-.05-.11,0c-.07-.2-.18-.44-.28-.67l-.23-.54,0,.09c-.07.14-.13.29-.2.44l0-1.38c-.13.53-.23,1-.32,1.57a.31.31,0,0,1-.14.22l-.06,0,0,0v0a.46.46,0,0,1-.19.43l0-.05-.12.05c-.07-.2-.17-.44-.27-.67l-.23-.54,0,.09c-.06.15-.13.3-.19.44l0-1.37c-.13.53-.24,1.05-.33,1.57a.28.28,0,0,1-.14.23l0,0,0,0h0a.47.47,0,0,1-.19.44l0-.05-.11.05c-.07-.2-.18-.44-.28-.66s-.16-.37-.22-.53a.35.35,0,0,0,0,.08c-.06.15-.13.3-.2.45l0-1.37c-.13.53-.24,1.06-.33,1.58a.27.27,0,0,1-.14.22l-.06,0,0,0v0a.51.51,0,0,1-.19.44l0,0-.1,0c-.07-.2-.17-.44-.27-.66l-.23-.53,0,.09-.2.45v-.45c0-.3,0-.76,0-1.22,0-.06,0-.11,0-.17-.11.54-.2,1.13-.28,1.62l-.07.43a.31.31,0,0,1-.14.23l-.06,0,0,0h0a.48.48,0,0,1-.18.45l0,0-.11.06c-.07-.2-.18-.43-.28-.66s-.16-.35-.22-.52a.41.41,0,0,0,0,.09l-.19.45,0-1.37c-.13.53-.24,1.07-.32,1.59a.37.37,0,0,1-.14.23l-.06,0,0,0v0a.5.5,0,0,1-.18.44l-.05,0-.11.05c-.07-.19-.17-.43-.27-.65s-.16-.35-.22-.52a.41.41,0,0,0,0,.09l-.19.46v-.45c0-.29,0-.6,0-.91v-.18c0,.3-.09.61-.13.92s-.07.57-.11.84a.34.34,0,0,1-.14.23l-.06,0,0,0h0a.5.5,0,0,1-.18.45l0,0-.11.06c-.07-.2-.18-.43-.28-.65l-.22-.51-.05.09-.19.46v-.45c0-.21,0-.7.07-1.23-.16.73-.3,1.48-.37,1.9a.32.32,0,0,1-.14.24l-.06,0,0,0h0a.51.51,0,0,1-.19.46l0-.05-.11.06c-.07-.19-.18-.42-.28-.64l-.22-.51a.36.36,0,0,0,0,.09l-.2.46,0-1.37c-.12.54-.23,1.07-.32,1.61a.31.31,0,0,1-.14.23.1.1,0,0,1,0,0l0,0v0a.52.52,0,0,1-.18.45l0,0-.11.06c-.07-.19-.17-.42-.27-.63s-.16-.35-.22-.51a.41.41,0,0,0,0,.09l-.19.47,0-1.38c-.13.55-.23,1.09-.32,1.62a.38.38,0,0,1-.14.24l-.06,0,0,0h0a.53.53,0,0,1-.18.46l0,0-.09,0c-.07-.2-.17-.42-.27-.64s-.15-.34-.22-.5a.36.36,0,0,0,0,.09l-.2.48,0-1.38c-.12.54-.23,1.08-.31,1.62a.38.38,0,0,1-.14.24l-.06,0,0,0v0a.54.54,0,0,1-.17.46l0,0L98.7,89c-.07-.2-.18-.42-.27-.63s-.16-.34-.22-.5a.41.41,0,0,0,0,.09l-.19.48,0-1.38c-.12.55-.23,1.09-.31,1.62a.42.42,0,0,1-.14.25l-.06,0,0,0v0a.54.54,0,0,1-.17.46l-.06,0-.13.08c-.07-.19-.17-.41-.27-.62s-.15-.34-.22-.5l0,.1-.19.48,0-1.38c-.13.55-.23,1.09-.32,1.63a.32.32,0,0,1-.13.24l-.06,0,0,0h0a.53.53,0,0,1-.18.47l0,0m-.71-11.58a2,2,0,0,0,1-.91.88.88,0,0,1,.42-.48c.44-.22.66.09.84.34s.18.25.27.27a1.26,1.26,0,0,0,.92-.24c.52-.43.55-.65.55-.65,0-.26,0-.39.15-.43s.18,0,.26.22l.38.12a1.71,1.71,0,0,0,1.43-.37,1,1,0,0,0,.19-.35,1.42,1.42,0,0,1,.08-.18l.1-.22,0,0a.56.56,0,0,1,.81.09l.2.12a1.16,1.16,0,0,0,.89.06,2.69,2.69,0,0,0,1.31-.85.89.89,0,0,1,.54-.37.46.46,0,0,1,.48.22s.18.22.84.08h0a1.67,1.67,0,0,0,.9-.57,2,2,0,0,0,.27-.59s0-.1.05-.15a.59.59,0,0,1,.35-.38.49.49,0,0,1,.41,0,.44.44,0,0,1,.23.38.86.86,0,0,0,.32.73,1.42,1.42,0,0,0,1.24,0,1.25,1.25,0,0,0,.68-.76,2,2,0,0,1,.13-.25.45.45,0,0,1,.19-.2.55.55,0,0,1,.53,0,.46.46,0,0,1,.14.21l0,.07a1.25,1.25,0,0,0,1.2.36,2,2,0,0,0,1.31-.64c.32-.48.6-.53.79-.48a.28.28,0,0,1,.21.29.15.15,0,0,0,0,.07.29.29,0,0,0,.2.19,2,2,0,0,0,1.34-.09,1.68,1.68,0,0,0,.65-.4.84.84,0,0,1,.52-.41.65.65,0,0,1,.56.11l0,0,.13.26A.79.79,0,0,0,120,73a.61.61,0,0,0,.34-.31l.07-.09a.82.82,0,0,1,.77-.32.46.46,0,0,1,.33.28.57.57,0,0,0,.08.13,1.34,1.34,0,0,0,1.16.07l.4-.14a.69.69,0,0,1,.55-.22.55.55,0,0,1,.41.22l.43.09a2.06,2.06,0,0,0,1.31-.16c.83-.45,1-.41,1.06-.33l.38.5a7,7,0,0,1,.7-.17,1.09,1.09,0,0,0,.54-.38.57.57,0,0,1,.44-.33c.46-.06.69.33.88.65a1.08,1.08,0,0,0,.29.37,1.28,1.28,0,0,0,1,.1c.54-.24.57-.45.57-.45,0-.26,0-.37.16-.38s.18.08.27.32l.39.26a1.71,1.71,0,0,0,1.48.14.56.56,0,0,0,.2-.28l.08-.15.11-.18h0a.76.76,0,0,1,.83.39,1.8,1.8,0,0,1,.2.19,1.61,1.61,0,0,0,.93.38,1.77,1.77,0,0,0,1.34-.38.61.61,0,0,1,.55-.17.73.73,0,0,1,.49.39,1.2,1.2,0,0,0,.86.38h0a1.13,1.13,0,0,0,.91-.25,1.33,1.33,0,0,0,.28-.49.5.5,0,0,1,0-.13.37.37,0,0,1,.35-.26.56.56,0,0,1,.41.14.73.73,0,0,1,.24.47,1.18,1.18,0,0,0,.32.84,1.76,1.76,0,0,0,1.25.48.8.8,0,0,0,.69-.52,2.39,2.39,0,0,1,.13-.21.26.26,0,0,1,.18-.13.69.69,0,0,1,.54.21.74.74,0,0,1,.14.26l0,.07a1.84,1.84,0,0,0,1.2.79,1.4,1.4,0,0,0,1.3-.17c.32-.36.6-.31.79-.2a.41.41,0,0,1,.2.37.22.22,0,0,1,0,.08.49.49,0,0,0,.2.25,2.22,2.22,0,0,0,1.33.39c.53,0,.64-.17.64-.17a.55.55,0,0,1,.51-.22.89.89,0,0,1,.55.3l0,0,.13.31a1.15,1.15,0,0,0,.89.64.36.36,0,0,0,.33-.19l.07-.07a.65.65,0,0,1,.75,0,.72.72,0,0,1,.32.4,1.09,1.09,0,0,0,.08.15,1.63,1.63,0,0,0,1.13.49H156a.55.55,0,0,1,.53,0,1,1,0,0,1,.4.38l.41.24a2.1,2.1,0,0,0,1.23.31v.19a2.42,2.42,0,0,1-1.28-.34l-.48-.29,0,0a.61.61,0,0,0-.28-.27.39.39,0,0,0-.39,0h-.45a1.84,1.84,0,0,1-1.34-.61.87.87,0,0,1-.1-.19.5.5,0,0,0-.21-.27.48.48,0,0,0-.54,0l-.06.07a.5.5,0,0,1-.43.23,1.4,1.4,0,0,1-1.12-.81l-.13-.28a.57.57,0,0,0-.38-.2.39.39,0,0,0-.38.17s-.14.16-.73.22a2.5,2.5,0,0,1-1.49-.44.75.75,0,0,1-.3-.4s0-.07,0-.1,0-.14-.09-.19-.35,0-.54.19a1.65,1.65,0,0,1-1.48.21A2.12,2.12,0,0,1,145,74l0-.09a.52.52,0,0,0-.1-.18.46.46,0,0,0-.32-.13.18.18,0,0,0-.1.07l-.12.2a.92.92,0,0,1-.81.59,2,2,0,0,1-1.43-.55,1.37,1.37,0,0,1-.38-1,.51.51,0,0,0-.17-.32.32.32,0,0,0-.25-.09.23.23,0,0,0-.21.16s0,.09-.05.13a1.39,1.39,0,0,1-.31.55,1.31,1.31,0,0,1-1.06.29h0c-.8-.11-1-.48-1-.5a.48.48,0,0,0-.34-.27.39.39,0,0,0-.38.12,2,2,0,0,1-1.48.43h-.07a1.86,1.86,0,0,1-1-.44L135,72.7a.53.53,0,0,0-.56-.29l-.08.12-.06.13a.84.84,0,0,1-.26.35,1.9,1.9,0,0,1-1.72-.15c-.45-.29-.45-.29-.46-.33a.73.73,0,0,0-.05-.12v.12s0,.32-.68.6A1.47,1.47,0,0,1,130,73a1.17,1.17,0,0,1-.36-.44c-.21-.35-.38-.59-.67-.55a.4.4,0,0,0-.31.24,1.15,1.15,0,0,1-.66.46,7,7,0,0,0-.68.17l0,0c-.09,0-.09,0-.54-.56a2.48,2.48,0,0,0-.82.36,2.38,2.38,0,0,1-1.46.18l-.5-.11,0,0a.36.36,0,0,0-.29-.17.5.5,0,0,0-.4.17l0,0-.45.15a1.48,1.48,0,0,1-1.38-.12l-.1-.15c0-.1-.09-.17-.21-.2a.61.61,0,0,0-.55.24l-.06.09a.89.89,0,0,1-.45.39,1,1,0,0,1-1.15-.4l-.12-.24a.51.51,0,0,0-.38-.07.63.63,0,0,0-.39.31s-.15.22-.75.49a2.25,2.25,0,0,1-1.5.1c-.17-.07-.28-.17-.3-.3s0-.06,0-.09,0-.14-.08-.16-.36.09-.55.39a2.24,2.24,0,0,1-1.49.74,1.39,1.39,0,0,1-1.36-.44l0-.08a.31.31,0,0,0-.1-.15.35.35,0,0,0-.32,0,.33.33,0,0,0-.09.11l-.12.23a1.53,1.53,0,0,1-.81.89,1.67,1.67,0,0,1-1.42,0,1,1,0,0,1-.38-.84.37.37,0,0,0-.16-.27.31.31,0,0,0-.25,0,.37.37,0,0,0-.21.23s0,.1,0,.15a2.26,2.26,0,0,1-.31.65,1.85,1.85,0,0,1-1,.67h0c-.78.17-1-.12-1-.14a.32.32,0,0,0-.33-.16.66.66,0,0,0-.37.27,3,3,0,0,1-1.45.95,1.35,1.35,0,0,1-1-.07l-.24-.16a.38.38,0,0,0-.54-.09l-.07.15a1,1,0,0,0-.07.15,1.17,1.17,0,0,1-.25.44,2,2,0,0,1-1.66.46c-.43-.14-.43-.14-.44-.17a.3.3,0,0,0,0-.1v.12s0,.32-.65.83a1.45,1.45,0,0,1-.46.24,1.34,1.34,0,0,1-.64.06c-.14,0-.24-.17-.35-.32s-.36-.45-.63-.32a.65.65,0,0,0-.3.35,2.25,2.25,0,0,1-1.14,1.07Zm63.61,5.87v.18a7.77,7.77,0,0,1-1.94-.65,7.59,7.59,0,0,0-1.32-.5c-.75-.22-1.47-.43-1.76-1a5.06,5.06,0,0,0-.57-.92,11.61,11.61,0,0,1-.84-1.34,1.75,1.75,0,0,0-.67-.68,1.94,1.94,0,0,0-1.8.2,6,6,0,0,0-.85.58,8.56,8.56,0,0,1-.86.59,1.6,1.6,0,0,1-1.21,0,3.33,3.33,0,0,0-1-.17l-.59,0-2.17.1a4.38,4.38,0,0,1-2.37-.79,6.82,6.82,0,0,1-1.47-1.47l-.14-.18a2.14,2.14,0,0,0-1.5-1,2.29,2.29,0,0,0-2,1.12,2.5,2.5,0,0,1-2.44,1,2.81,2.81,0,0,1-1.53-1l-.05,0a2.11,2.11,0,0,0-1.63-.78,1.91,1.91,0,0,0-1.42.83,2.05,2.05,0,0,1-1.61.89h0a3,3,0,0,1-1.21-.32c-.62-.26-1.23-.53-1.85-.78a2,2,0,0,0-.72-.2,1.77,1.77,0,0,0-1.29.54,3.47,3.47,0,0,0-.25.29,2.85,2.85,0,0,1-.69.64,3.88,3.88,0,0,1-3,.17,4.66,4.66,0,0,1-1.8-1.33l0-.05a1.16,1.16,0,0,0-1.11-.38,1.54,1.54,0,0,0-.49.28q-1,.72-1.92,1.47a5.7,5.7,0,0,1-3.13,1.45,3.73,3.73,0,0,1-1.2-.19,5.82,5.82,0,0,0-.77-.16,4,4,0,0,0-2.93,1.07l0,0a1.34,1.34,0,0,1-.51.38,1.06,1.06,0,0,1-.61,0,3.75,3.75,0,0,1-2-1.08l0,0a.68.68,0,0,0-.33-.24,1.88,1.88,0,0,0-1.55.85,3.53,3.53,0,0,0-.28.67,2.91,2.91,0,0,1-.31.75,4.31,4.31,0,0,1-2.13,1.51,3.55,3.55,0,0,1-.81.17l0-.19a4.09,4.09,0,0,0,2.74-1.55,2.71,2.71,0,0,0,.28-.69,3.19,3.19,0,0,1,.31-.73,2.09,2.09,0,0,1,1.79-1,.76.76,0,0,1,.4.28l0,0a3.73,3.73,0,0,0,1.94,1,.94.94,0,0,0,.5,0,1,1,0,0,0,.4-.31l0,0a4.22,4.22,0,0,1,3.12-1.14,4.71,4.71,0,0,1,.8.17,3.78,3.78,0,0,0,1.14.18,5.46,5.46,0,0,0,3-1.4q1-.75,1.92-1.47a1.75,1.75,0,0,1,.56-.32A1.3,1.3,0,0,1,116,78l0,.06a4.59,4.59,0,0,0,1.74,1.28,3.71,3.71,0,0,0,2.83-.14,2.58,2.58,0,0,0,.63-.6,2.61,2.61,0,0,1,.27-.3,1.94,1.94,0,0,1,1.45-.61,2.23,2.23,0,0,1,.78.22l1.86.78a2.76,2.76,0,0,0,1.13.3,1.87,1.87,0,0,0,1.46-.83,2.07,2.07,0,0,1,1.56-.89,2.38,2.38,0,0,1,1.78.85l0,0a2.73,2.73,0,0,0,1.42.94,2.34,2.34,0,0,0,2.25-.92A2.46,2.46,0,0,1,137.48,77a2.34,2.34,0,0,1,1.66,1.14l.15.18a6.53,6.53,0,0,0,1.41,1.42,4.12,4.12,0,0,0,2.23.75l2.16-.1.6,0a3.55,3.55,0,0,1,1.05.18c.42.11.78.22,1.07,0a7,7,0,0,0,.85-.58,6.24,6.24,0,0,1,.86-.58,2.06,2.06,0,0,1,2-.2,2,2,0,0,1,.8.79,9.71,9.71,0,0,0,.83,1.31,5.88,5.88,0,0,1,.59,1c.23.49.86.67,1.59.89a7.22,7.22,0,0,1,1.35.52A7.91,7.91,0,0,0,158.55,84.31Z"/><path id="Bottom_Arch" data-name="Bottom Arch" class="cls-2" d="M158.74,112.65l-5.16-5.05-.7.71,4.83,4.73c-.9.33-3.3,1.14-6.86,2l-3.23-4.24-.79.6,3,3.9c-9.64,2.33-26.6,4.93-45.14,1l2.87-6.23-.91-.41-3,6.42a84.5,84.5,0,0,1-9-2.54l4.76-4.38-.68-.73-5.16,4.74h0l-.23,16.63.31.13c.29.12,29.68,12.37,65.9.65l.38-.12Zm-.9,1.41,1.08,15.7c-33.7,10.77-61.31.65-64.52-.61l.2-14.56C124.66,124.84,153.26,115.67,157.84,114.06Zm-.34,4.61a.3.3,0,0,0-.3-.15c-.27.06-.44.35-.64.76a1.73,1.73,0,0,1-.34.54,2,2,0,0,1-.64.37,1.1,1.1,0,0,1-.46,0c-.63-.11-.65-.39-.65-.42a.41.41,0,0,0,0-.12s0,.07,0,.12,0,.05-.45.45a1.93,1.93,0,0,1-1.65.52.55.55,0,0,1-.25-.3.75.75,0,0,0-.07-.12l-.07-.11a.65.65,0,0,0-.54.39l0,0c-.07.08-.14.17-.22.25a2,2,0,0,1-1,.61,1.7,1.7,0,0,1-1.45-.22.37.37,0,0,0-.37-.09.58.58,0,0,0-.33.31,1.43,1.43,0,0,1-1,.6h0a1.18,1.18,0,0,1-1.05-.21,1.42,1.42,0,0,1-.3-.53s0-.09-.05-.13a.19.19,0,0,0-.21-.15.33.33,0,0,0-.24.1.51.51,0,0,0-.17.32,1.41,1.41,0,0,1-.38,1,1.94,1.94,0,0,1-1.42.57.93.93,0,0,1-.8-.6l-.12-.2a.14.14,0,0,0-.1-.07.42.42,0,0,0-.32.11.44.44,0,0,0-.09.18.36.36,0,0,0,0,.09,1.91,1.91,0,0,1-1.36.86,1.67,1.67,0,0,1-1.49-.33c-.2-.25-.38-.33-.55-.24s-.08.07-.09.18a.28.28,0,0,1,0,.09.64.64,0,0,1-.3.37,2.22,2.22,0,0,1-1.5.23c-.6-.14-.73-.31-.75-.34a.52.52,0,0,0-.39-.23.55.55,0,0,0-.38.13l-.13.27a1.13,1.13,0,0,1-1.15.58.71.71,0,0,1-.44-.33l-.06-.08a.55.55,0,0,0-.55-.17.35.35,0,0,0-.21.22,1,1,0,0,1-.1.17,1.54,1.54,0,0,1-1.38.26l-.47-.13a.55.55,0,0,0-.4-.15.42.42,0,0,0-.29.2l0,0-.5.13a2.18,2.18,0,0,1-1.46-.12,2.57,2.57,0,0,0-.82-.35c-.45.6-.45.6-.54.56l-.06,0-.67-.18a1.09,1.09,0,0,1-.66-.48.45.45,0,0,0-.31-.25c-.29,0-.46.18-.67.52a1.09,1.09,0,0,1-.36.42,1.43,1.43,0,0,1-1.15,0c-.66-.34-.68-.63-.68-.66v-.12a.58.58,0,0,0,0,.11s0,0-.46.28a1.84,1.84,0,0,1-1.72-.08.84.84,0,0,1-.26-.39l-.06-.14-.08-.14a.46.46,0,0,0-.56.2l0,0-.22.17a1.51,1.51,0,0,1-1.07.24,2.39,2.39,0,0,1-1.49-.76.48.48,0,0,0-.38-.21.36.36,0,0,0-.33.19s-.23.34-1,.23h0a1.76,1.76,0,0,1-1.07-.6,2.09,2.09,0,0,1-.31-.64s0-.09,0-.14a.33.33,0,0,0-.21-.22.29.29,0,0,0-.26,0,.34.34,0,0,0-.16.27,1,1,0,0,1-.38.85,1.61,1.61,0,0,1-1.44.06,1.5,1.5,0,0,1-.81-.89l-.12-.24a.22.22,0,0,0-.09-.1.35.35,0,0,0-.33,0,.23.23,0,0,0-.09.14l0,.08a1.31,1.31,0,0,1-1.36.37,2.32,2.32,0,0,1-1.48-.86c-.2-.32-.38-.47-.55-.44s-.08,0-.09.15a.19.19,0,0,1,0,.08.38.38,0,0,1-.29.27,2.25,2.25,0,0,1-1.49-.3c-.6-.37-.72-.57-.74-.61a.8.8,0,0,0-.38-.37.46.46,0,0,0-.38,0l-.12.22a.83.83,0,0,1-1.13.17,1.22,1.22,0,0,1-.44-.48l0-.1a.77.77,0,0,0-.55-.36c-.12,0-.15,0-.2.14a.57.57,0,0,1-.1.13c-.24.22-.9.05-1.34-.23l-.45-.3a.83.83,0,0,0-.39-.29.27.27,0,0,0-.28.1l0,0-.49,0a2.74,2.74,0,0,1-1.4-.65l-.17-.16v-.2l.26.24a2.42,2.42,0,0,0,1.27.58l.41,0a.38.38,0,0,1,.4-.11,1,1,0,0,1,.53.37l.39.25c.41.26,1,.37,1.13.23a1,1,0,0,0,.08-.11.31.31,0,0,1,.32-.2,1,1,0,0,1,.75.49l.07.11a.8.8,0,0,0,.33.38.67.67,0,0,0,.89-.14l.16-.26a.62.62,0,0,1,.55,0,1.07,1.07,0,0,1,.51.5,2.25,2.25,0,0,0,.64.5,2,2,0,0,0,1.33.27c.08,0,.18-.07.2-.16s0,0,0-.07,0-.25.21-.27.46,0,.78.55a2.09,2.09,0,0,0,1.31.75c.54.09,1.06,0,1.19-.3,0,0,0,0,0-.07a.44.44,0,0,1,.15-.2.55.55,0,0,1,.53,0,.58.58,0,0,1,.19.2c.05.09.09.17.13.26a1.3,1.3,0,0,0,.68.77,1.4,1.4,0,0,0,1.25,0,.89.89,0,0,0,.33-.74.47.47,0,0,1,.23-.39.51.51,0,0,1,.42,0,.55.55,0,0,1,.35.36s0,.1.05.15a1.68,1.68,0,0,0,.28.57,1.47,1.47,0,0,0,.91.51c.69.09.88-.16.89-.16a.51.51,0,0,1,.48-.26.72.72,0,0,1,.55.3,2.34,2.34,0,0,0,1.35.67,1.23,1.23,0,0,0,.92-.21l.21-.15a.66.66,0,0,1,.83-.25h0l.11.21s0,.11.08.16a.62.62,0,0,0,.2.31,1.64,1.64,0,0,0,1.48.06l.39-.22c.09-.23.17-.31.27-.29s.16.13.16.4c0,0,0,.21.57.5a1.23,1.23,0,0,0,1,0,1.07,1.07,0,0,0,.29-.35c.19-.31.42-.69.87-.61a.63.63,0,0,1,.45.35,1,1,0,0,0,.54.39c.4.1.59.15.7.19l.38-.5c.06-.08.23-.12,1.06.32a1.93,1.93,0,0,0,1.31.11l.42-.11a.62.62,0,0,1,.42-.25.71.71,0,0,1,.55.17l.4.11a1.34,1.34,0,0,0,1.16-.19l.08-.13a.52.52,0,0,1,.33-.32.73.73,0,0,1,.77.22l.07.08a.52.52,0,0,0,.33.26.9.9,0,0,0,.91-.46l.16-.32a.82.82,0,0,1,.56-.2.67.67,0,0,1,.53.31s.11.14.65.27a2,2,0,0,0,1.34-.21.41.41,0,0,0,.2-.23s0,0,0-.07a.37.37,0,0,1,.21-.35c.18-.09.47-.12.78.28a1.55,1.55,0,0,0,1.32.27,1.72,1.72,0,0,0,1.19-.72l0-.08a.71.71,0,0,1,.14-.25.67.67,0,0,1,.54-.19.31.31,0,0,1,.19.13l.12.21a.81.81,0,0,0,.69.53,1.74,1.74,0,0,0,1.23-.49,1.23,1.23,0,0,0,.32-.85.73.73,0,0,1,.24-.48.57.57,0,0,1,.41-.16.33.33,0,0,1,.34.24.5.5,0,0,1,0,.13,1.23,1.23,0,0,0,.27.47,1,1,0,0,0,.9.18h0a1.28,1.28,0,0,0,.84-.46.82.82,0,0,1,.48-.44.53.53,0,0,1,.54.11,1.56,1.56,0,0,0,1.31.19,1.74,1.74,0,0,0,.89-.53,2.2,2.2,0,0,0,.2-.23.92.92,0,0,1,.81-.54h0l.1.17a.64.64,0,0,1,.08.14.5.5,0,0,0,.19.24,1.75,1.75,0,0,0,1.43-.47l.38-.35c.08-.26.15-.37.26-.39s.15.08.15.35c0,0,0,.2.55.29a1.31,1.31,0,0,0,.91-.35,1.86,1.86,0,0,0,.28-.45c.16-.34.37-.76.73-.89l.1,0a.38.38,0,0,1,.43.19m.68,9.51a.23.23,0,0,1-.07.1l-.06.05,0,0v0a.54.54,0,0,1-.18.47l0,0-.09.06c-.07-.19-.17-.41-.27-.62s-.15-.33-.21-.49a.31.31,0,0,0,0,.1c-.06.15-.13.31-.19.47v-.45c0-.29,0-.69,0-1.09v-.16c-.11.57-.2,1.18-.28,1.68l0,.27a.4.4,0,0,1-.14.25l-.06,0,0,0h0a.57.57,0,0,1-.18.47l-.05,0-.11.07c-.07-.19-.17-.41-.27-.63s-.15-.33-.22-.49a.36.36,0,0,0,0,.09l-.2.47c0-.46,0-.91,0-1.37-.13.55-.23,1.09-.32,1.62a.35.35,0,0,1-.14.25l0,0,0,0v0a.54.54,0,0,1-.18.46l-.06,0-.13.08a6.63,6.63,0,0,0-.27-.63c-.07-.17-.15-.34-.22-.5l0,.09c-.07.16-.13.31-.19.47,0-.15,0-.3,0-.45s0-.69,0-1.09c0,0,0-.09,0-.13-.17.79-.3,1.61-.35,1.91a.32.32,0,0,1-.14.24s0,0-.05.05l0,0h0a.53.53,0,0,1-.18.46l-.05,0-.11.07c-.07-.2-.17-.42-.27-.64s-.16-.34-.22-.5a.41.41,0,0,0-.05.09l-.19.47,0-1.38c-.13.54-.23,1.08-.32,1.62a.34.34,0,0,1-.14.23.1.1,0,0,1,0,0l0,0h0a.54.54,0,0,1-.18.46l-.05,0-.11.06c-.07-.2-.17-.42-.27-.64s-.16-.35-.22-.51a.41.41,0,0,0,0,.09l-.19.46c0-.15,0-.3,0-.45s0-.65,0-1v-.14c-.11.54-.2,1.11-.28,1.61l0,.24a.31.31,0,0,1-.14.23l-.06,0,0,0h0a.49.49,0,0,1-.18.45l0,0-.11.06c-.07-.19-.17-.42-.27-.64s-.16-.35-.22-.51a.41.41,0,0,0,0,.09l-.19.45,0-1.37c-.13.54-.24,1.08-.32,1.61a.37.37,0,0,1-.14.23l-.06,0,0,0h0a.48.48,0,0,1-.18.45l0,0-.1.05c-.07-.19-.17-.42-.27-.65s-.16-.35-.22-.51a.41.41,0,0,0,0,.09l-.19.45,0-1.37c-.13.54-.24,1.07-.32,1.6a.37.37,0,0,1-.14.23l-.06,0h0v0a.5.5,0,0,1-.18.45l-.05,0-.11.06c-.07-.2-.18-.43-.28-.65s-.16-.36-.22-.52a.41.41,0,0,0-.05.09c-.06.15-.13.29-.19.44v-.44c0-.29,0-.66,0-1a.31.31,0,0,1,0-.1c-.14.61-.28,1.26-.36,1.79a.37.37,0,0,1-.14.23l-.06,0,0,0v0a.5.5,0,0,1-.18.44l-.05,0-.1,0c-.08-.2-.18-.44-.28-.66s-.16-.36-.22-.52l-.05.08-.2.45,0-1.37c-.12.53-.23,1.06-.32,1.59a.29.29,0,0,1-.14.22l-.06,0,0,0h0a.46.46,0,0,1-.18.44l-.05,0-.11,0c-.07-.2-.18-.44-.28-.66s-.16-.36-.22-.53a.41.41,0,0,0-.05.09c-.07.14-.13.29-.2.44,0-.15,0-.3,0-.45s0-.64,0-1v-.13c-.09.44-.16.91-.23,1.34,0,.16-.05.31-.08.45a.28.28,0,0,1-.14.22l-.06,0,0,0h0a.46.46,0,0,1-.18.44l0,0-.11,0c-.07-.2-.18-.44-.28-.67s-.16-.36-.22-.53a.41.41,0,0,0-.05.09l-.2.44v-.45c0-.28,0-.55,0-.82v-.08c-.11.5-.2,1-.3,1.55a.29.29,0,0,1-.14.23l-.06,0,0,0h0a.46.46,0,0,1-.18.44l-.05-.05-.11.05c-.07-.21-.18-.44-.28-.68l-.23-.53a.36.36,0,0,0,0,.09c-.07.14-.14.28-.2.43v-.45c0-.28,0-.66.06-1v-.09c-.14.6-.28,1.26-.36,1.77a.3.3,0,0,1-.15.22l0,0,0,0h0a.47.47,0,0,1-.19.44l0-.05-.09,0-.28-.68c-.08-.18-.16-.36-.23-.54l0,.09-.19.43v-.45c0-.28,0-.65,0-1V131c-.06.37-.12.75-.17,1.11s-.08.5-.12.73a.27.27,0,0,1-.14.21l-.06,0,0,0v0a.43.43,0,0,1-.18.42l-.05-.05-.11.05c-.08-.21-.18-.45-.28-.68s-.16-.37-.23-.55l0,.09c-.06.14-.13.28-.2.42,0-.45,0-.9,0-1.36q-.19.78-.33,1.56a.27.27,0,0,1-.14.21l-.06,0,0,0h0a.44.44,0,0,1-.18.43l-.06-.06-.14,0c-.07-.2-.17-.45-.27-.68s-.17-.38-.23-.55a.35.35,0,0,0-.05.08c-.07.14-.13.28-.2.43v-.45c0-.28,0-.55,0-.81v-.05c-.12.5-.22,1-.31,1.49a.28.28,0,0,1-.14.21l-.06,0,0,0h0a.43.43,0,0,1-.19.42l-.05,0-.11,0c-.07-.2-.18-.45-.28-.69s-.16-.37-.23-.55l0,.08-.2.43v-.45c0-.29,0-.69.07-1.07v-.08c-.15.63-.29,1.29-.38,1.78a.23.23,0,0,1-.14.2l-.06,0,0,0h0a.42.42,0,0,1-.18.42l-.05-.05-.11,0-.28-.7-.23-.55a.22.22,0,0,0-.05.08c-.06.14-.13.28-.2.41l0-1.36c-.12.52-.23,1-.32,1.54a.3.3,0,0,1-.14.21l-.06,0h0a.42.42,0,0,1-.19.42l-.05-.05-.11,0c-.07-.21-.18-.46-.28-.7l-.23-.56a.56.56,0,0,1,0,.08c-.06.14-.13.28-.2.42l0-.45c0-.28,0-.51,0-.73h0a11.79,11.79,0,0,0-.33,1.36.24.24,0,0,1-.14.2l-.06,0h0v0a.41.41,0,0,1-.19.41l0-.05-.09,0-.28-.71-.23-.56,0,.08-.2.41,0-1.36c-.12.51-.23,1-.32,1.53a.26.26,0,0,1-.15.2l0,0,0,0h0a.43.43,0,0,1-.19.41l0-.05-.11,0c-.07-.21-.18-.47-.28-.71l-.23-.57,0,.08-.2.41v-.45c0-.29,0-.67,0-1v-.1c-.11.53-.21,1.09-.29,1.57l0,.18a.26.26,0,0,1-.15.2l0,0h0v0a.41.41,0,0,1-.19.41l0-.06-.11,0c-.07-.21-.18-.47-.28-.72s-.16-.38-.23-.57a.56.56,0,0,1,0,.08c-.06.14-.13.28-.2.41,0-.45,0-.91,0-1.36-.13.5-.24,1-.33,1.51a.24.24,0,0,1-.14.2l-.06,0h0v0a.39.39,0,0,1-.19.4l0,0-.11,0c-.07-.21-.18-.47-.28-.72l-.23-.57a.56.56,0,0,0-.05.08l-.19.4c0-.15,0-.3,0-.45V132c-.12.46-.22.89-.31,1.4a.22.22,0,0,1-.14.19l-.06,0h0v0a.39.39,0,0,1-.19.4l0-.06-.11,0c-.07-.22-.18-.48-.28-.73s-.16-.39-.22-.58l0,.08-.2.4,0-1.36c-.13.5-.24,1-.32,1.5a.23.23,0,0,1-.15.19l-.06,0h0a.37.37,0,0,1-.18.4l0-.06-.12,0c-.07-.21-.17-.47-.28-.73s-.16-.39-.22-.58a.35.35,0,0,0-.05.08l-.2.4,0-1.37c-.12.5-.23,1-.32,1.5a.22.22,0,0,1-.14.19l-.06,0h0a.38.38,0,0,1-.19.4l0-.05-.1,0a7.78,7.78,0,0,0-.28-.74c-.07-.2-.16-.4-.22-.59a.35.35,0,0,0,0,.08l-.2.4,0-1.37c-.12.49-.23,1-.32,1.49a.22.22,0,0,1-.14.19l-.06,0h0a.36.36,0,0,1-.19.39l0-.06-.11,0c-.07-.22-.18-.49-.28-.74l-.23-.59a.43.43,0,0,0,0,.07c-.07.13-.14.26-.2.39l0-1.36c-.13.49-.24,1-.33,1.49a.2.2,0,0,1-.14.18l-.06,0h0a.37.37,0,0,1-.19.39l-.06-.07-.13,0c-.07-.22-.18-.48-.28-.74l-.23-.59a.16.16,0,0,0,0,.07l-.2.39,0-1.37c-.13.5-.24,1-.32,1.49a.24.24,0,0,1-.15.18h-.09v0a.36.36,0,0,1-.19.38l0-.06-.11,0c-.07-.22-.18-.49-.28-.75l-.23-.6,0,.07c-.07.13-.14.26-.2.39l0-1.37c-.13.5-.24,1-.32,1.48a.21.21,0,0,1-.14.18l-.06,0h0v0a.35.35,0,0,1-.19.38l0-.06h-.11c-.07-.22-.17-.49-.27-.75l-.23-.6-.05.07c-.06.13-.13.25-.19.38l0-1.36c-.13.48-.24,1-.33,1.47a.19.19,0,0,1-.14.18h-.08a.35.35,0,0,1-.19.38l0-.06h-.11c-.07-.22-.18-.5-.28-.76s-.16-.41-.22-.61l-.05.07-.2.38,0-1.36c-.12.49-.23,1-.32,1.47a.19.19,0,0,1-.14.17l-.06,0h0v0a.32.32,0,0,1-.18.37l0-.06h-.1c-.07-.22-.17-.5-.27-.76l-.23-.61a.25.25,0,0,0,0,.07l-.2.37v-.44c0-.3,0-.75,0-1.21,0,0,0-.11,0-.16-.11.5-.2,1.05-.28,1.51l-.07.4a.18.18,0,0,1-.14.17l-.06,0h0v0a.32.32,0,0,1-.18.37l-.05-.06H108c-.07-.22-.18-.5-.28-.77s-.16-.42-.22-.61l0,.07-.19.37,0-1.36a14.62,14.62,0,0,0-.32,1.46.19.19,0,0,1-.15.16l0,0h0v0a.33.33,0,0,1-.18.37l0-.07h-.11c-.07-.23-.17-.51-.27-.78s-.16-.42-.22-.61a.18.18,0,0,0-.05.07c-.07.12-.13.24-.19.36v-.44a7.55,7.55,0,0,0,0-.93c0-.06,0-.12,0-.19,0,.29-.09.58-.13.86s-.07.54-.11.79a.19.19,0,0,1-.14.17h-.09v0a.32.32,0,0,1-.18.36l0-.06h-.11c-.07-.23-.18-.51-.28-.78s-.16-.42-.22-.62l0,.07c-.06.12-.13.24-.19.37,0-.15,0-.3,0-.45s0-.68.07-1.19c-.16.65-.3,1.33-.37,1.72a.17.17,0,0,1-.14.16h-.08a.32.32,0,0,1-.19.36l0-.06h-.11c-.07-.23-.18-.51-.28-.78s-.15-.43-.22-.63l0,.07-.19.36,0-1.36c-.12.47-.23,1-.32,1.44a.17.17,0,0,1-.14.16H102v0a.32.32,0,0,1-.18.36l0-.07h-.11c-.07-.23-.17-.52-.27-.79l-.23-.63a.43.43,0,0,0,0,.07l-.19.35,0-1.35a14.05,14.05,0,0,0-.32,1.43.18.18,0,0,1-.14.16h-.08a.31.31,0,0,1-.18.36l0-.06h-.09c-.07-.24-.17-.52-.27-.8s-.16-.43-.22-.63l0,.06-.19.36,0-1.36c-.12.47-.23.94-.31,1.43a.16.16,0,0,1-.14.15h-.09v0a.29.29,0,0,1-.18.35l0-.07h-.11c-.07-.24-.18-.52-.27-.8s-.16-.44-.22-.64a.18.18,0,0,0,0,.07l-.19.35,0-1.36c-.12.47-.23.94-.32,1.42a.15.15,0,0,1-.13.15h-.09v0a.29.29,0,0,1-.18.35l0-.08h-.13c-.07-.23-.17-.52-.27-.8s-.15-.44-.22-.64a.21.21,0,0,0,0,.06l-.19.35,0-1.36c-.13.47-.23.94-.32,1.42a.15.15,0,0,1-.13.15h-.09v0a.27.27,0,0,1-.18.34l0-.07h-.11c-.07-.24-.17-.53-.27-.81s-.16-.44-.22-.65a.16.16,0,0,0,0,.07l-.07.12v-2.16l.13-.43c0,.72,0,1.43,0,2.15l.11-.07,0,.16c.07.24.17.53.26.81s.16.44.22.64a.14.14,0,0,0,0-.13s0-.13,0-.16a.13.13,0,0,1,.09,0h0s0,0,0-.06a15.75,15.75,0,0,1,.52-2.13c.06-.21.13-.43.2-.64,0,.71,0,1.43,0,2.14l.11-.07,0,.16c.07.24.17.52.27.8s.16.46.22.67a.14.14,0,0,0,0-.14c0-.05,0-.14.05-.17a.15.15,0,0,1,.09,0h0s0,0,0-.06a17.56,17.56,0,0,1,.52-2.14L98,126c0,.72,0,1.43,0,2.14l.11-.07,0,.16c.07.24.17.52.27.8s.16.44.22.63a.12.12,0,0,0,0-.12c0-.05,0-.14,0-.17l.09,0h0s0,0,0-.06a18.73,18.73,0,0,1,.52-2.15l.21-.65c0,.71,0,1.43,0,2.14l.11-.07,0,.16c.07.23.17.52.27.79s.15.41.21.6a.16.16,0,0,0,0-.1c0-.05,0-.13,0-.17a.15.15,0,0,1,.09,0h0s0,0,0,0a18.06,18.06,0,0,1,.53-2.17l.2-.65c0,.71,0,1.43,0,2.14l.12-.07,0,.16c.07.23.18.51.28.79s.15.42.22.62a.16.16,0,0,0,0-.12c0-.05,0-.14,0-.18l.09,0h0s0,0,0-.06a19.09,19.09,0,0,1,.53-2.17l.21-.66,0,2.15.11-.08,0,.15c.07.24.17.52.27.79s.16.42.22.62a.14.14,0,0,0,0-.13s0-.13,0-.17l.09,0h0s0,0,0-.06c.11-.63.43-2.05.66-2.86,0-.41.07-.4.15-.38h0c.1,0,.1.12.11.2v0h0l-.06.22c-.05.51-.13,1.52-.16,2.09l.11-.07.05.15c.07.23.17.51.27.78s.16.43.22.62a.14.14,0,0,0,0-.13s0-.13,0-.17l.09,0h0s0,0,0-.06c0-.25.08-.51.12-.78a10.67,10.67,0,0,1,.29-1.57l.21-.67c0,.24,0,.49,0,.73a7.47,7.47,0,0,0,0,.93c0,.22,0,.45,0,.66h0l.12-.08,0,.16c.07.23.17.5.27.77s.15.41.22.6a.14.14,0,0,0,0-.11c0-.05,0-.14,0-.18l.09,0h0s0,0,0-.06a15.31,15.31,0,0,1,.53-2.2c.07-.23.14-.45.2-.67,0,.72,0,1.43,0,2.15l.11-.09.05.16c.07.23.17.5.27.77s.16.42.23.61a.19.19,0,0,0,0-.13.15.15,0,0,1,0-.18l.1,0h0s0,0,0-.06,0-.27.07-.41a22.72,22.72,0,0,1,.5-2.44l.21-.67,0,.73c0,.28,0,.71,0,1.14s0,.65,0,.92l.12-.09,0,.15c.07.23.18.5.28.77s.15.39.21.57a.11.11,0,0,0,0-.1s0-.13,0-.17a.19.19,0,0,1,.1,0h0s0,0,0-.06a17.5,17.5,0,0,1,.54-2.22c.07-.23.14-.45.2-.68l0,2.15.11-.09,0,.16c.07.22.17.49.27.76l.23.6a.19.19,0,0,0,0-.13.13.13,0,0,1,0-.18l.09,0h0s0,0,0-.06a19.05,19.05,0,0,1,.54-2.23l.21-.67c0,.71,0,1.43,0,2.14l.11-.09,0,.16c.07.22.18.49.28.75s.16.41.22.6a.15.15,0,0,0,0-.13.15.15,0,0,1,0-.18l.09,0h0s0,0,.05-.06a19.67,19.67,0,0,1,.53-2.24l.21-.68c0,.71,0,1.43,0,2.15l.12-.09,0,.15.28.75c.08.2.16.4.23.59a.18.18,0,0,0,0-.13.14.14,0,0,1,.05-.18l.09,0h0s0,0,0-.07a20.24,20.24,0,0,1,.54-2.24l.21-.69c0,.72,0,1.44-.05,2.15l.12-.09,0,.15.28.75c.09.21.17.42.24.61a.16.16,0,0,0,0-.15.15.15,0,0,1,.06-.18.25.25,0,0,1,.09,0h0s0,0,0-.06a20.58,20.58,0,0,1,.54-2.26l.21-.69,0,2.16.12-.1,0,.15c.07.22.17.48.27.74s.16.4.23.59a.19.19,0,0,0,0-.13.17.17,0,0,1,0-.19l.09,0,0,0s0,0,0-.06a20.26,20.26,0,0,1,.55-2.27l.21-.69c0,.72,0,1.44,0,2.15l.11-.09.05.14c.07.22.18.49.28.74s.15.38.21.55a.12.12,0,0,0,0-.1.14.14,0,0,1,0-.18l.09,0h0a.07.07,0,0,0,0-.07,20.26,20.26,0,0,1,.55-2.27l.21-.7c0,.72,0,1.43,0,2.15l.11-.1,0,.15c.07.22.18.48.28.73l.23.58a.19.19,0,0,0,0-.13.15.15,0,0,1,0-.18l.1,0,0,0s0,0,0-.06a22.39,22.39,0,0,1,.54-2.29l.21-.7c0,.72,0,1.44-.05,2.16l.12-.11,0,.15a7.65,7.65,0,0,0,.28.73c.08.19.16.39.22.57a.15.15,0,0,0,0-.13.15.15,0,0,1,0-.18l.09-.05h0s0,0,0-.07a16.91,16.91,0,0,1,.51-2.1l.21-.71c0,.24,0,.49,0,.74s0,.53,0,.77v.46h0l.12-.1,0,.14c.07.22.18.48.28.72s.16.39.23.58a.22.22,0,0,0,0-.14.14.14,0,0,1,.05-.18l.09-.05h0a.07.07,0,0,0,0-.07,21.31,21.31,0,0,1,.55-2.3l.21-.71c0,.72,0,1.44,0,2.16l.11-.11,0,.15c.07.21.18.47.28.71l.23.57a.19.19,0,0,0,0-.13.14.14,0,0,1,0-.19l.09,0,0,0s0,0,0-.07l0-.18a23,23,0,0,1,.5-2.42l.21-.71v.73c0,.28,0,.62,0,1s0,.52,0,.76h0l.11-.11.05.14c.07.21.18.47.28.71l.23.57a.17.17,0,0,0,0-.14.15.15,0,0,1,.06-.18l.09,0,0,0s0,0,0-.07a21.65,21.65,0,0,1,.55-2.32l.21-.72c0,.73,0,1.45-.05,2.17h0l.11-.11,0,.14c.07.21.18.46.28.71l.22.53a.21.21,0,0,0,0-.11.17.17,0,0,1,0-.19l.09,0,0,0a.09.09,0,0,0,0-.07,13.91,13.91,0,0,1,.42-1.69c0-.14.09-.28.13-.43l.21-.72c0,.25,0,.5,0,.74s0,.53,0,.77,0,.28,0,.44l.12-.11,0,.14c.07.21.18.46.28.7l.23.56a.22.22,0,0,0,0-.14.17.17,0,0,1,.05-.19l.09-.05h0a.1.1,0,0,0,0-.08,19.75,19.75,0,0,1,.54-2.34l.21-.72c0,.72,0,1.44,0,2.16h0l.11-.11.05.14c.07.21.18.46.28.7s.16.37.23.55a.22.22,0,0,0,0-.14.17.17,0,0,1,0-.19l.1,0,0,0s0,0,0-.07c.13-.76.41-2,.64-2.76l.21-.73c0,.25,0,.49,0,.74s0,.68-.07,1.07,0,.53,0,.76l.11-.11,0,.14c.08.21.18.46.28.69l.23.55a.21.21,0,0,0,0-.13.17.17,0,0,1,.05-.19.47.47,0,0,1,.09-.06.05.05,0,0,0,0,0s0,0,0-.07a18.68,18.68,0,0,1,.52-2.26l.21-.73,0,.74c0,.29,0,.55,0,.81s0,.34,0,.52h0l.11-.11.05.14c.07.2.18.45.28.68s.17.39.23.57a.18.18,0,0,0,.05-.16.17.17,0,0,1,0-.19l.09-.06a.05.05,0,0,0,0,0s0,0,.05-.07a20.22,20.22,0,0,1,.54-2.37l.21-.73c0,.72,0,1.44-.05,2.16h0l.11-.12.05.14c.07.21.18.45.28.68l.23.54a.2.2,0,0,0,0-.13.19.19,0,0,1,0-.2l.1-.05,0,0s0,0,0-.08c0-.22.07-.47.11-.72a18.63,18.63,0,0,1,.37-2l.21-.74,0,.74c0,.29,0,.66,0,1s0,.5,0,.73h0l.11-.12,0,.14c.07.2.18.44.28.68s.15.34.22.5a.17.17,0,0,0,0-.1.19.19,0,0,1,0-.2l.09-.05,0,0a.08.08,0,0,0,0-.08c.14-.81.4-2,.62-2.75l.21-.74c0,.25,0,.49,0,.74s0,.68-.06,1,0,.51,0,.73l.11-.12,0,.14.28.67.23.53a.2.2,0,0,0,0-.13.19.19,0,0,1,.05-.2l.1,0,0,0s0,0,0-.07a20.86,20.86,0,0,1,.5-2.33l.2-.74c0,.24,0,.49,0,.74s0,.55,0,.82v.53h0l.11-.12,0,.13a6.93,6.93,0,0,0,.28.67c.07.18.15.36.22.52a.15.15,0,0,0,0-.13.16.16,0,0,1,.06-.19.18.18,0,0,1,.09-.06l0,0s0,0,0-.08.05-.28.07-.44a21.79,21.79,0,0,1,.44-2.22l.21-.75c0,.25,0,.5,0,.75s0,.62,0,1,0,.49,0,.71h0l.11-.13.05.14c.07.2.17.43.27.66l.23.52a.17.17,0,0,0,0-.14.17.17,0,0,1,.06-.19.18.18,0,0,1,.09-.06l0,0s0,0,0-.08a21.33,21.33,0,0,1,.54-2.41c.07-.25.13-.5.2-.75,0,.72,0,1.44,0,2.17h0l.12-.13,0,.13c.07.2.17.43.27.66s.16.35.22.51a.2.2,0,0,0,0-.13.17.17,0,0,1,0-.19l.09-.07,0,0a.11.11,0,0,0,.05-.08,28.21,28.21,0,0,1,.6-2.76c.07-.25.14-.5.2-.76v.74c0,.3,0,.68-.06,1s0,.49,0,.71l.11-.12.05.13c.07.2.17.43.27.65s.16.35.23.52a.23.23,0,0,0,0-.14.19.19,0,0,1,0-.2l.09-.06,0,0a.1.1,0,0,0,.05-.08,24,24,0,0,1,.53-2.43l.21-.76c0,.72,0,1.45-.05,2.17h0L148,130l0,.13c.07.19.17.43.27.65s.15.33.21.48a.14.14,0,0,0,0-.11.17.17,0,0,1,.06-.19.31.31,0,0,1,.09-.07l0,0s0,0,0-.08a24.84,24.84,0,0,1,.53-2.44l.21-.76c0,.72,0,1.44-.05,2.17h0l.11-.14.05.13c.07.2.17.43.27.65s.16.34.22.51a.25.25,0,0,0,0-.14.19.19,0,0,1,.05-.2.31.31,0,0,1,.09-.07l0,0s0,0,0-.08l0-.24c.13-.79.29-1.78.49-2.53.06-.26.13-.51.2-.77v.74c0,.29,0,.66,0,1s0,.5,0,.73h0l.11-.13,0,.13c.07.19.18.42.28.64l.22.5a.23.23,0,0,0,0-.14.19.19,0,0,1,0-.2l.09-.07,0,0s0,0,0-.08a24.59,24.59,0,0,1,.53-2.46c.07-.26.14-.51.2-.77,0,.72,0,1.45,0,2.17l.11-.14,0,.13c.07.2.18.42.28.64l.22.5a.24.24,0,0,0,0-.14.21.21,0,0,1,.05-.21l.09-.07,0,0s0,0,0-.08c.07-.43.32-1.93.58-2.92l.21-.78c0,.25,0,.5,0,.74s0,.69-.05,1.1,0,.55,0,.79l.11-.14,0,.13c.07.19.17.41.27.63s.16.35.23.52a.24.24,0,0,0,0-.18.19.19,0,0,1,.05-.2l.09-.07,0,0a.08.08,0,0,0,0-.08,25,25,0,0,1,.53-2.48l.2-.78c0,.72,0,1.45-.05,2.17h0l.11-.14,0,.13c.07.19.17.41.27.62s.15.34.22.49a.22.22,0,0,0,0-.14.19.19,0,0,1,0-.2l.09-.08,0,0s0,0,0-.08l0-.28c.13-.8.3-1.9.5-2.65.07-.26.13-.53.2-.79l0,.75c0,.29,0,.68,0,1.08s0,.55,0,.79l.11-.14,0,.13c.07.19.17.4.27.62s.15.31.21.46a.22.22,0,0,0,0-.11.19.19,0,0,1,.05-.2.34.34,0,0,1,.09-.08l0,0a.19.19,0,0,0,0-.09c0-.22.08-.45.12-.68Zm-.62-11.4c-.37.29-.24.28-.66.32l-.48.05,0,0a.27.27,0,0,0-.28-.09.71.71,0,0,0-.39.29l0,0-.41.26c-.44.29-1.1.45-1.34.24a.33.33,0,0,1-.1-.14c-.05-.08-.09-.14-.21-.14a.81.81,0,0,0-.54.36l-.06.11a1.12,1.12,0,0,1-.43.48.83.83,0,0,1-1.13-.16l-.12-.22a.5.5,0,0,0-.38,0,.82.82,0,0,0-.38.38,2.14,2.14,0,0,1-.74.61,2.23,2.23,0,0,1-1.48.3.39.39,0,0,1-.3-.26s0-.06,0-.09,0-.14-.09-.15-.35.13-.55.44a2.38,2.38,0,0,1-1.47.87,1.33,1.33,0,0,1-1.37-.37l0-.07a.27.27,0,0,0-.42-.15.27.27,0,0,0-.1.11l-.12.24a1.5,1.5,0,0,1-.81.89,1.56,1.56,0,0,1-1.43-.05,1,1,0,0,1-.38-.85.35.35,0,0,0-.17-.27.31.31,0,0,0-.25,0,.37.37,0,0,0-.21.23l0,.15a1.84,1.84,0,0,1-.31.63,1.68,1.68,0,0,1-1.06.6h0c-.8.1-1-.22-1-.23a.36.36,0,0,0-.34-.19.51.51,0,0,0-.38.21,2.38,2.38,0,0,1-1.48.76h-.07a1.43,1.43,0,0,1-1-.24,2.43,2.43,0,0,0-.25-.2.44.44,0,0,0-.55-.2l-.08.14a.61.61,0,0,1-.07.14.89.89,0,0,1-.25.39,1.81,1.81,0,0,1-1.72.09c-.45-.24-.45-.24-.46-.27l-.05-.12a.57.57,0,0,1,0,.12s0,.32-.67.66a1.39,1.39,0,0,1-1.15,0,1.13,1.13,0,0,1-.36-.41c-.21-.34-.38-.57-.67-.52a.44.44,0,0,0-.31.25,1.22,1.22,0,0,1-.66.49c-.35.08-.59.15-.68.18l0,0c-.09,0-.09,0-.54-.56a2.91,2.91,0,0,0-.82.35,2.18,2.18,0,0,1-1.46.14l-.5-.13,0,0a.43.43,0,0,0-.29-.19.48.48,0,0,0-.4.15h0l-.45.12a1.53,1.53,0,0,1-1.38-.25l-.1-.17a.33.33,0,0,0-.21-.22.54.54,0,0,0-.55.17l-.06.08a.77.77,0,0,1-.45.33,1.14,1.14,0,0,1-1.15-.58l-.12-.26a.58.58,0,0,0-.38-.14.53.53,0,0,0-.39.24s-.15.19-.75.34a2.21,2.21,0,0,1-1.5-.23.58.58,0,0,1-.3-.37s0-.06,0-.09,0-.14-.09-.18-.35,0-.55.24a1.62,1.62,0,0,1-1.48.34,1.92,1.92,0,0,1-1.37-.85l0-.09a.52.52,0,0,0-.1-.18.41.41,0,0,0-.32-.12.14.14,0,0,0-.09.08,1.32,1.32,0,0,0-.12.2,1,1,0,0,1-.81.6,1.93,1.93,0,0,1-1.42-.56,1.43,1.43,0,0,1-.38-1,.59.59,0,0,0-.16-.33.38.38,0,0,0-.25-.09.21.21,0,0,0-.21.15.69.69,0,0,1,0,.13,1.29,1.29,0,0,1-.3.53,1.2,1.2,0,0,1-1,.22h0a1.44,1.44,0,0,1-1-.59.58.58,0,0,0-.33-.31.39.39,0,0,0-.37.08,1.66,1.66,0,0,1-1.45.24,2,2,0,0,1-1-.62l-.23-.28a.65.65,0,0,0-.54-.39l-.07.11a.75.75,0,0,0-.07.12.55.55,0,0,1-.25.3,1.94,1.94,0,0,1-1.66-.51c-.43-.4-.43-.41-.44-.44a.59.59,0,0,0,0-.13v.12s0,.31-.65.42a.93.93,0,0,1-.46-.05,1.67,1.67,0,0,1-.64-.36,1.8,1.8,0,0,1-.35-.55c-.2-.4-.37-.7-.64-.75s-.21,0-.29.15a1,1,0,0,1-1.14.26v-.19a.85.85,0,0,0,1-.21.38.38,0,0,1,.43-.19c.44.07.66.53.84.9a1.68,1.68,0,0,0,.27.46,1.44,1.44,0,0,0,.92.35c.52-.1.55-.31.55-.31,0-.26.05-.36.15-.34s.18.13.26.39l.38.35a1.76,1.76,0,0,0,1.43.46.46.46,0,0,0,.19-.24s0-.1.07-.14l.11-.16h0a.92.92,0,0,1,.81.54l.2.23a1.81,1.81,0,0,0,.89.53,1.56,1.56,0,0,0,1.31-.2.51.51,0,0,1,.54-.11.8.8,0,0,1,.48.43s.18.32.84.46h0a1.06,1.06,0,0,0,.9-.19,1.23,1.23,0,0,0,.27-.47s0-.09,0-.13a.36.36,0,0,1,.35-.25.64.64,0,0,1,.41.16.71.71,0,0,1,.23.48,1.24,1.24,0,0,0,.32.85,1.7,1.7,0,0,0,1.24.49.81.81,0,0,0,.68-.53,2.39,2.39,0,0,1,.13-.21.28.28,0,0,1,.19-.13.64.64,0,0,1,.53.18.74.74,0,0,1,.14.26l0,.07a1.68,1.68,0,0,0,1.2.72,1.49,1.49,0,0,0,1.31-.28c.32-.39.6-.37.79-.28a.38.38,0,0,1,.21.35.17.17,0,0,0,0,.07.47.47,0,0,0,.2.24,2.11,2.11,0,0,0,1.34.2c.54-.14.65-.27.65-.28a.66.66,0,0,1,.52-.3.71.71,0,0,1,.56.2l0,0,.13.28a.92.92,0,0,0,.91.46.54.54,0,0,0,.34-.26l.07-.09a.76.76,0,0,1,.77-.22.55.55,0,0,1,.33.32.41.41,0,0,0,.08.13,1.33,1.33,0,0,0,1.16.19l.4-.11a.72.72,0,0,1,.55-.18.59.59,0,0,1,.41.26l.43.11a2,2,0,0,0,1.31-.12c.82-.44,1-.41,1.06-.33.18.24.31.42.38.5l.7-.19a1,1,0,0,0,.54-.39.63.63,0,0,1,.44-.35c.46-.08.69.3.88.6a1,1,0,0,0,.29.36,1.2,1.2,0,0,0,1,0c.55-.29.58-.5.58-.5,0-.26.05-.38.16-.4s.18.06.26.29l.4.21a1.61,1.61,0,0,0,1.48-.06.69.69,0,0,0,.2-.31l.08-.16.11-.2,0,0a.66.66,0,0,1,.83.25l.2.15a1.31,1.31,0,0,0,.93.2,2.23,2.23,0,0,0,1.34-.67.74.74,0,0,1,.55-.3.54.54,0,0,1,.49.26s.19.25.86.16h0a1.43,1.43,0,0,0,.91-.51,1.89,1.89,0,0,0,.28-.57.88.88,0,0,1,0-.15.55.55,0,0,1,.35-.36.46.46,0,0,1,.65.4.86.86,0,0,0,.32.74,1.44,1.44,0,0,0,1.25,0,1.32,1.32,0,0,0,.69-.77l.12-.26a.58.58,0,0,1,.19-.2.57.57,0,0,1,.54,0,.43.43,0,0,1,.14.2l0,.07c.14.26.65.39,1.19.29a2.06,2.06,0,0,0,1.31-.75c.32-.51.6-.59.79-.56s.19.17.2.27,0,0,0,.07a.25.25,0,0,0,.2.16,2,2,0,0,0,1.33-.27,2.12,2.12,0,0,0,.64-.51,1.05,1.05,0,0,1,.51-.49.59.59,0,0,1,.55,0l0,0,.14.23a.66.66,0,0,0,.89.14.86.86,0,0,0,.33-.38.41.41,0,0,1,.07-.11,1,1,0,0,1,.75-.5.32.32,0,0,1,.32.21.39.39,0,0,0,.08.1c.16.15.72,0,1.13-.23l.39-.25a.93.93,0,0,1,.53-.37.4.4,0,0,1,.4.1l.41,0m.87,6.08V123a6.73,6.73,0,0,1-1.95.7,8,8,0,0,0-1.31.36c-.76.26-1.48.49-1.77,0a2.13,2.13,0,0,0-.56-.59,4.53,4.53,0,0,1-.85-.86.82.82,0,0,0-.67-.3,3.22,3.22,0,0,0-1.8,1.14c-.4.44-.63.72-.84,1a12.82,12.82,0,0,1-.87,1,1.9,1.9,0,0,1-1.21.51,3.55,3.55,0,0,0-1,.26l-.6.26c-.72.32-1.82.79-2.16.92a3.55,3.55,0,0,1-2.38,0,4.31,4.31,0,0,1-1.46-1.06l-.15-.15a1.64,1.64,0,0,0-1.5-.68,3.09,3.09,0,0,0-2,1.55,2.92,2.92,0,0,1-2.44,1.36,2.39,2.39,0,0,1-1.54-.82l0,0a2,2,0,0,0-1.63-.65,2.08,2.08,0,0,0-1.42.9,2,2,0,0,1-1.6.92h0a2.93,2.93,0,0,1-1.21-.33q-.93-.42-1.86-.87a2.55,2.55,0,0,0-.72-.25,1.63,1.63,0,0,0-1.28.42l-.26.26a2.32,2.32,0,0,1-.69.56,3.64,3.64,0,0,1-3-.31,6.09,6.09,0,0,1-1.81-1.71l0-.07a1.5,1.5,0,0,0-1.11-.65,1.18,1.18,0,0,0-.49.15c-.64.31-1.28.62-1.91.91a4,4,0,0,1-3.14.38,5.07,5.07,0,0,1-1.19-.66,7.77,7.77,0,0,0-.78-.48,3.57,3.57,0,0,0-2.93-.27l0,0a.72.72,0,0,1-.51.12,1.42,1.42,0,0,1-.6-.3,7.71,7.71,0,0,1-2-2.17l0,0a1.46,1.46,0,0,0-.33-.43,1,1,0,0,0-1.82.44,1.47,1.47,0,0,1-.32.55,2.24,2.24,0,0,1-2.13.11,4.13,4.13,0,0,1-.8-.37l0-.16c1,.61,2.26.73,2.73.27a1.51,1.51,0,0,0,.29-.51,1.56,1.56,0,0,1,.3-.55,1.53,1.53,0,0,1,1.79.1,1.6,1.6,0,0,1,.4.5l0,0a7.44,7.44,0,0,0,2,2.09,1.2,1.2,0,0,0,.49.25.59.59,0,0,0,.4-.11l0,0a3.84,3.84,0,0,1,3.11.28,7.78,7.78,0,0,1,.8.5,5.08,5.08,0,0,0,1.14.63,3.9,3.9,0,0,0,3-.37l1.91-.91a1.42,1.42,0,0,1,.57-.17,1.67,1.67,0,0,1,1.29.74l.06.06a5.78,5.78,0,0,0,1.74,1.66,3.49,3.49,0,0,0,2.82.3,2.06,2.06,0,0,0,.64-.52l.26-.27a1.83,1.83,0,0,1,1.45-.47,2.82,2.82,0,0,1,.79.27c.62.3,1.23.59,1.85.87a2.71,2.71,0,0,0,1.14.31,1.86,1.86,0,0,0,1.45-.85,2.28,2.28,0,0,1,1.56-1,2.31,2.31,0,0,1,1.79.7l0,0a2.2,2.2,0,0,0,1.43.77,2.71,2.71,0,0,0,2.24-1.27,3.27,3.27,0,0,1,2.18-1.63,1.78,1.78,0,0,1,1.66.72l.15.15a4.2,4.2,0,0,0,1.41,1,3.33,3.33,0,0,0,2.24,0c.34-.13,1.43-.59,2.15-.91l.6-.27a4,4,0,0,1,1-.27,1.74,1.74,0,0,0,1.07-.43,11.88,11.88,0,0,0,.85-1c.22-.28.45-.57.86-1a3.39,3.39,0,0,1,2-1.23,1,1,0,0,1,.81.35,4.66,4.66,0,0,0,.82.84,2.21,2.21,0,0,1,.59.62c.23.35.87.15,1.59-.09a8.64,8.64,0,0,1,1.36-.38A6.57,6.57,0,0,0,158,122.85Z"/><path id="AAAP" class="cls-1" d="M111.18,107.07h-2.91l-.85-2h-4.23l-.84,2h-2.9l4.33-9.14H107Zm-4.37-3.61-1.28-3.08a3.28,3.28,0,0,1-.2-.82h-.07a2.54,2.54,0,0,1-.2.8l-1.3,3.1Zm19.71,3.61H123.6l-.84-2h-4.23l-.84,2h-2.9l4.33-9.14h3.17Zm-4.38-3.61-1.27-3.08a2.9,2.9,0,0,1-.2-.82h-.07a2.87,2.87,0,0,1-.21.8l-1.29,3.1Zm11.94.46v3.15H131.4V97.93h4.2q4.49,0,4.49,2.91a2.58,2.58,0,0,1-1.29,2.23,6.15,6.15,0,0,1-3.44.85Zm0-4.41v2.85h1c1.43,0,2.14-.48,2.14-1.44s-.71-1.41-2.14-1.41Zm13.83,4.41v3.15h-2.68V97.93h4.19q4.5,0,4.5,2.91a2.58,2.58,0,0,1-1.29,2.23,6.16,6.16,0,0,1-3.45.85Zm0-4.41v2.85H149c1.43,0,2.14-.48,2.14-1.44s-.71-1.41-2.14-1.41Z"/><path id="Founded" class="cls-2" d="M114.66,138.48v.34h-2.34V140h2v.34h-2V142h-.46v-3.49Zm5,1.75a2.17,2.17,0,0,1-.13.74,1.54,1.54,0,0,1-.38.58,1.67,1.67,0,0,1-.6.38,2.65,2.65,0,0,1-1.64,0,1.71,1.71,0,0,1-.61-.38,1.52,1.52,0,0,1-.37-.58,2,2,0,0,1-.13-.74,2,2,0,0,1,.13-.74,1.56,1.56,0,0,1,.37-.57,1.71,1.71,0,0,1,.61-.38,2.47,2.47,0,0,1,1.64,0,1.67,1.67,0,0,1,.6.38,1.59,1.59,0,0,1,.38.57A2.21,2.21,0,0,1,119.63,140.23Zm-.46,0a1.61,1.61,0,0,0-.12-.63,1.29,1.29,0,0,0-.31-.47,1.35,1.35,0,0,0-.47-.3,1.56,1.56,0,0,0-.57-.1,1.57,1.57,0,0,0-.58.1,1.35,1.35,0,0,0-.47.3,1.43,1.43,0,0,0-.31.47,1.89,1.89,0,0,0,0,1.27,1.54,1.54,0,0,0,.31.47,1.49,1.49,0,0,0,.47.29,1.56,1.56,0,0,0,1.15,0,1.49,1.49,0,0,0,.47-.29,1.38,1.38,0,0,0,.31-.47A1.62,1.62,0,0,0,119.17,140.23Zm2-1.75v2.35a.87.87,0,0,0,.1.39.84.84,0,0,0,.25.28,1.06,1.06,0,0,0,.35.18,1.34,1.34,0,0,0,.4.07,1.52,1.52,0,0,0,.42-.06,1.63,1.63,0,0,0,.38-.17.94.94,0,0,0,.27-.29.71.71,0,0,0,.1-.39v-2.36h.46v2.34a.94.94,0,0,1-.15.53,1.21,1.21,0,0,1-.38.4,1.66,1.66,0,0,1-.52.24,1.89,1.89,0,0,1-.58.08,1.75,1.75,0,0,1-.55-.08,1.45,1.45,0,0,1-.5-.24,1.26,1.26,0,0,1-.37-.39,1.1,1.1,0,0,1-.14-.55v-2.33Zm4.45,0,2.19,3v-3h.46V142h-.62l-2.18-3v3H125v-3.49Zm3.77,0H131a2.07,2.07,0,0,1,.77.14,1.67,1.67,0,0,1,.58.38,1.49,1.49,0,0,1,.37.55,1.67,1.67,0,0,1,.13.67,1.73,1.73,0,0,1-.13.69,1.57,1.57,0,0,1-.39.56,1.65,1.65,0,0,1-.58.37,2,2,0,0,1-.75.13h-1.59Zm.45,3.15h1a2.06,2.06,0,0,0,.62-.09,1.44,1.44,0,0,0,.5-.28,1.22,1.22,0,0,0,.33-.44,1.38,1.38,0,0,0,.12-.59,1.54,1.54,0,0,0-.12-.63,1.22,1.22,0,0,0-.33-.44,1.58,1.58,0,0,0-.5-.26,2.45,2.45,0,0,0-.62-.08h-1Zm7-3.15v.34h-2.41V140h2.27v.34h-2.27v1.29H137V142h-3v-3.49Zm1.23,0h1.59a2.07,2.07,0,0,1,.77.14,1.67,1.67,0,0,1,.58.38,1.62,1.62,0,0,1,.37.55,1.67,1.67,0,0,1,.13.67,1.58,1.58,0,0,1-.14.69,1.55,1.55,0,0,1-.38.56,1.75,1.75,0,0,1-.58.37,2,2,0,0,1-.75.13h-1.59Zm.45,3.15h.95a2.08,2.08,0,0,0,.63-.09,1.44,1.44,0,0,0,.5-.28,1.22,1.22,0,0,0,.33-.44,1.38,1.38,0,0,0,.12-.59,1.54,1.54,0,0,0-.12-.63,1.22,1.22,0,0,0-.33-.44,1.58,1.58,0,0,0-.5-.26,2.47,2.47,0,0,0-.63-.08h-.95ZM121.09,147v-2.76a1.59,1.59,0,0,1-.64.47,2.29,2.29,0,0,1-.83.14v-.36a1.85,1.85,0,0,0,.65-.1,1.54,1.54,0,0,0,.46-.24,1,1,0,0,0,.27-.3.6.6,0,0,0,.09-.28h.44V147Zm2.61-.77a.58.58,0,0,0,.1.19.52.52,0,0,0,.17.16.83.83,0,0,0,.25.12,1,1,0,0,0,.31.05.92.92,0,0,0,.53-.15,1,1,0,0,0,.33-.36,1.47,1.47,0,0,0,.17-.47,2.1,2.1,0,0,0,.06-.48.91.91,0,0,1-.24.24,1.29,1.29,0,0,1-.57.26l-.25,0a1.55,1.55,0,0,1-.55-.09,1.17,1.17,0,0,1-.42-.25.93.93,0,0,1-.26-.36,1.13,1.13,0,0,1-.09-.45,1,1,0,0,1,.35-.78,1.27,1.27,0,0,1,.41-.24,1.94,1.94,0,0,1,.56-.08,1.49,1.49,0,0,1,1.08.39,1.58,1.58,0,0,1,.4,1.17,3.13,3.13,0,0,1-.1.86,1.56,1.56,0,0,1-.3.59,1.11,1.11,0,0,1-.48.35,1.56,1.56,0,0,1-.62.12,1.89,1.89,0,0,1-.5-.07,1.68,1.68,0,0,1-.38-.18,1.06,1.06,0,0,1-.25-.27.94.94,0,0,1-.12-.3Zm.86-2.37a1,1,0,0,0-.35.06.88.88,0,0,0-.28.17,1.2,1.2,0,0,0-.18.26.83.83,0,0,0-.06.32.81.81,0,0,0,.06.31.76.76,0,0,0,.18.26,1.27,1.27,0,0,0,.27.18,1,1,0,0,0,.36.06,1,1,0,0,0,.4-.07.86.86,0,0,0,.29-.19,1.06,1.06,0,0,0,.17-.26,1,1,0,0,0,0-.28.72.72,0,0,0-.07-.33,1,1,0,0,0-.2-.26,1.11,1.11,0,0,0-.3-.17A1,1,0,0,0,124.56,143.88Zm3.23,3.14a5.8,5.8,0,0,1,.21-.82,5,5,0,0,1,.34-.79,5.75,5.75,0,0,1,.49-.76,6.24,6.24,0,0,1,.66-.72h-2.35v-.3H130v.28c-.22.23-.43.46-.62.68a6.85,6.85,0,0,0-.5.7,5.27,5.27,0,0,0-.39.79,4.77,4.77,0,0,0-.24.94Zm4,0a5.77,5.77,0,0,1,.2-.82,6.07,6.07,0,0,1,.34-.79,5.75,5.75,0,0,1,.49-.76,5.56,5.56,0,0,1,.67-.72h-2.36v-.3H134v.28c-.22.23-.42.46-.61.68a5.68,5.68,0,0,0-.51.7,4.42,4.42,0,0,0-.38.79,4.76,4.76,0,0,0-.25.94Z"/></svg>