<svg id="Layer_1" data-name="Layer 1" xmlns="http://www.w3.org/2000/svg" viewBox="0 0 252.71 192.04"><defs><style>.cls-1{fill:#fff;}.cls-2{fill:#e22f18;}.cls-3{fill:#1d196a;}</style></defs><title>logo_white</title><path class="cls-1" d="M249.86,30.7a4.7,4.7,0,0,0-4.66-4.08,4.88,4.88,0,0,0-1.2.16c-.7.16-4.85,1-8.52,1.76a4.7,4.7,0,0,0-2.93,1.94,4.39,4.39,0,0,0-1.45.34,4.67,4.67,0,0,0-2.79,1.81l-1.24,1.69-.13.18-4.79,2.58,0,0c4.8-4.87,8-9.14,10-13.43.8-1.71,1.34-2.66,1.82-3.5a21.36,21.36,0,0,0,1.93-4.2A4.71,4.71,0,0,0,231.5,9.7a4.11,4.11,0,0,0-.78.07c-7.07,1.2-25.86,4.37-28,4.64a109.14,109.14,0,0,1-14.52.87c-2.75,0-5.62-.08-8.53-.24-13.17-.72-29.28-2.12-30.79-2.3a4,4,0,0,0-.59,0,4.25,4.25,0,0,0-.8.07A9.05,9.05,0,0,0,145.29,10a9.81,9.81,0,0,0-6.88-2.35A8.45,8.45,0,0,1,137.23,7l-.06-.06a10.54,10.54,0,0,0-8-3.33,16.29,16.29,0,0,0-1.82.11,44.71,44.71,0,0,1-5.07.41A11.54,11.54,0,0,1,119,3.66a5.09,5.09,0,0,1-1.94-.93A4.81,4.81,0,0,0,113.38,1a5.26,5.26,0,0,0-1.37.18l-.34-.06a6.21,6.21,0,0,0-.9-.06,5.56,5.56,0,0,0-5,2.84,5.63,5.63,0,0,0,.46,5.89c.81,1.42,1.89,4.49,1.31,5.86a22.43,22.43,0,0,1-1.44,2.74l-1.86-3.34a4.71,4.71,0,0,0-4.11-2.42h-.2c-.29,0-29.76,1.27-36.86,1.27s-18.27-.65-24.75-1.86A111.84,111.84,0,0,1,23.79,8.48a4.7,4.7,0,0,0-6.94,5c.18,1,1.91,9.66,5.61,14.9l.37.51c1.27,1.8,2.6,3.7,4.15,5.52l-1.74-1-.85-1.48a4.64,4.64,0,0,0-2.68-2.17,4.78,4.78,0,0,0-1.91-.45A4.76,4.76,0,0,0,17,27.5L8.45,25.78a4.36,4.36,0,0,0-.94-.1A4.7,4.7,0,0,0,4,33.48l5.48,6.27A4.7,4.7,0,0,0,12,41.25l.34.57a4.62,4.62,0,0,0,1.39,1.49,4.88,4.88,0,0,0,1.27.78c.32,4.35,1.36,17.8,2.52,24.31,1,5.85,4.79,21.33,7.15,28.5a4.38,4.38,0,0,0,.12.61c1.21,4,6.92,21.31,16.91,29.48a9.2,9.2,0,0,0-2.23,4.45c-.21,1-.49,3.22-1,7.42-.58,4.76-1.78,14.65-2.42,16.55-.16.39-.34.84-.54,1.36a24.05,24.05,0,0,1-9.79,12.45c-6.69,4.5-9.69,6.54-10.81,7.31a5,5,0,0,0,.11,8.38,4.57,4.57,0,0,0,1.38.59l12.28,3.07a4.1,4.1,0,0,0,.92.14H30a5.53,5.53,0,0,0,3.62-1.2c1.14-.92,2.22-1.83,3.23-2.71a4.79,4.79,0,0,0,4.5,4.12h.24a4.74,4.74,0,0,0,1.3-.18l16-4.61a4.38,4.38,0,0,0,.9-.37,5.3,5.3,0,0,0,1.38-1,27.28,27.28,0,0,0,5.43-8,4.67,4.67,0,0,0,2.3.6,4.74,4.74,0,0,0,2.62-.8l12.61-8.46a9.41,9.41,0,0,0,1.36-1A73.71,73.71,0,0,0,98.71,172l3.1,5.65a4.69,4.69,0,0,0,4.12,2.44,4.87,4.87,0,0,0,.66,0,4.71,4.71,0,0,0,3.93-3.63l.18-.8a74.84,74.84,0,0,0,15.43,1.63,74.09,74.09,0,0,0,7.63-.41,4.69,4.69,0,0,0,3.13,3.87,4.77,4.77,0,0,0,1.53.26,4.71,4.71,0,0,0,3.57-1.65l4.15-4.85a73.72,73.72,0,0,0,16.29-6.81,17.26,17.26,0,0,0,2.09,2c1.67,1.3,9,6,10.5,6.9a4.67,4.67,0,0,0,4.53.27,22.34,22.34,0,0,0,12.33,11.31c5.71,2.25,8.72,2.29,10.91,2.31a14.17,14.17,0,0,1,1.58.08,5.83,5.83,0,0,0,.59,0,4.71,4.71,0,0,0,4-2.25,11.47,11.47,0,0,0,7.1,2.71h0a12.27,12.27,0,0,0,3.18-.44c4.52-1.19,6.57-1.77,7.9-2.53l.08,0a5.22,5.22,0,0,0,3.56-4.5c.26-3.31-2.57-5.07-3.78-5.83-3.16-2-10.29-7.26-12.44-9.95-2.67-3.33-5.83-9.43-6.14-11.06,0-1,.39-4.2.67-6.36.69-5.3.94-7.61.67-9.23-.05-.28-.08-.63-.13-1-.25-2.34-.69-6.27-2.88-9.56a13.37,13.37,0,0,0,3.51-2.7,46.1,46.1,0,0,0,6.52-10.11c.68-1.58,1.52-3.47,2.29-5.17,1.41-3.15,2-4.41,2.22-5.15.3-.93,1-3.55,1.36-5.1a3.92,3.92,0,0,0,.23-.6c.23-.77,5.73-18.89,7.47-26.17,0-.24,5.1-22.17,6.12-30.29a4.74,4.74,0,0,0,2.89-2.3,1.14,1.14,0,0,1,.1-.19L240,42a4.68,4.68,0,0,0,2.44-1.31c2.29-2.33,5-5.08,5.69-5.69A4.7,4.7,0,0,0,249.86,30.7ZM71.05,153.08c0-.11,0-.23,0-.35l.07.08Z"/><path id="Red-Main" class="cls-2" d="M84,158.36c-.16.62-.31,1.16-.42,1.49a4.22,4.22,0,0,1-1.92,2.27l-12.75,8.55c5.16-9.45,6.77-16.13,7.27-19.27A69.81,69.81,0,0,0,84,158.36Zm-24-33.9c-.47.74-.88,1.44-1.18,2a19.77,19.77,0,0,0-1.92,9.43,51.61,51.61,0,0,0,.52,10.65c.88,6.64-.7,14.85-3,20.79-2.08,5.44-11.36,15.15-12.88,16.72-.14.14,0,.15,0,.15l16.05-4.61a2.38,2.38,0,0,0,.23-.14c6-6.1,6.55-13.89,7.94-18.24,1.06-3.32.4-17.2,0-23.61A68.81,68.81,0,0,1,60,124.46ZM50.4,146.4c0-3.49.35-10.48,1.92-13.8s3.49-7.68,3.49-7.68L46,129.63s-1.4.35-1.92,2.8-2.45,22-3.67,24.8-3,9.78-12,15.89c-6.66,4.48-9.66,6.52-10.78,7.29a.29.29,0,0,0,0,.53L29.87,184a1.47,1.47,0,0,0,.74-.13c2.22-1.81,16.08-13.38,17.69-21.41C50.05,153.73,50.4,149.89,50.4,146.4Zm6.46-37-7.13-3.07c.75,2.3,2,5.6,2.94,6.7s3.84,4.52,6.22,7.76A69.06,69.06,0,0,1,56.86,109.41Zm167.66,72.27c-2.8-1.75-10.83-7.51-13.63-11s-7-11-7.16-13.62,1.75-13.1,1.4-15.19-.35-7.51-3.67-10.31a44,44,0,0,0-6.11-4.36,30.79,30.79,0,0,0,4.89.7c1.75,0,5.42-1.92,6.46-3.15a41.5,41.5,0,0,0,5.77-8.9c1.57-3.67,4-8.91,4.36-10s1.48-5.6,1.48-5.6l-10.24,3.5c-.15.64-.32,1.28-.49,1.93-1.58,5.76-3.85,8.38-5.07,10.48S194,123,194,123l5.77-15.9-.05-.44-4.35,1.48a69.12,69.12,0,0,1-4.25,19.37,6.92,6.92,0,0,1,3.76,3.52c1.39,3.14,2.44,5.94,1.92,13.62s0,21.31,3.14,25.85,8.21,11.35,10.83,13.27,4,3.15,7.34,2.27a41.87,41.87,0,0,0,6.81-2.09C225.74,183.42,227.31,183.42,224.52,181.68ZM49.7,126.14l8.9-3.84s-8.2-2.27-10.82-6.64c-2.32-3.86-4.91-8.82-5.6-12.57L30,97.84a14.68,14.68,0,0,1-.67-1.69C30.08,98.61,37.61,122.5,49.7,126.14Zm143,46.63a43.73,43.73,0,0,1-4.19-13.62,56.48,56.48,0,0,1,.52-11.53A27,27,0,0,0,191,136.27c-.16-2.76-.25-5.33-.43-7.5a69.31,69.31,0,0,1-9.68,16.9c-.21,2.64-.45,5.79-.55,7-.17,2.27-.17,11.87,1.75,17.81s4.89,10.65,11.53,13.27,8.55,1.75,11.35,2.1C205,185.87,195.53,178.71,192.73,172.77ZM163.59,161.5a21.19,21.19,0,0,0,3.82,4.46c1.57,1.22,10.13,6.64,10.13,6.64a41.87,41.87,0,0,1-5.47-17.54A69.83,69.83,0,0,1,163.59,161.5Zm-25.4,9.95.23,4.81,5.1-6Q140.9,171,138.19,171.45ZM102,168.23l3.92,7.16,1.23-5.48Q104.55,169.18,102,168.23Z"/><path id="Blue-Main" class="cls-3" d="M245.2,31.33c-.15,0-6.13,6.08-6.13,6.08l-.51-1-1.21.75L236.09,35l1.29-.73-1-1.12S245.35,31.33,245.2,31.33ZM232,40.91,185.5,65.63l1.22,1.61L232,43.07c.17,2.56-4.45,24.12-6.17,31.34s-7.39,25.89-7.39,25.89l-23,7.87A69.46,69.46,0,0,1,57,109.43L30.08,97.86c-1.55-3.06-6.55-22.78-7.89-30.28s-2.55-25.17-2.55-25.17l46.84,25c.22-.38.46-.75.69-1.13L20.08,39.57l1.67-2.72L69.3,63.11l.4-.57c-.86-.49-5.16-2.9-6.06-3.35a26.73,26.73,0,0,1-4.16-2.89c-1-.89-.67-1.5-.67-1.5s0-1.23,0-1.76-.55-.35-1-.19a13.38,13.38,0,0,1-4.61,0c-1.72-.33-2.89-1.5-5.39-3.39a18.35,18.35,0,0,1-4.66-6.33c-.23-.61-.62-2,.27-2.61s.34-.9,0-1c-.79-.12.61.5-5-2S29.53,30.18,26.3,25.63s-4.83-13.06-4.83-13.06c1.22.78,9.11,2.83,16,4.11S55.75,18.62,63,18.62s37.06-1.27,37.06-1.27l5.28,9.5a31.73,31.73,0,0,0,6.45-9.34c1.83-4.28-1.61-10.17-1.61-10.17C109,5.51,111,5.79,111,5.79s-.06.83,1.28.28,1.11-.34,1.11-.34a8.33,8.33,0,0,0,4.28,2.45c3.11.89,5.89.67,10.17.17s5.55,1.55,6.28,2.16a9.46,9.46,0,0,0,3.66,1.78c1,.06,2.78-.22,4.34,1.17s1.33,2,1.66,4,0,2.78-.61,5.33a12,12,0,0,1-2.94,4.84,17.18,17.18,0,0,0-2.45-2.34c-.94-.83-2-.44-3,0a7.58,7.58,0,0,0-2.61,3.06c-.06.44-.89,2.78,3.33,2.5s6.23-2.67,8.67-5.06,4.11-8.39,4.11-8.39c1.78.22,18,1.61,31.12,2.34a127.14,127.14,0,0,0,23.95-.67c2.61-.33,28.11-4.67,28.11-4.67-.94,2.78-1.54,3-3.54,7.2a46.37,46.37,0,0,1-9.12,12.14A21.18,21.18,0,0,1,209,39.13c-.44,0-1-.06-1.28.39a3.1,3.1,0,0,0-.39,1.77c.06.67.28,1.06-1,4.28s-4.39,5.39-6.22,6.56-6.61,1.83-7.56,1.94-1.33-.13-.94.67c1.11,2.31-1.67,3.84-3.11,4.72a21.39,21.39,0,0,1-4.84,2.12c-1.25.32-.16,1.39.67,1.05s46-24.61,46-24.61Zm-58.57-7.1c-1.49,1.08-2.44,2-4,2.28a11.17,11.17,0,0,1-2.29.34c-.18,0-.63-.08-.74.33s-1.87,5.5-2,5.65-.41.82.11,1.12a49.88,49.88,0,0,1,7.63,6.14c2.43,2.62,5.12,5.23,6.51,5.91s2.24,1.19,3,.86,1.35-.53,1.31-2.1a5.64,5.64,0,0,0-2.17-4.86,41.71,41.71,0,0,0-5.46-3.81c-1.65-.9-5.09-2.85-5.95-3.33s-1.08-.79-1.23-.79a.35.35,0,0,1-.23-.56,12,12,0,0,0,.71-2c.12-.34.27-.9.68-.94a4.84,4.84,0,0,0,1.53-.37c.3-.19.3-.34.49-.49a.6.6,0,0,1,.86.08,35.91,35.91,0,0,0,3.33,3.4c.71.49,4,3.18,6.8,4a23.65,23.65,0,0,0,9.73,1c3.44-.53,5.65-1.12,5.95-1.87a1.7,1.7,0,0,0-.68-2.47A27.19,27.19,0,0,0,191.85,39c-1.91-.53-15.22-5.43-15.37-5.61s-.23-.27-.08-.64.15-.86.38-1.16a2.55,2.55,0,0,0,.22-1.35c0-.48-.15-1,.45-.93s11.52,2.69,13,3,7.25,1.39,9.61,1.2a20.3,20.3,0,0,0,8.68-2.81A41.76,41.76,0,0,0,214,26.51c.3-.33.27-.63-.11-.59a3.8,3.8,0,0,1-.5,0s-5.34,2-37.5-.76c-1.35-.11-1,.51-1,.51a18.41,18.41,0,0,1,0,3.48C174.71,30.41,174.94,32.69,173.38,33.81ZM154.66,22a2.51,2.51,0,0,0,.21.41S160.2,28,161,28.54a5.55,5.55,0,0,0,4.2,1.55c2.5-.13,2.76-.19,3.32-.49s1.16-.44,1.37-1.19a10.57,10.57,0,0,0,.25-2.93c-.07-.7.29-1.14-.74-1.42S157,21.9,157,21.9a15.06,15.06,0,0,0-2.09-.29C154.66,21.69,154.59,21.74,154.66,22Zm-51.78,9.71-2.62.6c-.19.06-.8.3-.14.66s2.76,1.72,3.12,1.88a13.06,13.06,0,0,1,1.25.85s.8.36,0,.63a6.68,6.68,0,0,0-2.3,1.09,1.09,1.09,0,0,0,.07.54s27.59-10.6,54.4,3.07l.43.24s.65.55,1.15,0,3.57-3.22,2-6.36a23.86,23.86,0,0,0-4.7-6.78c-2.19-2.35-3.36-3.66-3.61-3.88s-1.23-1.64-1.86-.66-.57.47-.74,2-.17,6.19,1,8.89-.07,3.45-.29,3.43,0,.09-1.75-.54-2.38-3.66-2.38-3.66a22,22,0,0,1-.46-2.49c0-.33-.14-1-.71-.46a14.9,14.9,0,0,1-2.82,2.13c-1.12.54-1.39,1-3.36.63a55,55,0,0,0-5.63-1.07c-1.28-.08-3.88-.11-4.24-.08s-2.62,0-2-2.24,1.81-5.55,3.15-6.45a12,12,0,0,1,3.3-1.7,24.57,24.57,0,0,1,5.58-1,6.86,6.86,0,0,0,1.42,0c.19,0,.63.11.66-.73a3.77,3.77,0,0,0-.9-3c-1-.9-.71-.79-1-.9s-.66-.6-1.39.19a7.88,7.88,0,0,1-2.25,2.05,4.18,4.18,0,0,1-2.67.25,4,4,0,0,0-1.07-.28.29.29,0,0,0-.36.33,1.25,1.25,0,0,1-.3,1.2,2.63,2.63,0,0,1-2.07.82c-.88-.05-1.59-.13-1.84-.49a2.92,2.92,0,0,1-.6-1.56c0-.57.17-.87-.43-1.28s-1.59-1.12-1.67-1.2l-.08-.09.09.08h0l-.09-.08c-.52-.43-.85-.62-.93-.71s-.33-.43-.14-.54a1.09,1.09,0,0,1,.9-.19,3.14,3.14,0,0,1,1.18.41c.24.21.27.52.54.49s.55.16,1-.08.76-1,1.47-.93a4.47,4.47,0,0,1,1.62.46,11.18,11.18,0,0,0,1.77.66,2.38,2.38,0,0,0,1.4.08c.41-.16.68-.14.74-.47s0-.27-.33-.51a14,14,0,0,1-2-1.45c-.36-.41-.5-.82-1-.93a2,2,0,0,0-1.61.22,15.33,15.33,0,0,1-4.34.73,45.07,45.07,0,0,1-5.25-.68c-.63-.19-1.56-.57-2.05-.19s-.58.63-.58.93a30,30,0,0,1-.16,4.24,27.12,27.12,0,0,1-1.5,4.92,18.81,18.81,0,0,1-5.8,6.28C105.92,30.68,104.85,31.19,102.88,31.66Zm-5.78-7-.06,0-.47.41C94.63,26.72,89,31.51,88.41,32S86,34.34,85.87,34.49a2.4,2.4,0,0,0-.46.6,1.78,1.78,0,0,0-.2.45c0,.15.05.53.05,1.4a5.32,5.32,0,0,0,.48,1.75,6.93,6.93,0,0,0,.28.64,7.57,7.57,0,0,0,.4.75A28.17,28.17,0,0,0,90.35,43l.05,0a.64.64,0,0,0,.77.21l.11-.05a1.29,1.29,0,0,0,.29-.19h0c.21-.14.6-.36,1.08-.63l.17-.06a3,3,0,0,0,.87-.42c.07-.1.76-.58-.38-.88l0,0a14,14,0,0,0-1.76-.33s-.07-.11-.07-.11l.18-3.32c0-.16,0-.29.05-.34.1-.39.39-.29.39-.29l3.71-.06H98a.27.27,0,0,0,.23,0h.27l.1-.53-.35-.13a5.79,5.79,0,0,0-.88-.34c-1-.36-2.17-.82-2.54-.93-.61-.19-1.79-.46-2.27-.57-.13-.07-.24-.16-.24-.29a6,6,0,0,1,.16-.88c.2-.42.52-2.29.71-2.9a1,1,0,0,1,.16-.35.81.81,0,0,1,.59,0,3.3,3.3,0,0,0,1.27.27l.93-.07a8.47,8.47,0,0,0,1.69-.13l.32,0c.32-.1,1.12-.23,1.51-.4l.19-.08.19,0c.42-.05.41-.32.3-.58s-.4-.68-.58-.89l0-.07-.08-.12c-.24-.38-.65-1.09-1-1.51S98.16,25,98,24.81s-.33-.62-.82-.25Zm-21,.32a12.07,12.07,0,0,0,2.41,3.67c.44.34,1,1.16,3.57,1.21s6.18-3.09,6.18-3.09,5.7-3.33,3.58-3.82S76.09,25,76.09,25ZM74.25,55.66c2.26-.12,3-1.53,4.14-2.53s3.86-5.66,4-5.85.35-.38.35-.38l2.68.38c.11,0,.26-.31.3-.42s-.07-.23-.69-.58-1-.88-2.48-2.1-2.36-6.92-2.45-7.49c0,0-.06-.06-.09-.07-3.52-.82-7-3.43-7.83-4.91s-1.41-5.39-1.54-6.29c0-.11-.12-.18-.28-.18l-29.71.12a4,4,0,0,0-1.76.42c-.65.34-.3,1.26,0,1.64a15.58,15.58,0,0,0,3.07,2.3,21.26,21.26,0,0,0,8.53,2.64,52.69,52.69,0,0,0,13.23-.65,28.67,28.67,0,0,0,5.63-1.65c.5-.23.92.31,1.11.73s.69,1.72,1.07,2.45.19.92.08,1.11-.92.34-1.46.5l-4.4,1.3c-.53.15-8.53,2.21-9.68,2.56a10.08,10.08,0,0,0-2.71,1.38c-.58.38-.54.69-.62,1.57a2.85,2.85,0,0,0,.85,2.41c.72.72,3.67,1.41,5.58,1.64s5.47-.76,6.62-1.22a38,38,0,0,0,5.2-3.6c.65-.54,3.68-3.75,3.83-4s.65-.11.8,0,1.3.46,1.84.61a1.25,1.25,0,0,1,.84.58,8.51,8.51,0,0,1,.46,1.8c0,.19-.19.26-.34.34S75.82,42.08,75,42.65s-3.9,3.29-5.39,4.4a4.62,4.62,0,0,0-1.88,2.26,4.3,4.3,0,0,0,.23,3.59C68.86,54.85,72,55.77,74.25,55.66ZM126.1,36.84a66.51,66.51,0,1,0,66.51,66.51A66.58,66.58,0,0,0,126.1,36.84Zm-111-3.55,1-1.18L7.51,30.38,13,36.65l.62-1.14,1.31.75,1.37-2.16Zm2.12.72-2,3.32,1.24,2.09L19.71,34Zm3.13.22-3.46,5.52h2.35l2.22-3.56Zm170.43,69.12A64.63,64.63,0,1,1,126.1,38.72,64.71,64.71,0,0,1,190.73,103.35Zm-15.45,0a49.18,49.18,0,1,0-49.18,49.17A49.24,49.24,0,0,0,175.28,103.35ZM230.86,37.1l2.23,3.68,2.14-.1-3.13-5.27Zm-57.47,66.25a47.3,47.3,0,1,1-47.29-47.3A47.34,47.34,0,0,1,173.39,103.35Zm-4.07-.06a43.09,43.09,0,1,0-43.08,43.08A43.09,43.09,0,0,0,169.32,103.29Zm63.57-68.12,2.79,4.76L237,38.19l-1.69-3.07Z"/><path id="Circular_Text" data-name="Circular Text" class="cls-1" d="M114.56,155.84l3.45.65,1.08-2,1.46.27-5,8.76-1.15-.22-1.55-10,1.45.27Zm.16,1.34.55,4.34h0l2.08-3.86ZM108.4,162l-1.23-.47-.3-6.74-4.61,4.9-1.24-.46,3.34-8.93,1.31.49-2.08,5.57h0l3.41-3.61,1.09.41.21,5h0l2.09-5.57,1.31.49Zm-10.72-4.45-5.1-3,.69-1.18,3.89,2.26,1.37-2.35-3.32-1.93.64-1.11,3.32,1.93,1.41-2.43-3.89-2.26.68-1.17,5.1,3ZM90.2,153l-2.82-2.25A2.74,2.74,0,0,1,86.31,149a2.56,2.56,0,0,1,.55-2.16,2.65,2.65,0,0,1,3-.95l1-4.64,1.3,1-1.06,4.38,1.4,1.12,2.55-3.18,1.09.87Zm1.52-4.14-1.65-1.32a1.55,1.55,0,0,0-1.22-.37,1.48,1.48,0,0,0-1,.58,1.27,1.27,0,0,0-.31,1.13,1.52,1.52,0,0,0,.62.87l1.71,1.38ZM83.2,147l-1-1L89,139.25l1,1Zm-1.68-12.34a3.56,3.56,0,0,1,2.31-.38,3.35,3.35,0,0,1,2.58,2.93,3.16,3.16,0,0,1-.23,1.57l-.2.4a2.6,2.6,0,0,1-.32.42A16.87,16.87,0,0,1,84,141.05a17.67,17.67,0,0,1-1.79,1.32,2.77,2.77,0,0,1-.9.33,3.25,3.25,0,0,1-1.59-.1,3,3,0,0,1-1.56-1.07,3.12,3.12,0,0,1-.74-2.21,3.7,3.7,0,0,1,.89-2.09l.94,1.16a2.08,2.08,0,0,0-.38,1.1,1.88,1.88,0,0,0,.41,1.14,1.94,1.94,0,0,0,.69.53,1.72,1.72,0,0,0,.75.14,1.6,1.6,0,0,0,.85-.21A12.33,12.33,0,0,0,83.12,140a12,12,0,0,0,1.42-1.28,1.65,1.65,0,0,0,.4-.79,1.94,1.94,0,0,0-.36-1.55,1.91,1.91,0,0,0-2.13-.55ZM78.72,129l1.78,3,2.2-.47.75,1.27-9.92,1.94-.59-1L79.45,126l.75,1.27Zm-.9,1-2.91,3.27v0l4.27-1Zm-7.73-1.55-.48-1.23,4.83-6.33v0l-6.32,2.43L67.6,122l8.9-3.42.48,1.24-4.83,6.32v0l6.32-2.43L79,125Zm2.07-23,.25,3.5,2.18.55L74.7,111,65,108.36l-.09-1.17,9.26-4,.11,1.47Zm-1.25.5-4.06,1.64v0l4.26,1Zm1-4.27A4,4,0,0,0,73,99.16c.08-1.2-.32-1.84-1.18-1.92a1.23,1.23,0,0,0-1.37,1.1c-.08.37-.17.77-.27,1.21a3,3,0,0,1-1,1.74,2.54,2.54,0,0,1-1.81.5,2.66,2.66,0,0,1-2-1,3.06,3.06,0,0,1-.61-2.26A5.16,5.16,0,0,1,66,95.67l1.12.87a4.11,4.11,0,0,0-.9,2.22,1.72,1.72,0,0,0,.25,1.1,1.24,1.24,0,0,0,1,.54,1.08,1.08,0,0,0,.77-.25,1.76,1.76,0,0,0,.54-1c.06-.25.14-.59.23-1a2.82,2.82,0,0,1,1.1-1.84A2.77,2.77,0,0,1,72,95.85c1.82.18,2.66,1.33,2.53,3.43a5.17,5.17,0,0,1-1.57,3.42Zm.77-7.89a4,4,0,0,0,1.5-2.35c.25-1.17,0-1.86-.89-2.07a1.24,1.24,0,0,0-1.52.89l-.44,1.16A3.06,3.06,0,0,1,70,93a2.86,2.86,0,0,1-3.66-1,3.06,3.06,0,0,1-.27-2.32A5.11,5.11,0,0,1,67.73,87l1,1a4.14,4.14,0,0,0-1.22,2.07,1.69,1.69,0,0,0,.09,1.12,1.24,1.24,0,0,0,.91.68,1,1,0,0,0,.79-.14,1.76,1.76,0,0,0,.68-.86c.1-.24.22-.57.37-1a2.89,2.89,0,0,1,1.36-1.67,2.82,2.82,0,0,1,1.88-.2c1.76.44,2.43,1.7,2,3.77a5.16,5.16,0,0,1-2,3.15Zm-.54-8.19a18.25,18.25,0,0,1-2-.9,2.81,2.81,0,0,1-.74-.62,3.37,3.37,0,0,1-.7-1.43,3.26,3.26,0,0,1,2.82-4,2.26,2.26,0,0,1,1,0,20.37,20.37,0,0,1,2.1.73,19.15,19.15,0,0,1,2,.89,2.25,2.25,0,0,1,.74.63,3.12,3.12,0,0,1,.7,1.41,3.29,3.29,0,0,1-2.81,4l-.45,0a2.76,2.76,0,0,1-.52-.06A15.81,15.81,0,0,1,72.13,85.63Zm.51-1.3a12,12,0,0,0,1.81.6,1.71,1.71,0,0,0,.88,0,1.67,1.67,0,0,0,.66-.37,1.62,1.62,0,0,0,.51-.72,1.73,1.73,0,0,0,.12-.88,1.58,1.58,0,0,0-.24-.7,1.71,1.71,0,0,0-.62-.64A11.5,11.5,0,0,0,74,80.8a12.41,12.41,0,0,0-1.82-.62,1.82,1.82,0,0,0-.88.06,1.89,1.89,0,0,0-.66.34,2.14,2.14,0,0,0-.5.74,1.68,1.68,0,0,0-.12.86,1.7,1.7,0,0,0,.24.73,1.64,1.64,0,0,0,.61.62A10.74,10.74,0,0,0,72.64,84.33ZM80.58,72.9a3.55,3.55,0,0,1,1.18,2,3.33,3.33,0,0,1-3.35,3.81l-.45,0a2.86,2.86,0,0,1-.51-.14,18.61,18.61,0,0,1-2-1,16.65,16.65,0,0,1-1.88-1.2A2.54,2.54,0,0,1,73,75.6a3.21,3.21,0,0,1-.48-1.52,3.13,3.13,0,0,1,.44-1.84,3.06,3.06,0,0,1,1.79-1.48,3.61,3.61,0,0,1,2.27.08l-.74,1.28a2.18,2.18,0,0,0-1.16,0,1.82,1.82,0,0,0-1.16,1.63,1.7,1.7,0,0,0,.13.75,1.63,1.63,0,0,0,.51.71,12,12,0,0,0,1.61,1,11.83,11.83,0,0,0,1.7.87,1.72,1.72,0,0,0,.88.09,1.68,1.68,0,0,0,.71-.27,1.61,1.61,0,0,0,.61-.63,1.89,1.89,0,0,0-.25-2.18ZM76,67.67l.82-1.14,7.71,5.6-.82,1.14ZM87.3,65.53l-2.36,2.59,1.1,2-1,1.09-4.78-8.9.79-.87,9.3,3.95-1,1.09ZM86.08,65l-4-1.82v0L84.27,67Zm.29-7-1.92,1.65-.83-1,4.9-4.21.83,1-1.92,1.65,5.37,6.26-1.06.91Zm3.92-4.76,1.15-.81,5.47,7.81-1.15.8ZM96,55a16.29,16.29,0,0,1-1-2,2.81,2.81,0,0,1-.17-.95,3.32,3.32,0,0,1,.39-1.55,3.38,3.38,0,0,1,3.2-1.74,3.12,3.12,0,0,1,1.49.53,2.11,2.11,0,0,1,.72.64,20.74,20.74,0,0,1,1.13,1.91,16.42,16.42,0,0,1,1,2,2.2,2.2,0,0,1,.16,1,3.17,3.17,0,0,1-.36,1.53,3.32,3.32,0,0,1-1.35,1.36,3.24,3.24,0,0,1-1.86.39,3.19,3.19,0,0,1-1.5-.51l-.36-.27a2.85,2.85,0,0,1-.36-.39A17.53,17.53,0,0,1,96,55Zm1.23-.67a11.61,11.61,0,0,0,1,1.62,1.63,1.63,0,0,0,.71.54,1.78,1.78,0,0,0,.74.14,1.64,1.64,0,0,0,.85-.22,1.7,1.7,0,0,0,.66-.61,1.67,1.67,0,0,0,.26-.69,1.69,1.69,0,0,0-.06-.88,12.94,12.94,0,0,0-.83-1.72,12,12,0,0,0-1-1.64,1.78,1.78,0,0,0-.7-.52,1.74,1.74,0,0,0-.73-.16,2.07,2.07,0,0,0-.86.24,2,2,0,0,0-.65.58,1.83,1.83,0,0,0-.28.72,1.53,1.53,0,0,0,.07.86A11.2,11.2,0,0,0,97.23,54.34Zm5.32-8.07,1.24-.43,6.18,5h0l-2.22-6.4,1.32-.46,3.13,9-1.25.43-6.17-5h0l2.23,6.4-1.32.46Zm17.72.39a16.76,16.76,0,0,1,0-2.23,2.71,2.71,0,0,1,.27-.92,3.2,3.2,0,0,1,1-1.21,3,3,0,0,1,1.8-.61,3.13,3.13,0,0,1,2.95,1.59,2.08,2.08,0,0,1,.36.89,19.48,19.48,0,0,1,.18,2.22,20,20,0,0,1,0,2.21,2.27,2.27,0,0,1-.29.93,3.05,3.05,0,0,1-1,1.21,3.28,3.28,0,0,1-3.65.15,3.13,3.13,0,0,1-1.12-1.11l-.2-.41a2.3,2.3,0,0,1-.15-.5A17.07,17.07,0,0,1,120.27,46.66Zm1.4-.06a12,12,0,0,0,.18,1.91,1.74,1.74,0,0,0,.4.79,1.53,1.53,0,0,0,.6.45,1.68,1.68,0,0,0,.86.18,1.7,1.7,0,0,0,.86-.25,1.74,1.74,0,0,0,.54-.5,1.84,1.84,0,0,0,.34-.83,13.68,13.68,0,0,0,0-1.9,14.17,14.17,0,0,0-.17-1.92,1.72,1.72,0,0,0-.41-.77,1.69,1.69,0,0,0-.58-.47,2,2,0,0,0-.88-.17,1.8,1.8,0,0,0-.84.24,1.75,1.75,0,0,0-.56.52,1.66,1.66,0,0,0-.33.8A12.16,12.16,0,0,0,121.67,46.6Zm8.19-4.84,5.86.61-.13,1.35-4.48-.46-.29,2.8,3.82.4-.13,1.27-3.82-.4-.42,4.06-1.39-.15Zm16,3.11,3.11,1.22a5.56,5.56,0,0,1,.94.49,2.85,2.85,0,0,1,.75.9,2.23,2.23,0,0,1,.32,1.11,3.09,3.09,0,0,1-1.61,2.9,2.72,2.72,0,0,1-2.36.08l-2-.78-1.36,3.46-1.3-.52Zm-.34,4.65,1.93.76a1.46,1.46,0,0,0,1.28,0,1.62,1.62,0,0,0,.73-.84,2,2,0,0,0,.16-.81,1.31,1.31,0,0,0-.24-.6,1.71,1.71,0,0,0-.84-.61l-1.88-.75Zm6.21,2.94a15,15,0,0,1,1.21-1.87,2.54,2.54,0,0,1,.73-.63,3.1,3.1,0,0,1,1.52-.47,3,3,0,0,1,1.83.45,3.15,3.15,0,0,1,1.63,2.94,2.2,2.2,0,0,1-.18.95,18.84,18.84,0,0,1-1.05,2,18.3,18.3,0,0,1-1.19,1.86,2.37,2.37,0,0,1-.74.64,3.16,3.16,0,0,1-1.5.47,3.28,3.28,0,0,1-1.86-.45,3.21,3.21,0,0,1-1.29-1.39,3.12,3.12,0,0,1-.34-1.55c0-.16,0-.31.05-.45a2.3,2.3,0,0,1,.15-.51A16.69,16.69,0,0,1,151.7,52.46Zm1.21.71a11.23,11.23,0,0,0-.88,1.69,1.72,1.72,0,0,0-.09.88,1.66,1.66,0,0,0,.26.71,1.58,1.58,0,0,0,.62.61,1.71,1.71,0,0,0,.86.26,1.73,1.73,0,0,0,.73-.13,1.8,1.8,0,0,0,.73-.51,12.74,12.74,0,0,0,1-1.6,12.67,12.67,0,0,0,.89-1.7,1.82,1.82,0,0,0,.08-.88,1.58,1.58,0,0,0-.24-.7,1.91,1.91,0,0,0-.64-.62,1.88,1.88,0,0,0-.84-.25,1.67,1.67,0,0,0-.75.13,1.53,1.53,0,0,0-.71.5A11.52,11.52,0,0,0,152.91,53.17Zm9.53.36,1.09.88-5.13,6.37,3.51,2.82-.86,1.06L156.46,61Zm6.4,5.49,1,1-6.72,6.76-1-1Zm1.73,12.34a3.61,3.61,0,0,1-2.31.39,3.24,3.24,0,0,1-1.86-1.17,3.28,3.28,0,0,1-.5-3.33c.07-.14.13-.28.2-.4a2.13,2.13,0,0,1,.32-.42A15.27,15.27,0,0,1,168.07,65a17,17,0,0,1,1.78-1.33,2.59,2.59,0,0,1,.9-.34,3.37,3.37,0,0,1,1.59.09,3.2,3.2,0,0,1,1.57,1.07,3.11,3.11,0,0,1,.74,2.21,3.64,3.64,0,0,1-.88,2.09l-.94-1.15a2.07,2.07,0,0,0,.37-1.1,1.78,1.78,0,0,0-.41-1.14,1.94,1.94,0,0,0-.69-.53,1.72,1.72,0,0,0-.75-.14,1.61,1.61,0,0,0-.85.22A12.33,12.33,0,0,0,169,66a10.7,10.7,0,0,0-1.41,1.29,1.74,1.74,0,0,0-.4,1.54,1.59,1.59,0,0,0,.37.79,1.88,1.88,0,0,0,2.12.55Zm6.72-2.27,3,5-1.16.7L176.85,71l-2.34,1.41,2,3.29-1.09.66-2-3.29L171,74.51l2.32,3.85-1.16.7-3-5ZM184.53,84l.88,3.23a4.83,4.83,0,0,1,.18,1,2.72,2.72,0,0,1-.28,1.14,2.19,2.19,0,0,1-.69.92,3.08,3.08,0,0,1-3.29.45,2.7,2.7,0,0,1-1.48-1.85l-.56-2-3.59,1-.37-1.35Zm-3.93,2.52.55,2a1.43,1.43,0,0,0,.79,1,1.64,1.64,0,0,0,1.11.09,2,2,0,0,0,.74-.36,1.25,1.25,0,0,0,.33-.55,1.68,1.68,0,0,0,0-1l-.53-2ZM182,93.23a17.68,17.68,0,0,1,2.22-.16,2.84,2.84,0,0,1,.94.21,3.19,3.19,0,0,1,1.29.94,3.08,3.08,0,0,1,.73,1.74A3.14,3.14,0,0,1,185.78,99a2.53,2.53,0,0,1-.87.43c-.37.09-1.1.2-2.2.33a20.18,20.18,0,0,1-2.21.17,2.33,2.33,0,0,1-.95-.22,3.17,3.17,0,0,1-1.27-.91,3.26,3.26,0,0,1-.75-1.77A3.32,3.32,0,0,1,178.9,94l.39-.23a2.64,2.64,0,0,1,.49-.19A17.34,17.34,0,0,1,182,93.23Zm.15,1.39a11.2,11.2,0,0,0-1.88.32,1.56,1.56,0,0,0-.76.45,1.72,1.72,0,0,0-.41.63,1.79,1.79,0,0,0,.2,1.71,1.49,1.49,0,0,0,.53.5,1.72,1.72,0,0,0,.85.28,11.2,11.2,0,0,0,1.9-.12,13.23,13.23,0,0,0,1.9-.31,1.77,1.77,0,0,0,.74-.46,1.69,1.69,0,0,0,.43-.61,2,2,0,0,0,.1-.89,1.82,1.82,0,0,0-.29-.82,1.87,1.87,0,0,0-.56-.53,1.74,1.74,0,0,0-.83-.27A12.63,12.63,0,0,0,182.12,94.62Zm5.42,7.84,0,1.39-8.17-.28-.15,4.5-1.36,0,.2-5.9ZM181.46,110l5.93-2-.2,1.47-4.46,1.37,3.93,2.51-.2,1.47-5.18-3.52-3.89-.53.18-1.31Zm-.44,8.75-.9,3.16-1.87-.54a3.43,3.43,0,0,1-2-1.57,3.23,3.23,0,0,1-.3-2.52,3.31,3.31,0,0,1,2.44-2.31l.45-.06a2.31,2.31,0,0,1,.52,0,17.11,17.11,0,0,1,2.15.52,15.51,15.51,0,0,1,2.11.71,2.53,2.53,0,0,1,.79.54,3.35,3.35,0,0,1,.84,1.36,3.14,3.14,0,0,1,0,1.9,3,3,0,0,1-1.38,1.86,3.56,3.56,0,0,1-2.22.47l.4-1.42a2.1,2.1,0,0,0,1.12-.33,1.77,1.77,0,0,0,.7-1,1.9,1.9,0,0,0,0-.88,1.74,1.74,0,0,0-.31-.69,1.69,1.69,0,0,0-.66-.57,11.14,11.14,0,0,0-1.82-.62,10.68,10.68,0,0,0-1.86-.43,1.66,1.66,0,0,0-.88.12,1.7,1.7,0,0,0-.62.43,1.63,1.63,0,0,0-.44.76,1.78,1.78,0,0,0,.18,1.46,2,2,0,0,0,1.25.92l.48.14.52-1.81Zm2.07,7.4-1.52,3.27a2.75,2.75,0,0,1-1.36,1.44,2.57,2.57,0,0,1-2.23,0,2.64,2.64,0,0,1-1.64-2.73l-4.74.16.7-1.51h4.5l.76-1.63-3.7-1.71.59-1.27Zm-4.37-.5-.9,1.93a1.54,1.54,0,0,0-.07,1.27,1.49,1.49,0,0,0,.79.79,1.33,1.33,0,0,0,1.18,0,1.68,1.68,0,0,0,.7-.81l.92-2Zm-8.65,8.82,2-2.91-1.37-1.77.82-1.23,6.05,8.09-.65,1-9.79-2.52.82-1.22Zm1.29.38,4.21,1.21v0l-2.72-3.43Zm2,7.56-2.26,2.47a5.15,5.15,0,0,1-.79.7,2.75,2.75,0,0,1-1.11.38,2.21,2.21,0,0,1-1.15-.1,3.14,3.14,0,0,1-1.2-.71,3,3,0,0,1-.93-1.84,2.72,2.72,0,0,1,.78-2.23l1.44-1.57L165.38,137l.94-1Zm-4.22-2-1.41,1.53a1.47,1.47,0,0,0-.42,1.2,1.6,1.6,0,0,0,.52,1,1.9,1.9,0,0,0,.7.43,1.16,1.16,0,0,0,.64,0A1.69,1.69,0,0,0,170,144l1.37-1.49ZM159.56,148l2.86-2.28-2.58-3.26,1.09-.87,5.92,7.47-1.09.87-2.54-3.2L160.35,149l2.54,3.21-1.1.86-5.92-7.46,1.1-.87ZM159,154.9l-1.19.74-5-8.11,1.18-.73ZM152,150.76a3.94,3.94,0,0,0-2.77.27c-1.08.54-1.43,1.2-1.07,2a1.21,1.21,0,0,0,1.63.64l1.18-.37a3,3,0,0,1,2,0,2.59,2.59,0,0,1,1.34,1.31,2.68,2.68,0,0,1,.15,2.17,3.1,3.1,0,0,1-1.66,1.65,5.05,5.05,0,0,1-3.13.4l.19-1.4a4.21,4.21,0,0,0,2.38-.33,1.69,1.69,0,0,0,.83-.77,1.25,1.25,0,0,0,0-1.13,1.07,1.07,0,0,0-.6-.54,1.79,1.79,0,0,0-1.1,0l-1,.31a2.87,2.87,0,0,1-2.15,0,2.73,2.73,0,0,1-1.32-1.34c-.75-1.66-.17-3,1.72-3.9a5.14,5.14,0,0,1,3.74-.35Zm-6.79,9.34,2.41-.77.39,1.22-6.16,2-.39-1.22,2.41-.77-2.5-7.86,1.33-.42ZM138.07,156a4,4,0,0,0-2.75-.49c-1.18.22-1.7.76-1.57,1.62.11.7.58,1,1.4,1.06l1.24,0a3,3,0,0,1,1.93.59,2.53,2.53,0,0,1,.93,1.63,2.61,2.61,0,0,1-.45,2.13,3.06,3.06,0,0,1-2,1.13,5.08,5.08,0,0,1-3.12-.46l.57-1.3a4.07,4.07,0,0,0,2.38.33,1.66,1.66,0,0,0,1-.51,1.24,1.24,0,0,0,.28-1.1,1.06,1.06,0,0,0-.43-.68,1.74,1.74,0,0,0-1.06-.29l-1,0a2.82,2.82,0,0,1-2.05-.62,2.77,2.77,0,0,1-.91-1.65c-.26-1.8.64-2.9,2.72-3.28a5.21,5.21,0,0,1,3.7.68Z"/><path id="Left_Stars" data-name="Left Stars" class="cls-1" d="M31.24,68.32,32,66.66l-1-1.09s0,0,0,0l1.38.36.72-1.57c0-.07.06,0,.06,0l.53,1.91,1.69.44s0,0,0,0l-1.4.55.54,1.93s0,0,0,0L33,67.67l-1.71.67C31.21,68.36,31.23,68.35,31.24,68.32Zm1.55,8.78,1.72-.68L36,78s0,0,0,0S35.49,76,35.49,76l1.39-.55s0,0,0,0L35.2,75l-.54-1.91s0-.07,0,0l-.72,1.57-1.38-.36s0,0,0,0l1,1.09-.76,1.66S32.75,77.12,32.79,77.1ZM43.39,82l-1.68-.44-.54-1.91s0-.07-.05,0l-.72,1.57L39,80.86s0,0,0,0l1,1.09-.76,1.66s0,0,0,0L41,83s1.47,1.54,1.49,1.55,0,0,0,0L42,82.59,43.39,82S43.44,82,43.39,82Zm-2-8.51-1.68-.44-.54-1.91s0-.07,0,0-.73,1.57-.73,1.57L37,72.35s0,0,0,0l1,1.09-.76,1.66s0,0,0,0L39,74.47,40.52,76s0,0,0,0L40,74.08l1.4-.55S41.44,73.5,41.4,73.49ZM39,83.7l-1.68-.43-.54-1.92s0-.06-.05,0L36,82.93l-1.38-.36s0,0,0,0l1,1.08-.76,1.67s0,0,0,0l1.72-.68,1.49,1.56s0,0,0,0l-.54-1.93,1.4-.55S39,83.71,39,83.7Zm7.56-22.15-.76,1.66s0,0,0,0l1.71-.68L49,64.12s0,0,0,0l-.54-1.93,1.4-.55s0,0,0-.05l-1.69-.44-.53-1.91s0-.06-.05,0-.73,1.57-.73,1.57l-1.38-.35s0,0,0,0Zm1.67,5.88s0-.07-.06,0L47.44,69l-1.38-.36s0,0,0,0l1.05,1.09-.77,1.66s0,0,0,0l1.71-.67,1.49,1.56s0,0,0,0L49,70.37l1.4-.55s0,0,0,0l-1.69-.44Zm-2.3,4L44.23,71l-.53-1.91s0-.07-.06,0l-.72,1.57-1.38-.36s0,0,0,0l1,1.09s-.75,1.63-.77,1.66,0,0,0,0l1.71-.68L45,74s0,0,0,0L44.52,72l1.4-.55S46,71.43,45.92,71.43ZM59.26,84.29l-.53-1.91s0-.06-.06,0L58,84l-1.38-.35s0,0,0,0l1,1.09-.76,1.66s0,0,0,0l1.72-.68.28.3c.15-.57.31-1.14.47-1.7Zm2.8-11.78-.77,1.66s0,0,0,0L63,73.52l.22.22c.24-.52.49-1,.75-1.57l-.28-.07-.53-1.91s0-.07-.06,0l-.72,1.57L61,71.4s0,0,0,0ZM56.6,76.07c-.05,0-1.69-.43-1.69-.43l-.53-1.91s0-.07-.06,0L53.6,75.3l-1.38-.36s0,0,0,0l1,1.09-.76,1.66s0,0,0,0l1.72-.68,1.49,1.56s0,0,0,0l-.54-1.93,1.4-.55S56.64,76.08,56.6,76.07Zm2.18-3.91s0-.07-.06,0L58,73.73l-1.38-.36s0,0,0,0l1,1.09-.77,1.66s0,0,0,0l1.71-.68L60.11,77s0,0,0,0L59.6,75.1l1.4-.55s0,0,0,0-1.69-.43-1.69-.43ZM47.79,80l-1.68-.44-.54-1.91s0-.07,0,0l-.72,1.57-1.38-.36s0,0,0,0l1,1.09-.76,1.66s0,0,0,0L45.42,81s1.47,1.54,1.49,1.55,0,0,0,0L46.4,80.6l1.39-.55S47.84,80,47.79,80Zm8.29,6.48-1.69-.44-.53-1.91s0-.07-.06,0l-.72,1.57-1.38-.36s0,0,0,0l1.05,1.09L52,88.12s0,0,0,0l1.71-.67L55.19,89s0,0,0,0l-.54-1.94,1.4-.55S56.12,86.5,56.08,86.49Zm.05-20-.76,1.66s0,0,0,0l1.72-.68L58.59,69s0,0,0,0l-.53-1.93,1.39-.55s.05,0,0,0L57.79,66l-.54-1.91s0-.07,0,0l-.72,1.57-1.38-.36s0,0,0,0Zm-6.21,9.35-.72,1.57L47.82,77s0,0,0,0l1,1.09-.76,1.66s0,0,0,0l1.72-.67,1.49,1.56s0,0,0,0l-.54-1.94,1.39-.55s.05,0,0,0l-1.68-.44L50,75.79S50,75.72,49.92,75.79ZM51.61,68l-.76,1.66s0,0,0,0L52.58,69l1.49,1.56s0,0,0,0l-.54-1.93L55,68s0,0,0,0l-1.68-.44-.53-1.91s0-.07-.06,0L52,67.22l-1.38-.36s0,0,0,0ZM41.7,63.28l-.76,1.66s0,0,0,0l1.72-.67,1.49,1.56s0,0,0,0l-.54-1.94,1.4-.55s0,0,0,0l-1.68-.44L42.82,61s0-.07,0,0l-.72,1.57-1.38-.36s0,0,0,0Zm3.76,29.88s0,0,0,0l-.54-1.93,1.4-.55s0,0,0,0l-1.68-.44-.54-1.91s0-.07,0,0l-.72,1.57L42,89.49s0,0,0,0l1,1.09-.76,1.66s0,0,0,0L44,91.6Zm1.06,4.9L46,96.15s0-.07-.06,0l-.72,1.57-1.38-.36s0,0,0,0l1,1.09-.77,1.66s0,0,0,0l1.71-.67S47.3,101,47.32,101s0,0,0,0l-.54-1.94,1.4-.55s0,0,0,0Zm3.83-6.94-.54-1.93,1.4-.55s0,0,0,0l-1.69-.44L49,86.25s0-.07-.05,0-.73,1.57-.73,1.57l-1.38-.36s0,0,0,0l1,1.09s-.75,1.63-.77,1.66,0,0,0,0l1.71-.67,1.5,1.55S50.36,91.15,50.35,91.12ZM38,62.42s0-.07-.06,0L37.2,64l-1.38-.36s0,0,0,0l1,1.09-.76,1.66s0,0,0,0l1.72-.67,1.49,1.56s0,0,0,0l-.54-1.94s1.37-.53,1.39-.55.05,0,0,0l-1.68-.44Zm16.61,39.83-.54-1.91s0-.07,0,0l-.72,1.57-1.38-.36s0,0,0,0l1,1.09-.76,1.66s0,0,0,0l1.72-.67,1.49,1.56s0,0,0,0l-.54-1.94,1.4-.55s0,0,0,0Zm-1.94-3.12-.54-1.93,1.4-.55s0,0,0,0l-1.69-.44-.53-1.91s0-.07-.06,0l-.72,1.57-1.38-.36s0,0,0,0l1.05,1.09s-.75,1.63-.77,1.66,0,0,0,0l1.71-.67,1.5,1.55S52.66,99.16,52.65,99.13Zm4.65-4.87-.18-.05-.53-1.91s0-.07-.05,0-.73,1.57-.73,1.57l-1.38-.36s0,0,0,0l1,1.09s-.75,1.63-.77,1.66,0,0,0,0l1.71-.67.63.65C57.13,95.6,57.22,94.93,57.3,94.26ZM34.92,94l-.53-1.91s0-.07-.06,0l-.72,1.57-1.38-.36s0,0,0,0l1.05,1.09L32.5,96.1s0,0,0,0l1.71-.68L35.72,97s0,0,0,0l-.54-1.93,1.4-.55s0,0,0,0Zm4.87-1.83-.51-1.91s0-.07-.06,0l-.74,1.56-1.37-.37s0,0,0,0l1,1.1-.78,1.65s0,0,0,0l1.72-.66,1.48,1.58s0,0,0,0l-.52-1.94,1.41-.54s0,0,0,0ZM25.06,54s0,0,0,0l1.72-.68,1.49,1.56s0,0,0,0L27.77,53l1.39-.55s.05,0,0,0L27.48,52l-.54-1.91s0-.07-.05,0l-.72,1.57-1.38-.36s0,0,0,0l1,1.09Zm5.73,4.14L30,59.84s0,0,0,0l1.72-.67,1.49,1.56s0,0,0,0l-.54-1.94,1.39-.55s0,0,0,0l-1.68-.44-.54-1.91s0-.07-.05,0l-.72,1.57-1.38-.36s0,0,0,0Zm4.71-1.63s-.75,1.63-.77,1.66,0,0,0,0l1.71-.67L38,59.12s0,0,0,0l-.54-1.94,1.4-.55s0,0,0,0l-1.69-.44-.53-1.91s0-.07-.06,0l-.72,1.57-1.38-.36s0,0,0,0ZM33.73,88.19l-.54-1.94,1.4-.55s0,0,0,0l-1.68-.44-.54-1.91s0-.07,0,0-.73,1.57-.73,1.57l-1.37-.36s0,0,0,0l1,1.09-.76,1.66s0,0,0,0l1.72-.67s1.47,1.54,1.49,1.55S33.74,88.22,33.73,88.19ZM28.42,62.56s0,0,0,0l-.54-1.94,1.4-.54s0,0,0,0l-1.69-.44-.53-1.91s0-.07-.06,0l-.72,1.57-1.38-.36s0,0,0,0L26,60s-.75,1.64-.77,1.66,0,0,0,0L26.92,61Zm2.77,17.36L30.66,78l1.39-.55s0,0,0,0L30.37,77,29.83,75s0-.07,0,0l-.72,1.57-1.38-.36s0,0,0,0l1,1.09L28,79s0,0,0,0l1.72-.67,1.49,1.56S31.2,80,31.19,79.92ZM29.62,71.3s0,0,0,0l-.54-1.94,1.4-.55s0,0,0,0l-1.69-.44-.53-1.91s0-.07-.06,0L27.5,68l-1.38-.36s0,0,0,0l1.05,1.09s-.75,1.63-.77,1.66,0,0,0,0l1.71-.67S29.6,71.29,29.62,71.3Z"/><path id="Right_Stars" data-name="Right Stars" class="cls-1" d="M211.62,75.57l.72,1.68s0,0,0,0l-1.69-.72-1.54,1.52s0,0,0,0l.59-1.92-1.38-.59s0,0,0,0l1.7-.4.58-1.89s0-.07.06,0l.68,1.59,1.38-.32s0,0,0,0Zm1.06-16.27-.59,1.92s0,0,0,0l1.53-1.52,1.7.72s0,0,0,0l-.71-1.68,1.07-1.06s0,0,0,0l-1.39.32-.68-1.59c0-.06,0,0,0,0l-.59,1.9-1.69.39c-.05,0,0,0,0,0Zm4.66,1.76L216.75,63s0,0,0,0l1.53-1.52,1.7.72c.05,0,0,0,0,0l-.71-1.68,1.07-1.06s0,0,0,0l-1.39.32-.68-1.59c0-.07,0,0,0,0L217.65,60l-1.69.4c-.05,0,0,0,0,0Zm-9.11,11.26s0,0,0,0l-1.38.32L206.16,71c0-.06-.06,0-.06,0l-.58,1.9-1.7.39s0,0,0,0l1.38.59-.59,1.92s0,0,0,0l1.54-1.52,1.69.72s0,0,0,0l-.72-1.68S208.2,72.36,208.23,72.32ZM201.49,64l-.59,1.91s0,0,0,0l1.53-1.51,1.7.72s0,0,0,0l-.72-1.68,1.08-1.06s0,0,0,0l-1.39.32s-.65-1.53-.68-1.59,0,0,0,0L201.81,63s-1.65.39-1.7.39,0,0,0,.05Zm4.8,1.85-.59,1.92s0,0,0,0l1.53-1.52L209,67s0,0,0,0l-.72-1.69s1.05-1,1.08-1.06,0,0,0,0l-1.39.33s-.65-1.53-.68-1.59-.06,0-.06,0l-.58,1.9s-1.65.39-1.7.39,0,0,0,0Zm4.81,1.59-.59,1.92s0,0,0,0l1.54-1.52,1.7.73s0,0,0,0l-.72-1.69s1-1,1.07-1.06,0,0,0,0l-1.39.33s-.65-1.53-.68-1.59-.06,0-.06,0l-.58,1.9-1.7.39s0,0,0,.05Zm-10.37,4.74-.59,1.91s0,0,0,0l1.53-1.51,1.7.72c.05,0,0,0,0,0s-.72-1.68-.72-1.68l1.07-1.06s0,0,0,0l-1.39.32-.68-1.59c0-.07-.05,0-.05,0L201,71.16l-1.69.4s0,0,0,0Zm16.43,4.39s0,0,0,0l-1.39.33-.68-1.6c0-.06-.06,0-.06,0l-.58,1.9-1.7.39s0,0,0,0l1.38.58-.59,1.92s0,0,0,0l1.53-1.52,1.7.73s0,0,0,0l-.72-1.68S217.13,76.62,217.16,76.58Zm-2.33,8.2s0,0,0,0l-1.39.32-.68-1.59c0-.06-.06,0-.06,0l-.58,1.9-1.7.39s0,0,0,0l1.38.58-.59,1.92s0,0,0,0l1.53-1.52s1.65.71,1.7.72,0,0,0,0l-.72-1.68S214.8,84.82,214.83,84.78Zm4.1-16.91s0,0,0,0l-1.39.32-.68-1.59c0-.07,0,0,0,0l-.59,1.9-1.69.39c-.05,0,0,0,0,0l1.39.59-.59,1.92s0,0,0,0l1.53-1.52,1.7.72c.05,0,0,0,0,0l-.71-1.68Zm-12.8,13s0,0,0,0l-1.39.32-.68-1.59c0-.06-.05,0-.05,0l-.59,1.9-1.7.39s0,0,0,0l1.39.59s-.58,1.89-.6,1.92,0,0,0,0l1.53-1.52,1.7.72s0,0,0,0l-.72-1.68ZM210.47,83s0,0,0,0l-1.38.32-.68-1.59c0-.07-.06,0-.06,0l-.58,1.9-1.7.39s0,0,0,0l1.38.59-.59,1.92s0,0,0,0L208.41,85l1.7.72s0,0,0,0L209.4,84Zm-8.69-4.1s0,0,0,0l-1.39.32s-.65-1.53-.68-1.59,0,0,0,0l-.59,1.89-1.69.39c-.05,0,0,0,0,0l1.39.59-.59,1.91s0,0,0,0l1.53-1.51,1.7.72c.05,0,0,0,0,0l-.71-1.68S201.75,78.9,201.78,78.86Zm-4.11,8.25s0,0,0,0l-1.38.32-.68-1.59c0-.07-.06,0-.06,0l-.58,1.9-.86.2.15.65.39.17s-.09.31-.21.67c0,.26.09.51.14.77l1-1,1.69.72s0,0,0,0l-.72-1.68Zm-.24-10.43s0,0,0,0L196,77l-.68-1.59c0-.06-.06,0-.06,0l-.58,1.9-1.7.39s0,0,0,0l1.38.58-.59,1.92s0,0,0,0l1.53-1.52,1.7.73s0,0,0,0l-.72-1.68S197.4,76.72,197.43,76.68Zm20.35,10.48s-.65-1.53-.68-1.59-.06,0-.06,0l-.58,1.89-1.7.39s0,0,0,.05l1.38.58-.59,1.92s0,0,0,0l1.54-1.51,1.7.72s0,0,0,0l-.72-1.69s1-1,1.07-1.06,0,0,0,0Zm2.76-8.2-.68-1.59c0-.07-.06,0-.06,0l-.58,1.89-1.7.4s0,0,0,0l1.38.59-.59,1.92s0,0,0,0l1.54-1.52,1.7.72s0,0,0,0l-.72-1.68,1.07-1.06s0,0,0,0Zm-9.83,15-.7-1.58c0-.07-.06,0-.06,0l-.56,1.9-1.69.41s0,0,0,0l1.38.57-.57,1.93s0,0,0,0l1.52-1.53,1.7.7c.05,0,0,0,0,0s-.74-1.68-.74-1.68l1.06-1.07s0,0,0,0Zm4.81,2s-.64-1.53-.68-1.59-.05,0-.05,0l-.59,1.89-1.69.39s0,0,0,.05l1.38.59-.59,1.91s0,0,0,0l1.54-1.51,1.69.72s0,0,0,0l-.72-1.68,1.07-1.06s0,0,0,0ZM196.26,70.28l-.59,1.92s0,0,0,0l1.54-1.52,1.69.72c.05,0,0,0,0,0l-.72-1.68,1.07-1.06s0,0,0,0l-1.39.32-.67-1.59c0-.06-.06,0-.06,0l-.59,1.9-1.69.39s0,0,0,0Zm27.5-8.61-.68-1.59c0-.07-.06,0-.06,0l-.58,1.9-1.7.39s0,0,0,0l1.38.59-.59,1.92s0,0,0,0l1.54-1.52,1.7.72s0,0,0,0l-.72-1.68,1.07-1.06s0,0,0,0Zm-1.44,8.71-.68-1.59c0-.07,0,0,0,0l-.59,1.9-1.69.39c-.05,0,0,0,0,0l1.39.59-.59,1.92s0,0,0,0l1.53-1.52,1.7.72c.05,0,0,0,0,0s-.72-1.68-.72-1.68l1.07-1.06s0,0,0,0Zm3.16-16.64-1.38.32-.68-1.59c0-.07-.06,0-.06,0l-.58,1.9-1.7.39s0,0,0,0l1.38.59-.59,1.92s0,0,0,0l1.54-1.52,1.7.72s0,0,0,0l-.72-1.68,1.07-1.06S225.48,53.74,225.48,53.74Zm-34.7,23.52L191,77l1.7.72s0,0,0,0L192,76.05s1-1,1.07-1.06,0,0,0,0l-1.39.32s-.65-1.53-.68-1.59-.05,0-.05,0l-.59,1.89-.24.06C190.35,76.19,190.57,76.73,190.78,77.26Zm5,26.3c0,.71,0,1.41-.05,2.1l.92.4c.05,0,0,0,0,0l-.72-1.68L197,103.3s0,0,0,0Zm-4-34.93-.59,1.92s0,0,0,0L192.75,69l1.7.72s0,0,0,0l-.72-1.68L194.82,67s0,0,0,0l-1.39.32-.68-1.59c0-.07-.06,0-.06,0l-.58,1.9-1.7.39s0,0,0,0Zm10.35,23.46-.72-1.68,1.07-1.06s0,0,0,0l-1.38.32-.68-1.59c0-.07-.06,0-.06,0L199.77,90l-1.7.4s0,0,0,0l1.38.59-.59,1.91s0,0,0,0l1.54-1.51,1.69.72S202.14,92.12,202.13,92.09Zm-3.56,5.5L197.89,96c0-.06,0,0,0,0l-.59,1.9-1.64.38v.08l1.32.56-.59,1.92s0,0,0,0l1.53-1.52,1.7.72c.05,0,0,0,0,0s-.72-1.68-.72-1.68L200,97.29s0,0,0,0Zm5.25,2s-.65-1.53-.68-1.59,0,0,0,0l-.59,1.9s-1.65.39-1.7.39,0,0,0,.05l1.39.58s-.58,1.89-.6,1.92,0,0,0,0l1.53-1.51,1.7.72s0,0,0,0l-.71-1.69s1-1,1.07-1.06,0,0,0,0Zm2.08-7.82s-.65-1.53-.68-1.59-.06,0-.06,0l-.58,1.9-1.7.39s0,0,0,0l1.38.58-.59,1.92s0,0,0,0l1.54-1.52,1.69.73c.05,0,0,0,0,0l-.72-1.69s1-1,1.07-1.06,0,0,0,0Z"/><path id="Top_Arch" data-name="Top Arch" class="cls-3" d="M96.51,92.57l4.86,4.75.66-.67L97.48,92.2c.85-.31,3.11-1.08,6.45-1.92l3,4,.75-.57L104.93,90c9.06-2.2,25-4.64,42.45-.91L144.69,95l.85.39,2.78-6a81.69,81.69,0,0,1,8.43,2.39l-4.48,4.12.64.69,4.85-4.46h0L158,76.42l-.29-.12c-.28-.12-27.92-11.64-62-.61l-.35.11Zm.85-1.33-1-14.77C128,66.34,154,75.86,157,77.05l-.19,13.69C128.57,81.1,101.67,89.73,97.36,91.24ZM96.8,81.1v-.19l.26,0a2,2,0,0,0,1.19-.29l.38-.22A.8.8,0,0,1,99,80.1a.52.52,0,0,1,.5,0h.36a1.48,1.48,0,0,0,1.07-.46.61.61,0,0,0,.07-.14.7.7,0,0,1,.3-.37.6.6,0,0,1,.71,0l.06.07a.36.36,0,0,0,.31.18,1.09,1.09,0,0,0,.84-.61l.15-.32a.87.87,0,0,1,.52-.28.49.49,0,0,1,.48.21s.11.11.61.16a2,2,0,0,0,1.24-.36.49.49,0,0,0,.19-.24.17.17,0,0,0,0-.07.41.41,0,0,1,.19-.35c.18-.1.44-.16.74.19a1.39,1.39,0,0,0,1.23.16,1.77,1.77,0,0,0,1.13-.73.24.24,0,0,0,0-.08.77.77,0,0,1,.14-.24.63.63,0,0,1,.5-.19.25.25,0,0,1,.18.12l.12.2a.74.74,0,0,0,.64.49,1.67,1.67,0,0,0,1.18-.44,1.1,1.1,0,0,0,.3-.79.66.66,0,0,1,.23-.44.51.51,0,0,1,.39-.14.38.38,0,0,1,.33.24l0,.13a1.31,1.31,0,0,0,.26.46,1.08,1.08,0,0,0,.86.24,1.19,1.19,0,0,0,.84-.37.71.71,0,0,1,.46-.36.55.55,0,0,1,.51.16,1.74,1.74,0,0,0,1.27.36,1.41,1.41,0,0,0,.87-.35l.19-.18a.72.72,0,0,1,.78-.37h0l.1.18s0,.09.08.14a.51.51,0,0,0,.18.26,1.6,1.6,0,0,0,1.4-.13l.37-.24c.08-.22.15-.31.25-.3s.15.11.15.36c0,0,0,.2.54.42a1.18,1.18,0,0,0,.9-.09,1,1,0,0,0,.27-.35c.18-.29.4-.66.82-.6a.57.57,0,0,1,.43.31.85.85,0,0,0,.5.35c.37.08.56.14.66.17s.18-.23.35-.47c.06-.08.23-.11,1,.32a1.94,1.94,0,0,0,1.23.15l.4-.08a.5.5,0,0,1,.39-.21.69.69,0,0,1,.51.2l.38.14a1.23,1.23,0,0,0,1.09-.07A.41.41,0,0,0,132,76a.45.45,0,0,1,.32-.27.77.77,0,0,1,.72.31l.06.09a.7.7,0,0,0,.32.29.76.76,0,0,0,.86-.3l.15-.27a.64.64,0,0,1,.52-.1.78.78,0,0,1,.5.39,1.57,1.57,0,0,0,.61.38,1.92,1.92,0,0,0,1.26.09c.07,0,.17-.09.19-.18a.13.13,0,0,1,0-.06.26.26,0,0,1,.19-.28c.18,0,.44,0,.74.45a2,2,0,0,0,1.24.61,1.17,1.17,0,0,0,1.12-.34l0-.06a.46.46,0,0,1,.13-.19.53.53,0,0,1,.51,0,.49.49,0,0,1,.17.19,1.34,1.34,0,0,1,.12.24,1.27,1.27,0,0,0,.64.72,1.38,1.38,0,0,0,1.17,0,.81.81,0,0,0,.3-.68.4.4,0,0,1,.22-.36.42.42,0,0,1,.38,0,.59.59,0,0,1,.33.36c0,.05,0,.1.05.14a1.75,1.75,0,0,0,.25.56,1.59,1.59,0,0,0,.85.54h0c.62.14.78-.07.78-.07a.44.44,0,0,1,.45-.2.81.81,0,0,1,.51.34,2.44,2.44,0,0,0,1.23.81,1.16,1.16,0,0,0,.85,0l.18-.11a.53.53,0,0,1,.76-.09l0,0,.1.21c0,.06,0,.11.07.17a.83.83,0,0,0,.18.33,1.61,1.61,0,0,0,1.34.35l.36-.11c.08-.19.15-.25.24-.21s.14.16.14.41c0,0,0,.21.52.61a1.16,1.16,0,0,0,.86.23c.09,0,.17-.13.26-.25s.35-.48.69-.37l.1,0a1,1,0,0,1,.4.46,1.94,1.94,0,0,0,.64.71v.19a2.27,2.27,0,0,1-.8-.87.6.6,0,0,0-.27-.33c-.26-.13-.42,0-.61.3s-.19.27-.32.3A1.3,1.3,0,0,1,154,81a1.19,1.19,0,0,1-.43-.23C153,80.28,153,80,153,80s0-.09,0-.12a.69.69,0,0,1,0,.1s0,0-.42.15a1.81,1.81,0,0,1-1.56-.43,1.14,1.14,0,0,1-.23-.41l-.06-.15-.07-.14a.36.36,0,0,0-.51.09l0,0-.2.12a1.26,1.26,0,0,1-1,.07,2.82,2.82,0,0,1-1.36-.9.55.55,0,0,0-.35-.25.3.3,0,0,0-.31.15s-.21.29-.94.12h0a1.76,1.76,0,0,1-1-.62,2.3,2.3,0,0,1-.29-.62c0-.05,0-.09,0-.14a.33.33,0,0,0-.19-.22.29.29,0,0,0-.24,0A.3.3,0,0,0,144,77a.93.93,0,0,1-.36.79,1.54,1.54,0,0,1-1.34,0,1.38,1.38,0,0,1-.75-.83,2.39,2.39,0,0,0-.12-.22.16.16,0,0,0-.08-.1.34.34,0,0,0-.31,0,.38.38,0,0,0-.09.14l0,.07a1.34,1.34,0,0,1-1.28.41,2.13,2.13,0,0,1-1.4-.7c-.18-.28-.36-.41-.52-.37s-.07.06-.08.15,0,.06,0,.09a.4.4,0,0,1-.28.27,2.13,2.13,0,0,1-1.42-.09c-.56-.26-.68-.43-.7-.46a.58.58,0,0,0-.37-.29.42.42,0,0,0-.36.06l-.11.22a.91.91,0,0,1-1.08.37.74.74,0,0,1-.42-.37l-.06-.08a.58.58,0,0,0-.52-.22c-.12,0-.15.09-.2.18a.6.6,0,0,1-.09.15,1.43,1.43,0,0,1-1.3.1l-.44-.16a.57.57,0,0,0-.37-.17.35.35,0,0,0-.27.17l0,0-.48.1a2.18,2.18,0,0,1-1.37-.18,2.89,2.89,0,0,0-.77-.34c-.43.57-.43.57-.51.53l-.06,0-.62-.15a1.15,1.15,0,0,1-.63-.44.37.37,0,0,0-.29-.23c-.27,0-.43.19-.63.52a1,1,0,0,1-.34.42,1.39,1.39,0,0,1-1.08.09c-.61-.27-.64-.53-.64-.56v-.12a.83.83,0,0,0,0,.12s0,0-.44.31a1.77,1.77,0,0,1-1.62.13.77.77,0,0,1-.24-.32.52.52,0,0,0-.06-.13l-.07-.12a.52.52,0,0,0-.53.27l0,0-.21.19a1.72,1.72,0,0,1-1,.41,1.86,1.86,0,0,1-1.4-.4.34.34,0,0,0-.36-.12.46.46,0,0,0-.31.26,1.3,1.3,0,0,1-1,.46h0a1.06,1.06,0,0,1-1.29-.79l-.05-.12a.21.21,0,0,0-.19-.15.33.33,0,0,0-.24.08.45.45,0,0,0-.15.3,1.32,1.32,0,0,1-.37.92,1.91,1.91,0,0,1-1.35.51.89.89,0,0,1-.76-.56,1.08,1.08,0,0,0-.11-.18.13.13,0,0,0-.09-.07.39.39,0,0,0-.3.12.35.35,0,0,0-.09.17.3.3,0,0,1,0,.08,1.93,1.93,0,0,1-1.28.87,1.52,1.52,0,0,1-1.39-.2c-.19-.22-.36-.27-.52-.18s-.07.08-.08.18,0,.06,0,.09a.64.64,0,0,1-.28.37,2.3,2.3,0,0,1-1.4.41c-.56,0-.68-.18-.69-.21a.42.42,0,0,0-.36-.16.64.64,0,0,0-.36.19l-.11.27a1.37,1.37,0,0,1-1.06.76.52.52,0,0,1-.41-.22l-.06-.07a.45.45,0,0,0-.51,0,.51.51,0,0,0-.19.25,1.07,1.07,0,0,1-.09.19,1.81,1.81,0,0,1-1.26.57h-.43a.38.38,0,0,0-.36,0,.56.56,0,0,0-.27.26v0l-.46.27a2.16,2.16,0,0,1-1.32.31Zm.08,8.07.61,1a.23.23,0,0,0,0-.14.18.18,0,0,1,0-.19.27.27,0,0,1,.08-.07l0,0s0,0,0-.08a23.86,23.86,0,0,1,.49-2.34c.06-.24.12-.49.19-.73l-.05,2,.11-.13,0,.12c.06.18.16.38.25.58l.22.49a.25.25,0,0,0,0-.17.17.17,0,0,1,0-.18l.09-.08,0,0a.11.11,0,0,0,0-.08c.13-.76.29-1.55.5-2.34l.19-.73c0,.69,0,1.37-.05,2L100,88l0,.13c.06.18.16.39.25.59a4.69,4.69,0,0,1,.21.46.15.15,0,0,0,0-.13.2.2,0,0,1,0-.19l.09-.07,0,0s0,0,0-.08a22.05,22.05,0,0,1,.5-2.33c.06-.24.12-.48.19-.72,0,.68,0,1.36,0,2l.11-.13,0,.12c.07.18.16.39.26.6s.13.3.19.44a.12.12,0,0,0,0-.1.18.18,0,0,1,0-.19l.09-.07,0,0a.08.08,0,0,0,0-.08,22.82,22.82,0,0,1,.5-2.31c.06-.25.13-.49.19-.73,0,.68,0,1.36,0,2l.11-.13,0,.13c.07.18.17.39.26.6s.15.32.21.47a.2.2,0,0,0,0-.13.17.17,0,0,1,0-.19l.08-.06,0,0a.07.07,0,0,0,0-.07,21.18,21.18,0,0,1,.5-2.31c.06-.24.13-.48.19-.72l0,2,.1-.13,0,.12c.06.19.16.4.25.61s.15.32.21.47a.17.17,0,0,0,0-.12.2.2,0,0,1,0-.19l.09-.07,0,0s0,0,0-.08c.11-.64.4-2.13.62-3,0-.41.07-.41.14-.43h0c.1,0,.1.07.1.14h0v0l-.06.23c-.05.5-.12,1.49-.15,2l.11-.12,0,.13c.07.18.16.4.26.61s.15.33.21.48a.2.2,0,0,0,0-.13.17.17,0,0,1,0-.19l.09-.06,0,0a.07.07,0,0,0,0-.07c0-.25.08-.51.11-.79a12.16,12.16,0,0,1,.28-1.6c.06-.24.13-.48.19-.72v.7a6.34,6.34,0,0,0,0,.86c0,.2,0,.4,0,.6h0l.11-.13,0,.13c.07.18.17.4.26.61s.15.33.21.48a.17.17,0,0,0,0-.12.19.19,0,0,1,0-.19l.09-.06,0,0s0,0,0-.08a22.3,22.3,0,0,1,.5-2.28l.19-.71c0,.68,0,1.36,0,2l.11-.12,0,.13c.07.18.16.4.26.62s.15.33.21.49a.23.23,0,0,0,0-.14.16.16,0,0,1,0-.18l.09-.06,0,0a.12.12,0,0,0,0-.08l.06-.4c.13-.78.3-1.84.48-2.48.06-.24.13-.48.19-.71v.7c0,.26,0,.67,0,1.08s0,.62,0,.87l.11-.12,0,.13c.07.19.16.41.26.62l.2.47a.17.17,0,0,0,0-.1.16.16,0,0,1,0-.18.47.47,0,0,1,.09-.06l0,0a.08.08,0,0,0,0-.08c.13-.74.3-1.5.51-2.26l.19-.7c0,.68,0,1.36,0,2l.11-.12,0,.12c.07.19.17.42.26.63s.15.34.21.5a.21.21,0,0,0,0-.13.16.16,0,0,1,0-.18.24.24,0,0,1,.08-.06l0,0s0,0,0-.07a20.4,20.4,0,0,1,.51-2.26c.06-.23.13-.46.19-.7,0,.68,0,1.36,0,2l.11-.12,0,.13a6.06,6.06,0,0,0,.26.63c.07.17.15.34.21.5a.19.19,0,0,0,0-.13.16.16,0,0,1,0-.18l.09,0,0,0s0,0,0-.07a21,21,0,0,1,.5-2.24l.2-.7c0,.68,0,1.36,0,2l.11-.12,0,.13a6.16,6.16,0,0,0,.26.64c.07.17.15.34.21.5a.15.15,0,0,0,0-.13.18.18,0,0,1,.05-.18l.09,0,0,0s0,0,0-.07a18.48,18.48,0,0,1,.51-2.24l.19-.69c0,.68,0,1.36,0,2l.1-.11,0,.13c.07.19.17.42.26.64s.16.37.22.53a.17.17,0,0,0,0-.15.15.15,0,0,1,0-.18l.09,0,0,0s0,0,0-.07a19.9,19.9,0,0,1,.51-2.23c.06-.23.13-.46.19-.69,0,.68,0,1.36,0,2l.11-.11,0,.13c.07.2.17.43.26.65s.15.35.22.51a.19.19,0,0,0,0-.13.16.16,0,0,1,0-.18l.09-.05,0,0s0,0,0-.06a17.37,17.37,0,0,1,.51-2.22l.19-.69c0,.68,0,1.36,0,2l.1-.11,0,.14c.07.19.17.42.26.65s.14.33.2.49a.13.13,0,0,0,0-.1.16.16,0,0,1,0-.18l.09,0,0,0s0,0,0-.07a22.66,22.66,0,0,1,.51-2.21l.2-.68c0,.68,0,1.35,0,2l.11-.11,0,.14c.07.19.17.43.27.65s.15.36.21.52a.19.19,0,0,0,0-.13.15.15,0,0,1,0-.17l.09,0,0,0s0,0,0-.07a21.83,21.83,0,0,1,.51-2.2l.2-.68c0,.68,0,1.36,0,2l.11-.11,0,.13a6.39,6.39,0,0,0,.26.66c.07.18.15.36.21.52a.13.13,0,0,0,0-.12.17.17,0,0,1,.05-.18l.09,0h0s0,0,0-.07a17.78,17.78,0,0,1,.48-2c.07-.23.14-.46.2-.68v.69c0,.27,0,.5,0,.73V84h0l.11-.1,0,.13c.07.2.17.44.27.67s.15.36.21.52a.17.17,0,0,0,0-.12.16.16,0,0,1,0-.18l.09,0,0,0s0,0,0-.06a21.65,21.65,0,0,1,.51-2.19l.2-.67c0,.68,0,1.35,0,2l.11-.1,0,.13a6.5,6.5,0,0,0,.26.67c.07.18.15.36.21.53a.14.14,0,0,0,0-.12.15.15,0,0,1,0-.18l.08,0,0,0s0,0,0-.06l0-.17a23,23,0,0,1,.48-2.28c.06-.22.13-.45.2-.67,0,.23,0,.46,0,.69s0,.58,0,.9,0,.49,0,.71h0l.11-.1,0,.14c.07.2.17.44.26.67s.15.36.21.53a.13.13,0,0,0,0-.12.15.15,0,0,1,0-.18l.09,0h0s0,0,0-.07a16.5,16.5,0,0,1,.51-2.16c.06-.22.13-.45.2-.67,0,.68,0,1.35,0,2h0l.11-.1,0,.14c.07.2.17.44.26.68s.15.34.21.51a.17.17,0,0,0,0-.1.14.14,0,0,1,0-.17l.08,0,0,0s0,0,0-.06a13.14,13.14,0,0,1,.4-1.56l.12-.4.2-.66v.69c0,.28,0,.5,0,.72s0,.27,0,.42l.1-.1.05.14c.07.2.17.44.26.68s.15.37.21.54a.14.14,0,0,0,0-.12.15.15,0,0,1,0-.18l.09,0h0s0,0,.05-.06a16,16,0,0,1,.51-2.15c.06-.22.13-.44.19-.66,0,.68,0,1.35,0,2h0l.11-.1,0,.14c.07.21.17.45.26.69s.15.37.21.54a.13.13,0,0,0,0-.12.14.14,0,0,1,0-.17l.08,0h0a.07.07,0,0,0,0-.07c.13-.7.39-1.78.61-2.51.06-.22.13-.44.19-.66,0,.23,0,.46,0,.69s0,.64-.07,1,0,.49,0,.71l.1-.09.05.14a6.74,6.74,0,0,0,.26.69c.07.19.15.38.21.55a.17.17,0,0,0,0-.12.14.14,0,0,1,0-.17l.08,0h0s0,0,0-.06a17.24,17.24,0,0,1,.49-2c.07-.22.14-.44.2-.66,0,.23,0,.46,0,.7s0,.51,0,.75v.49h0l.11-.09.05.14a6.74,6.74,0,0,0,.26.69c.08.2.16.4.22.58a.15.15,0,0,0,0-.14s0-.12.05-.17l.09,0h0s0,0,0-.06a15.57,15.57,0,0,1,.51-2.12l.19-.65-.05,2h0l.1-.08,0,.14c.07.2.17.45.26.7s.15.38.21.55a.12.12,0,0,0,0-.12.14.14,0,0,1,.05-.17s.06,0,.08,0h0s0,0,0-.06c0-.2.07-.43.11-.66a12.45,12.45,0,0,1,.35-1.76l.19-.65V83c0,.27,0,.62,0,1s0,.47,0,.69h0l.11-.08,0,.14c.07.21.17.46.26.7s.15.36.21.53a.14.14,0,0,0,0-.09c0-.05,0-.13.05-.17a.11.11,0,0,1,.08,0h0s0,0,0-.06a23.28,23.28,0,0,1,.58-2.43l.2-.64c0,.23,0,.46,0,.69s0,.63,0,1,0,.46-.05.67l.11-.08,0,.14c.07.21.17.47.26.71s.15.39.21.56a.12.12,0,0,0,0-.12.12.12,0,0,1,0-.16.13.13,0,0,1,.08,0h0a.05.05,0,0,0,0-.06,14.89,14.89,0,0,1,.47-2l.19-.64v.69c0,.27,0,.52,0,.77v.51h0l.1-.09,0,.14c.07.22.16.47.26.72s.15.38.21.56a.16.16,0,0,0,0-.12.12.12,0,0,1,.05-.16l.09,0h0s0,0,0-.06l.06-.39a19.4,19.4,0,0,1,.41-1.94c.07-.22.13-.43.2-.64,0,.23,0,.46,0,.69v1.58h0l.11-.08,0,.14c.07.22.17.47.26.72s.15.39.21.57a.12.12,0,0,0,0-.12.12.12,0,0,1,0-.16s.05,0,.08,0h0s0,0,0-.06a20.15,20.15,0,0,1,.5-2.07c.07-.21.13-.42.2-.64,0,.68,0,1.35-.05,2h0l.11-.08,0,.14c.07.22.17.47.26.73s.15.38.21.56a.14.14,0,0,0,0-.11s0-.13,0-.17l.08,0h0s0,0,0-.06a21.23,21.23,0,0,1,.57-2.35l.19-.63v.69c0,.27,0,.62-.06,1s0,.45,0,.65l.1-.07,0,.14c.07.22.17.48.26.73s.15.4.21.58a.16.16,0,0,0,0-.12s0-.13,0-.17l.09,0h0s0,0,0-.05a15.86,15.86,0,0,1,.5-2.06c.06-.21.13-.42.19-.63,0,.68,0,1.35,0,2h0l.1-.07,0,.14c.06.22.16.48.25.74s.14.37.2.55a.11.11,0,0,0,0-.1.14.14,0,0,1,.05-.16l.09,0h0s0,0,0-.06a18,18,0,0,1,.49-2c.07-.2.13-.41.2-.62,0,.67,0,1.35,0,2h0l.11-.07,0,.14c.07.22.17.49.26.74s.15.4.21.59a.16.16,0,0,0,0-.12c0-.05,0-.13.05-.17l.08,0h0s0,0,0-.06l0-.2a18.74,18.74,0,0,1,.46-2.14c.06-.21.13-.41.19-.62,0,.23,0,.46,0,.69s0,.61,0,1,0,.47,0,.68h0l.1-.07,0,.15c.06.21.16.48.25.74s.15.4.21.58a.13.13,0,0,0,0-.11s0-.13,0-.16a.12.12,0,0,1,.08,0h0s0,0,0,0a15.57,15.57,0,0,1,.5-2l.19-.61c0,.67,0,1.35-.05,2l.11-.07,0,.14c.07.22.16.49.26.75l.2.59a.11.11,0,0,0,0-.11c0-.05,0-.13.05-.17h.12s0,0,0,0a23.32,23.32,0,0,1,.54-2.42l.19-.61v.69c0,.26,0,.63,0,1s0,.5,0,.72l.1-.07,0,.15c.06.22.16.49.25.75s.15.43.21.62a.12.12,0,0,0,.05-.13s0-.13,0-.16l.09,0h0s0,0,0-.05a18.61,18.61,0,0,1,.49-2c.07-.2.13-.41.2-.61,0,.67,0,1.35,0,2h0l.11-.07,0,.15c.06.22.16.49.25.76s.15.41.21.6a.16.16,0,0,0,0-.12s0-.13,0-.16H155s0,0,0,0l0-.23a20.85,20.85,0,0,1,.46-2.18c.06-.21.13-.41.19-.61,0,.23,0,.46,0,.69s0,.64,0,1,0,.51,0,.73l.11-.06,0,.15c.06.22.16.5.25.76l.2.57a.22.22,0,0,0,0-.09s0-.13,0-.16h.12s0,0,0-.06l.12-.56v.75s0,0-.07,0h-.08v0a.27.27,0,0,1-.17.32l0-.06h-.08c-.07-.22-.16-.49-.26-.76l-.2-.6a.21.21,0,0,0,0,.06l-.18.32v-.42c0-.26,0-.63,0-1v-.15c-.1.47-.19,1-.27,1.39l0,.24a.15.15,0,0,1-.13.14H155a.26.26,0,0,1-.16.33l0-.07h-.1c-.07-.23-.16-.5-.26-.76l-.2-.6a.21.21,0,0,0,0,.06l-.18.32c0-.42,0-.84,0-1.27-.11.44-.21.89-.29,1.34a.15.15,0,0,1-.13.14h-.08v0a.28.28,0,0,1-.17.33l-.05-.08h-.12c-.07-.22-.16-.49-.26-.75s-.14-.41-.2-.6l-.05.06-.18.33v-.42c0-.26,0-.63,0-1a.49.49,0,0,0,0-.12c-.15.66-.28,1.35-.33,1.61a.16.16,0,0,1-.13.15h-.08a.26.26,0,0,1-.17.33l0-.06h-.11c-.06-.22-.16-.49-.25-.75s-.15-.41-.21-.59a.21.21,0,0,0,0,.06l-.18.34,0-1.28c-.12.44-.22.89-.3,1.34a.16.16,0,0,1-.13.15h-.08a.3.3,0,0,1-.17.34l0-.07h-.1c-.07-.22-.16-.48-.26-.74s-.14-.4-.2-.59l-.05.06-.18.34v-.42c0-.27,0-.61,0-1v-.13c-.1.45-.19.94-.26,1.37l0,.21a.17.17,0,0,1-.13.15h-.08v0a.28.28,0,0,1-.17.33l0-.06h-.1c-.07-.21-.17-.48-.26-.73s-.15-.41-.21-.59a.21.21,0,0,0,0,.06c-.06.12-.13.23-.19.34l0-1.27c-.11.44-.22.9-.3,1.35a.16.16,0,0,1-.13.16h-.08v0a.3.3,0,0,1-.17.34l0-.06h-.09c-.06-.22-.16-.48-.26-.74l-.21-.58a.43.43,0,0,0,0,.07l-.18.33,0-1.27c-.12.45-.22.91-.3,1.36a.18.18,0,0,1-.14.16h-.08a.3.3,0,0,1-.17.35l-.05-.06h-.1c-.07-.21-.16-.47-.26-.73s-.15-.39-.21-.58a.25.25,0,0,0,0,.07l-.19.34v-.41c0-.27,0-.61.05-.94a.28.28,0,0,0,0-.09c-.13.51-.26,1.07-.34,1.54a.19.19,0,0,1-.13.16h-.09v0a.3.3,0,0,1-.18.34l0,0h-.1c-.06-.21-.16-.47-.26-.72s-.15-.39-.21-.58a.43.43,0,0,1,0,.07l-.19.35,0-1.28q-.18.67-.3,1.38a.19.19,0,0,1-.13.16h-.08a.31.31,0,0,1-.18.35l0-.06h-.11c-.07-.21-.16-.47-.26-.72s-.15-.39-.21-.57a.16.16,0,0,0,0,.07l-.19.34V85.6c0-.27,0-.61,0-.94v-.13c-.09.4-.16.81-.22,1.19,0,.14,0,.27-.07.4a.19.19,0,0,1-.14.16l0,0h0v0a.31.31,0,0,1-.17.35l0-.06h-.1c-.07-.21-.17-.46-.26-.71s-.15-.39-.21-.57l-.05.07-.18.35V84.58s0,0,0-.08c-.1.44-.19.88-.28,1.37a.19.19,0,0,1-.13.17h-.08a.33.33,0,0,1-.18.36l0-.06h-.11c-.07-.21-.16-.46-.26-.7s-.15-.39-.21-.57l-.05.07-.18.35v-.41c0-.27,0-.62.05-1v-.09c-.14.54-.27,1.12-.35,1.58a.2.2,0,0,1-.13.17h-.08a.33.33,0,0,1-.18.36l0,0h-.09c-.06-.2-.16-.46-.26-.7s-.15-.38-.21-.56a.16.16,0,0,0,0,.07l-.19.36v-.42c0-.27,0-.62,0-1v-.18c-.07.33-.12.68-.17,1s-.07.45-.11.65a.19.19,0,0,1-.13.18h-.08a.35.35,0,0,1-.18.37l0-.06-.11,0c-.07-.21-.17-.46-.26-.7s-.15-.38-.21-.56l0,.07-.19.36,0-1.28c-.12.47-.22.94-.3,1.4a.2.2,0,0,1-.14.18l-.05,0h0v0a.33.33,0,0,1-.17.36l-.06-.06-.12,0c-.07-.2-.17-.45-.26-.69s-.16-.38-.22-.56a.3.3,0,0,0,0,.08l-.19.36v-.42c0-.26,0-.51,0-.75v0c-.12.45-.21.88-.3,1.35a.18.18,0,0,1-.13.17l-.06,0h0v0a.33.33,0,0,1-.18.36l0,0-.11,0c-.07-.2-.17-.45-.26-.69l-.22-.55,0,.07-.19.38v-.43c0-.27,0-.64.07-1V83.4c-.14.57-.28,1.17-.35,1.62a.24.24,0,0,1-.14.18l-.05,0h0a.37.37,0,0,1-.18.38l0-.06-.11,0a6.62,6.62,0,0,0-.26-.68c-.07-.19-.15-.38-.21-.55l-.05.07c-.06.13-.12.25-.19.37l0-1.27q-.18.7-.3,1.41a.23.23,0,0,1-.14.18l-.05,0h0v0a.36.36,0,0,1-.17.37l-.05,0-.11,0c-.07-.2-.17-.44-.26-.68s-.15-.37-.22-.54l0,.07-.19.38v-.42c0-.26,0-.48,0-.69h0a8.93,8.93,0,0,0-.31,1.26.23.23,0,0,1-.14.18l-.05,0h0v0a.37.37,0,0,1-.18.38l0,0-.09,0c-.06-.2-.16-.44-.26-.68s-.15-.37-.21-.54a.35.35,0,0,0-.05.08c-.06.12-.12.25-.19.37,0-.42,0-.85,0-1.27a14.42,14.42,0,0,0-.31,1.42A.23.23,0,0,1,128,85l0,0h0v0a.38.38,0,0,1-.17.38l0-.06-.11,0c-.07-.2-.17-.44-.26-.67s-.15-.37-.22-.54c0,0,0,.05,0,.08l-.19.38v-.42c0-.28,0-.63,0-1v-.09c-.11.49-.2,1-.27,1.47l0,.17a.24.24,0,0,1-.14.19l-.05,0h0v0a.37.37,0,0,1-.18.38l0,0-.11,0c-.07-.2-.17-.44-.26-.67s-.16-.36-.22-.53a.3.3,0,0,0,0,.08l-.19.39,0-1.29c-.12.48-.22,1-.31,1.44a.22.22,0,0,1-.13.19l-.06,0h0v0a.37.37,0,0,1-.18.38l0,0-.1,0c-.07-.2-.17-.44-.27-.67s-.15-.36-.21-.52a.25.25,0,0,0,0,.07c-.07.13-.13.26-.19.4V83.55c-.11.43-.2.84-.29,1.33a.24.24,0,0,1-.13.19l-.06,0h0v0a.37.37,0,0,1-.18.38l0,0-.1,0c-.07-.2-.17-.43-.27-.66s-.15-.36-.21-.52a.25.25,0,0,0,0,.07l-.19.4,0-1.29c-.12.48-.22,1-.31,1.45a.22.22,0,0,1-.13.19l-.06,0h0v0a.39.39,0,0,1-.18.39l0,0-.1,0c-.07-.2-.17-.43-.27-.66s-.15-.35-.21-.52l0,.08-.19.4,0-1.29c-.12.49-.22,1-.31,1.46a.22.22,0,0,1-.13.19l-.06,0h0v0a.39.39,0,0,1-.18.39l0,0-.09,0c-.07-.19-.17-.43-.26-.65s-.15-.35-.21-.52l0,.08-.18.41,0-1.29c-.12.48-.22,1-.3,1.46a.24.24,0,0,1-.14.19l0,0,0,0h0a.41.41,0,0,1-.17.4l0,0-.11,0a6.16,6.16,0,0,0-.26-.64c-.07-.18-.15-.35-.21-.52a.56.56,0,0,1,0,.08l-.18.41,0-1.29c-.12.49-.23,1-.31,1.46a.28.28,0,0,1-.13.21l-.06,0,0,0h0a.41.41,0,0,1-.18.4l0,0-.13,0c-.07-.19-.17-.42-.26-.64s-.15-.35-.21-.51l-.05.08-.18.41,0-1.29c-.13.5-.23,1-.31,1.47a.28.28,0,0,1-.13.21l-.06,0h0a.41.41,0,0,1-.17.41l0,0-.1,0c-.07-.19-.17-.42-.26-.64s-.16-.34-.22-.5a.2.2,0,0,0,0,.08c-.06.13-.13.27-.19.41l0-1.29c-.12.49-.22,1-.3,1.47a.3.3,0,0,1-.14.21l0,0,0,0h0a.44.44,0,0,1-.17.41l0,0-.1,0c-.07-.19-.17-.42-.26-.63s-.15-.34-.22-.5l0,.08-.18.41,0-1.29c-.13.5-.23,1-.31,1.48a.28.28,0,0,1-.13.21l-.06,0,0,0h0a.43.43,0,0,1-.18.41l0,0-.11,0c-.07-.19-.17-.41-.26-.63s-.15-.34-.21-.5a.56.56,0,0,1,0,.08l-.18.42,0-1.29c-.12.5-.22,1-.31,1.49a.26.26,0,0,1-.13.21l0,0,0,0h0a.47.47,0,0,1-.17.42l0,0-.09,0c-.07-.19-.17-.41-.26-.63a5.16,5.16,0,0,1-.21-.49.56.56,0,0,1,0,.08l-.18.43v-.43c0-.28,0-.71,0-1.15v-.15c-.09.51-.18,1.06-.26,1.52l-.06.4a.33.33,0,0,1-.14.22l-.05,0,0,0h0a.47.47,0,0,1-.17.42l-.05,0-.1,0c-.07-.19-.17-.41-.26-.62s-.15-.33-.21-.49a.56.56,0,0,1,0,.08l-.18.43,0-1.29c-.12.5-.22,1-.3,1.49a.35.35,0,0,1-.13.22l-.06,0,0,0h0a.44.44,0,0,1-.17.42l0,0-.1,0c-.07-.18-.17-.4-.26-.61s-.15-.33-.21-.49a.36.36,0,0,0,0,.09l-.19.43v-.43a6.26,6.26,0,0,0,0-.85v-.17c-.05.29-.08.58-.12.86s-.07.54-.11.8a.27.27,0,0,1-.13.21l-.05,0,0,0h0a.47.47,0,0,1-.17.42l-.05,0-.1.06c-.07-.19-.17-.4-.26-.61s-.15-.33-.21-.48a.2.2,0,0,0,0,.08c-.07.14-.13.29-.19.43v-.42c0-.2,0-.66.07-1.15-.15.68-.28,1.39-.35,1.79a.34.34,0,0,1-.13.22l-.05,0,0,0v0a.49.49,0,0,1-.17.42l-.05,0-.1.06c-.07-.19-.16-.4-.26-.61l-.21-.48,0,.09-.18.44,0-1.3c-.12.51-.22,1-.3,1.51a.34.34,0,0,1-.13.23l-.06,0,0,0v0a.49.49,0,0,1-.17.42l0,0-.1,0c-.07-.18-.17-.39-.26-.6s-.15-.32-.21-.47a.59.59,0,0,1,0,.08l-.18.44,0-1.29c-.12.51-.22,1-.3,1.52a.34.34,0,0,1-.13.22l0,0,0,0h0A.52.52,0,0,1,102,89l0,0-.09,0c-.06-.18-.16-.39-.25-.59s-.15-.33-.21-.48a.36.36,0,0,0,0,.09l-.18.44,0-1.29c-.12.51-.22,1-.3,1.52a.36.36,0,0,1-.13.23l-.06,0,0,0h0a.52.52,0,0,1-.17.44l0,0-.1.06c-.06-.18-.16-.39-.25-.59s-.15-.32-.21-.47a.36.36,0,0,0,0,.09l-.18.45,0-1.3q-.18.78-.3,1.53a.36.36,0,0,1-.13.23l-.05,0,0,0h0a.52.52,0,0,1-.17.44l-.05,0-.12.08c-.07-.18-.16-.39-.25-.59s-.15-.32-.21-.46a.3.3,0,0,0,0,.08l-.18.45,0-1.29q-.18.78-.3,1.53a.3.3,0,0,1-.13.23l-.05,0,0,0v0a.53.53,0,0,1-.17.44l0,0M96.8,79.48a1.79,1.79,0,0,0,.92-.85,1,1,0,0,1,.41-.46c.41-.2.61.09.78.33s.18.23.26.25a1.19,1.19,0,0,0,.86-.22c.5-.41.52-.61.52-.61,0-.25,0-.37.14-.41s.17,0,.25.21l.35.11a1.62,1.62,0,0,0,1.35-.35.77.77,0,0,0,.18-.33c0-.05,0-.11.07-.17l.1-.21,0,0a.53.53,0,0,1,.75.09L104,77a1.13,1.13,0,0,0,.84.05,2.52,2.52,0,0,0,1.24-.8.76.76,0,0,1,.5-.34.45.45,0,0,1,.46.2s.16.21.79.07h0a1.53,1.53,0,0,0,.85-.54,1.8,1.8,0,0,0,.25-.55s0-.1,0-.14a.53.53,0,0,1,.33-.36.42.42,0,0,1,.38,0,.39.39,0,0,1,.22.36.82.82,0,0,0,.3.68,1.34,1.34,0,0,0,1.17,0,1.21,1.21,0,0,0,.64-.72l.12-.23a.38.38,0,0,1,.17-.19.54.54,0,0,1,.51,0,.49.49,0,0,1,.13.2l0,.06a1.17,1.17,0,0,0,1.12.34,1.85,1.85,0,0,0,1.24-.6c.3-.45.57-.5.74-.45s.19.18.2.28a.13.13,0,0,0,0,.06c0,.09.11.15.19.18a1.89,1.89,0,0,0,1.25-.09c.51-.23.62-.37.62-.38a.8.8,0,0,1,.49-.38.67.67,0,0,1,.53.1l0,0,.13.24a.74.74,0,0,0,.85.3.61.61,0,0,0,.32-.29l.06-.09a.81.81,0,0,1,.73-.3.43.43,0,0,1,.31.27.41.41,0,0,0,.07.11,1.23,1.23,0,0,0,1.09.07l.38-.13a.69.69,0,0,1,.52-.21.55.55,0,0,1,.39.21l.4.09a2,2,0,0,0,1.23-.15c.78-.43.94-.39,1-.32s.29.39.36.47.28-.08.65-.16a.9.9,0,0,0,.51-.36.55.55,0,0,1,.42-.3c.43-.06.65.31.83.61a1.21,1.21,0,0,0,.26.35,1.25,1.25,0,0,0,.91.09c.51-.23.53-.42.53-.43,0-.24,0-.35.15-.35s.18.08.26.3l.37.24a1.58,1.58,0,0,0,1.39.14.61.61,0,0,0,.19-.26,1,1,0,0,1,.07-.15l.11-.17h0a.71.71,0,0,1,.78.37l.2.18a1.45,1.45,0,0,0,.86.36A1.75,1.75,0,0,0,137,74.2a.57.57,0,0,1,.52-.16.73.73,0,0,1,.46.36s.17.28.8.37h0a1.07,1.07,0,0,0,.86-.23,1.31,1.31,0,0,0,.26-.46A.5.5,0,0,1,140,74a.34.34,0,0,1,.33-.24.52.52,0,0,1,.39.14.68.68,0,0,1,.22.44,1.14,1.14,0,0,0,.3.79,1.72,1.72,0,0,0,1.18.45.75.75,0,0,0,.64-.49l.12-.2a.3.3,0,0,1,.18-.12.62.62,0,0,1,.5.19.71.71,0,0,1,.14.25.64.64,0,0,1,0,.07,1.8,1.8,0,0,0,1.13.74,1.36,1.36,0,0,0,1.23-.16c.3-.35.56-.29.73-.19a.41.41,0,0,1,.2.35.17.17,0,0,0,0,.07.45.45,0,0,0,.19.24,2.15,2.15,0,0,0,1.24.37c.5-.05.61-.16.61-.16a.49.49,0,0,1,.48-.21.87.87,0,0,1,.52.28l0,0,.12.29a1.08,1.08,0,0,0,.84.6.35.35,0,0,0,.31-.17l.06-.07a.6.6,0,0,1,.71,0,.73.73,0,0,1,.31.37,1,1,0,0,0,.07.15,1.51,1.51,0,0,0,1.06.45h.37a.55.55,0,0,1,.5,0,.8.8,0,0,1,.37.36l.39.22a1.91,1.91,0,0,0,1.16.29v.18a2.24,2.24,0,0,1-1.21-.32l-.45-.27,0,0a.57.57,0,0,0-.26-.27.4.4,0,0,0-.37,0h-.42a1.73,1.73,0,0,1-1.26-.57,1.18,1.18,0,0,1-.1-.19.46.46,0,0,0-.19-.25.43.43,0,0,0-.51,0l0,.06a.51.51,0,0,1-.41.22,1.34,1.34,0,0,1-1.06-.76l-.12-.27a.68.68,0,0,0-.35-.19.42.42,0,0,0-.36.16s-.14.16-.69.21a2.36,2.36,0,0,1-1.4-.41.68.68,0,0,1-.28-.38.28.28,0,0,1,0-.09c0-.1,0-.14-.08-.18s-.33,0-.52.18a1.56,1.56,0,0,1-1.39.2,2,2,0,0,1-1.28-.88.59.59,0,0,1,0-.08.35.35,0,0,0-.09-.17.39.39,0,0,0-.3-.12.15.15,0,0,0-.09.07,1.08,1.08,0,0,0-.11.18.9.9,0,0,1-.76.56,1.89,1.89,0,0,1-1.35-.52,1.26,1.26,0,0,1-.36-.92.52.52,0,0,0-.16-.3.27.27,0,0,0-.23-.08.2.2,0,0,0-.2.15l0,.12a1.06,1.06,0,0,1-1.29.79h0c-.75-.1-1-.45-1-.46a.47.47,0,0,0-.32-.26.37.37,0,0,0-.36.11,1.89,1.89,0,0,1-1.4.41h-.06a1.64,1.64,0,0,1-.94-.41l-.23-.23a.5.5,0,0,0-.53-.27l-.07.12-.06.12a.72.72,0,0,1-.24.33,1.79,1.79,0,0,1-1.61-.14c-.43-.27-.43-.28-.44-.31l0-.12a.41.41,0,0,0,0,.12s0,.29-.64.56a1.35,1.35,0,0,1-1.08-.1,1.25,1.25,0,0,1-.34-.42c-.19-.33-.35-.55-.63-.52s-.21.11-.29.23a1,1,0,0,1-.62.43l-.64.16,0,0c-.08,0-.08,0-.5-.53a2.21,2.21,0,0,0-.78.33,2.1,2.1,0,0,1-1.37.17l-.47-.1,0,0a.38.38,0,0,0-.27-.16.53.53,0,0,0-.38.16v0l-.43.15a1.38,1.38,0,0,1-1.29-.12.61.61,0,0,1-.1-.14c0-.1-.08-.16-.2-.19a.59.59,0,0,0-.52.23.56.56,0,0,0,0,.08.87.87,0,0,1-.42.37.92.92,0,0,1-1.08-.38l-.12-.22a.5.5,0,0,0-.36-.07.64.64,0,0,0-.36.29s-.14.21-.71.46a2.1,2.1,0,0,1-1.41.09.41.41,0,0,1-.29-.28.25.25,0,0,0,0-.08c0-.09,0-.13-.08-.15s-.33.08-.52.36a2,2,0,0,1-1.39.7,1.35,1.35,0,0,1-1.29-.41l0-.08a.31.31,0,0,0-.09-.14.35.35,0,0,0-.3,0,.21.21,0,0,0-.09.1,1.63,1.63,0,0,0-.11.23,1.5,1.5,0,0,1-.76.83,1.57,1.57,0,0,1-1.34,0,.93.93,0,0,1-.36-.79.29.29,0,0,0-.15-.25.3.3,0,0,0-.23,0,.33.33,0,0,0-.2.23l0,.13a2.3,2.3,0,0,1-.29.62,1.78,1.78,0,0,1-1,.63h0c-.74.17-.94-.11-1-.12a.3.3,0,0,0-.31-.15.54.54,0,0,0-.35.24,2.74,2.74,0,0,1-1.37.9,1.25,1.25,0,0,1-1-.07l-.23-.14c-.07-.16-.29-.2-.5-.09l-.07.14-.06.15a1.12,1.12,0,0,1-.24.41,1.77,1.77,0,0,1-1.55.42c-.41-.12-.41-.12-.42-.15a.46.46,0,0,0,0-.1v.11s0,.31-.61.79a1.26,1.26,0,0,1-.43.22,1.22,1.22,0,0,1-.61.06c-.13,0-.22-.16-.32-.3s-.35-.43-.6-.3a.57.57,0,0,0-.28.33,2.12,2.12,0,0,1-1.08,1ZM156.64,85v.17a7.2,7.2,0,0,1-1.83-.62,6.65,6.65,0,0,0-1.24-.46c-.71-.22-1.39-.41-1.66-1a4.35,4.35,0,0,0-.53-.87,10.58,10.58,0,0,1-.79-1.26,1.64,1.64,0,0,0-.64-.64,1.84,1.84,0,0,0-1.69.19,5.76,5.76,0,0,0-.79.54,7.08,7.08,0,0,1-.81.56,1.47,1.47,0,0,1-1.14,0,2.94,2.94,0,0,0-.94-.15l-.56,0c-.68,0-1.71.09-2,.09a4,4,0,0,1-2.24-.74,6.93,6.93,0,0,1-1.38-1.38l-.13-.17a2,2,0,0,0-1.41-1,2.17,2.17,0,0,0-1.91,1,2.36,2.36,0,0,1-2.29.92,2.73,2.73,0,0,1-1.45-.94l0,0a2,2,0,0,0-1.54-.74,1.8,1.8,0,0,0-1.33.78,2,2,0,0,1-1.51.85h0a2.79,2.79,0,0,1-1.14-.31l-1.74-.73a2.07,2.07,0,0,0-.68-.19,1.62,1.62,0,0,0-1.21.51c-.09.09-.16.18-.24.27a2.74,2.74,0,0,1-.65.61,3.63,3.63,0,0,1-2.83.15,4.29,4.29,0,0,1-1.7-1.24l0-.06a1.05,1.05,0,0,0-1-.35,1.33,1.33,0,0,0-.47.26c-.6.46-1.2.91-1.79,1.38a5.37,5.37,0,0,1-2.95,1.37,3.57,3.57,0,0,1-1.13-.18,5.23,5.23,0,0,0-.73-.15,3.74,3.74,0,0,0-2.75,1l0,.05a1.36,1.36,0,0,1-.48.35,1,1,0,0,1-.57,0,3.65,3.65,0,0,1-1.9-1l0,0a.63.63,0,0,0-.32-.23,1.77,1.77,0,0,0-1.45.79,3.44,3.44,0,0,0-.26.64,2.74,2.74,0,0,1-.29.7,4,4,0,0,1-2,1.42,3.17,3.17,0,0,1-.76.17l0-.18a3.83,3.83,0,0,0,2.57-1.46,2.56,2.56,0,0,0,.27-.65,2.83,2.83,0,0,1,.29-.69,2,2,0,0,1,1.68-.91.68.68,0,0,1,.38.26l0,0a3.49,3.49,0,0,0,1.84,1,.8.8,0,0,0,.46,0,1,1,0,0,0,.38-.29l0,0a4,4,0,0,1,2.93-1.08,4.14,4.14,0,0,1,.75.16,3.76,3.76,0,0,0,1.08.17,5.17,5.17,0,0,0,2.81-1.32q.9-.7,1.8-1.38a1.5,1.5,0,0,1,.53-.3,1.22,1.22,0,0,1,1.22.39l0,.06a4.44,4.44,0,0,0,1.64,1.21,3.51,3.51,0,0,0,2.66-.14,2.52,2.52,0,0,0,.6-.57c.08-.09.16-.19.25-.28a1.81,1.81,0,0,1,1.36-.57,2.67,2.67,0,0,1,.74.2l1.74.74a2.64,2.64,0,0,0,1.07.29,1.77,1.77,0,0,0,1.36-.78,2,2,0,0,1,1.47-.85,2.26,2.26,0,0,1,1.68.8l0,0a2.43,2.43,0,0,0,1.34.88,2.18,2.18,0,0,0,2.11-.86,2.32,2.32,0,0,1,2-1.11,2.22,2.22,0,0,1,1.56,1.07c.05.06.09.12.14.17a6.24,6.24,0,0,0,1.33,1.34,3.84,3.84,0,0,0,2.1.7c.32,0,1.35-.07,2-.09l.57,0a3.16,3.16,0,0,1,1,.17,1.32,1.32,0,0,0,1,0,5.66,5.66,0,0,0,.79-.55,6.21,6.21,0,0,1,.81-.54A2,2,0,0,1,150,80.2a2,2,0,0,1,.75.74,9.75,9.75,0,0,0,.78,1.24,5.18,5.18,0,0,1,.55.91c.22.46.82.63,1.5.84a7.31,7.31,0,0,1,1.27.48A7.32,7.32,0,0,0,156.64,85Z"/><path id="Bottom_Arch" data-name="Bottom Arch" class="cls-3" d="M156.82,111.66,152,106.91l-.66.67,4.55,4.45c-.85.31-3.11,1.07-6.45,1.92l-3-4-.75.57,2.79,3.66c-9.06,2.19-25,4.64-42.45.91l2.7-5.85-.86-.4-2.78,6a79.35,79.35,0,0,1-8.43-2.4l4.48-4.11-.64-.69-4.85,4.46h0l-.22,15.64.29.12c.28.12,27.92,11.64,62,.61l.35-.11ZM156,113l1,14.77c-31.7,10.13-57.67.61-60.69-.58l.19-13.69C124.76,123.13,151.66,114.5,156,113Zm-.33,4.33c-.07-.09-.13-.16-.27-.13s-.42.32-.6.71a1.36,1.36,0,0,1-.93.85.94.94,0,0,1-.43,0c-.59-.11-.61-.37-.61-.4s0-.08,0-.11,0,.07,0,.12,0,0-.42.42-1.19.67-1.55.48a.48.48,0,0,1-.24-.27l-.06-.12-.07-.1a.59.59,0,0,0-.5.37l0,0-.2.23a1.83,1.83,0,0,1-1,.57,1.55,1.55,0,0,1-1.37-.21.37.37,0,0,0-.35-.08.6.6,0,0,0-.31.3,1.37,1.37,0,0,1-.94.55h0a1.13,1.13,0,0,1-1-.2,1.25,1.25,0,0,1-.28-.5l-.05-.12a.19.19,0,0,0-.19-.14.36.36,0,0,0-.24.09.5.5,0,0,0-.15.31,1.29,1.29,0,0,1-.36.92,1.82,1.82,0,0,1-1.33.54.88.88,0,0,1-.76-.57c0-.06-.07-.13-.11-.18a.15.15,0,0,0-.09-.07.36.36,0,0,0-.3.11.48.48,0,0,0-.1.17l0,.08a1.82,1.82,0,0,1-1.28.81,1.59,1.59,0,0,1-1.4-.31c-.18-.24-.35-.31-.51-.23s-.08.07-.09.17a.19.19,0,0,1,0,.08.57.57,0,0,1-.28.35,2.05,2.05,0,0,1-1.42.22c-.56-.14-.68-.29-.7-.32a.49.49,0,0,0-.37-.22.53.53,0,0,0-.35.13l-.12.25a1.08,1.08,0,0,1-1.08.54.67.67,0,0,1-.42-.31l-.06-.07a.52.52,0,0,0-.52-.16.35.35,0,0,0-.2.21.65.65,0,0,1-.09.16,1.43,1.43,0,0,1-1.3.24l-.44-.12a.47.47,0,0,0-.37-.14.39.39,0,0,0-.27.18l0,0-.47.12a2.07,2.07,0,0,1-1.38-.12,3,3,0,0,0-.77-.33c-.42.57-.42.57-.5.53l-.06,0c-.1,0-.31-.09-.63-.16a1.08,1.08,0,0,1-.62-.46c-.07-.1-.13-.21-.29-.23s-.44.17-.64.48a1,1,0,0,1-.34.4,1.33,1.33,0,0,1-1.07,0c-.62-.32-.64-.59-.64-.62s0-.09,0-.12,0,.07,0,.11,0,0-.44.27a1.73,1.73,0,0,1-1.61-.08.9.9,0,0,1-.25-.37.38.38,0,0,0-.06-.13l-.07-.13a.42.42,0,0,0-.52.18l0,0-.2.16a1.48,1.48,0,0,1-1,.23,2.3,2.3,0,0,1-1.4-.71.48.48,0,0,0-.35-.21.38.38,0,0,0-.32.19s-.22.31-1,.21h0a1.59,1.59,0,0,1-1-.56,1.84,1.84,0,0,1-.29-.6l0-.13a.34.34,0,0,0-.2-.22.28.28,0,0,0-.24,0,.3.3,0,0,0-.15.26,1,1,0,0,1-.36.79,1.49,1.49,0,0,1-1.35.06,1.44,1.44,0,0,1-.77-.84,2.26,2.26,0,0,0-.11-.22.18.18,0,0,0-.09-.1.29.29,0,0,0-.3,0,.24.24,0,0,0-.09.13l0,.07a1.23,1.23,0,0,1-1.29.35A2.17,2.17,0,0,1,107,120c-.19-.29-.36-.43-.51-.41s-.08,0-.09.14a.19.19,0,0,1,0,.08c0,.12-.12.2-.28.25a2.11,2.11,0,0,1-1.4-.28,2,2,0,0,1-.69-.57.81.81,0,0,0-.36-.35.39.39,0,0,0-.35,0l-.12.21a.78.78,0,0,1-1.06.16,1,1,0,0,1-.41-.46l0-.09a.74.74,0,0,0-.51-.34c-.12,0-.15,0-.2.13a.38.38,0,0,1-.09.13c-.22.2-.85,0-1.26-.22l-.43-.28a.67.67,0,0,0-.36-.27.23.23,0,0,0-.26.09l0,0-.46,0a2.51,2.51,0,0,1-1.32-.61l-.16-.15v-.19l.25.22a2.18,2.18,0,0,0,1.19.55l.38,0a.39.39,0,0,1,.38-.11,1,1,0,0,1,.5.36l.37.23c.38.25.91.35,1.06.21a.26.26,0,0,0,.07-.1.32.32,0,0,1,.31-.19,1,1,0,0,1,.7.47l.06.1a.88.88,0,0,0,.31.36.65.65,0,0,0,.85-.14l.14-.24a.59.59,0,0,1,.52,0,1,1,0,0,1,.48.47,2.26,2.26,0,0,0,.61.47,1.9,1.9,0,0,0,1.25.25.23.23,0,0,0,.18-.15.15.15,0,0,0,0-.07c0-.09,0-.22.2-.25s.43,0,.73.52a2,2,0,0,0,1.23.7c.51.09,1,0,1.13-.28l0-.06a.36.36,0,0,1,.13-.19.52.52,0,0,1,.5,0,.45.45,0,0,1,.18.19l.12.24a1.21,1.21,0,0,0,.65.73,1.33,1.33,0,0,0,1.17,0,.79.79,0,0,0,.3-.69.47.47,0,0,1,.23-.37.44.44,0,0,1,.39,0,.5.5,0,0,1,.33.34s0,.09,0,.13a1.62,1.62,0,0,0,.26.55,1.38,1.38,0,0,0,.85.47c.65.09.84-.14.84-.14a.5.5,0,0,1,.46-.25.67.67,0,0,1,.51.28,2.22,2.22,0,0,0,1.27.63,1.2,1.2,0,0,0,.87-.19l.19-.15a.63.63,0,0,1,.79-.23h0l.11.19c0,.05,0,.1.07.16a.59.59,0,0,0,.19.29,1.54,1.54,0,0,0,1.39,0l.37-.2c.08-.22.16-.3.25-.28s.15.13.15.38c0,0,0,.2.54.47a1.13,1.13,0,0,0,.9,0,.86.86,0,0,0,.27-.33c.18-.29.4-.64.83-.57a.59.59,0,0,1,.42.33,1,1,0,0,0,.5.37,6.53,6.53,0,0,1,.66.17l.36-.47c0-.08.22-.11,1,.3a1.82,1.82,0,0,0,1.23.11l.4-.11a.6.6,0,0,1,.39-.24.66.66,0,0,1,.51.17l.38.1a1.23,1.23,0,0,0,1.09-.18,1.25,1.25,0,0,0,.08-.12.46.46,0,0,1,.31-.3.7.7,0,0,1,.72.2l.07.08a.49.49,0,0,0,.31.25.87.87,0,0,0,.86-.44l.15-.29a.67.67,0,0,1,.53-.19.6.6,0,0,1,.49.29,1.41,1.41,0,0,0,.61.25,1.89,1.89,0,0,0,1.26-.2.38.38,0,0,0,.19-.22s0,0,0-.06a.36.36,0,0,1,.19-.33c.18-.09.45-.11.75.26a1.4,1.4,0,0,0,1.23.26,1.6,1.6,0,0,0,1.12-.68l0-.07a.6.6,0,0,1,.14-.24.57.57,0,0,1,.5-.18.28.28,0,0,1,.18.13l.11.19c.14.24.26.47.65.5a1.62,1.62,0,0,0,1.16-.46,1.17,1.17,0,0,0,.3-.8.68.68,0,0,1,.22-.45.57.57,0,0,1,.39-.16.32.32,0,0,1,.32.23l.05.12a.84.84,0,0,0,1.1.62h0a1.2,1.2,0,0,0,.79-.43.78.78,0,0,1,.45-.41.48.48,0,0,1,.5.1,1.49,1.49,0,0,0,1.24.18,1.75,1.75,0,0,0,.84-.49,2,2,0,0,1,.19-.22.85.85,0,0,1,.75-.51h0l.1.16a.54.54,0,0,1,.07.13.39.39,0,0,0,.18.22c.3.15,1-.12,1.34-.43l.36-.34c.08-.24.15-.34.24-.36s.14.08.15.32c0,0,0,.2.51.28a1.22,1.22,0,0,0,.86-.33,1.39,1.39,0,0,0,.26-.42c.16-.32.35-.72.69-.84l.1,0a.37.37,0,0,1,.4.18m.64,9a.28.28,0,0,1-.07.09l-.05,0,0,0h0a.52.52,0,0,1-.17.44l0,0-.08.06c-.07-.18-.16-.39-.25-.59a4.69,4.69,0,0,1-.21-.46.36.36,0,0,0,0,.09l-.18.44v-.42c0-.27,0-.64,0-1v-.15c-.1.54-.19,1.11-.26,1.58l0,.26a.32.32,0,0,1-.12.23l-.06,0,0,0v0a.5.5,0,0,1-.17.43l-.05,0-.1.06c-.07-.18-.16-.38-.25-.58s-.15-.32-.21-.47a.36.36,0,0,0,0,.09l-.18.44,0-1.29q-.18.77-.3,1.53a.34.34,0,0,1-.13.23l0,0,0,0h0a.52.52,0,0,1-.17.44l0,0-.12.08c-.07-.18-.16-.39-.26-.59l-.2-.47,0,.09-.18.43c0-.14,0-.28,0-.42s0-.65.05-1v-.12c-.15.75-.28,1.52-.32,1.81a.33.33,0,0,1-.14.22.1.1,0,0,1-.05,0l0,0v0a.5.5,0,0,1-.17.43l0,0-.1.06c-.07-.18-.17-.39-.26-.59s-.15-.33-.21-.48l0,.09-.18.44,0-1.3c-.12.51-.22,1-.3,1.52a.36.36,0,0,1-.13.23l-.05,0,0,0v0a.51.51,0,0,1-.17.43l-.05,0-.1.06a5.91,5.91,0,0,0-.25-.6q-.12-.26-.21-.48a.56.56,0,0,1,0,.08l-.18.43c0-.14,0-.28,0-.42s0-.61,0-1v-.14c-.1.51-.19,1.05-.26,1.52l0,.22a.31.31,0,0,1-.13.22l-.05,0,0,0h0a.49.49,0,0,1-.17.43l-.05,0-.1,0c-.07-.18-.16-.39-.26-.6s-.15-.33-.21-.48a.59.59,0,0,1,0,.08l-.18.43,0-1.29c-.12.51-.22,1-.3,1.51a.33.33,0,0,1-.14.22l-.05,0h0v0a.47.47,0,0,1-.17.42l0,0-.09,0c-.06-.18-.16-.4-.25-.61s-.15-.33-.21-.48a.35.35,0,0,0,0,.08l-.18.43,0-1.29q-.18.75-.3,1.5a.31.31,0,0,1-.13.22l-.06,0,0,0h0a.48.48,0,0,1-.18.43l0-.05-.11.06a5.17,5.17,0,0,0-.26-.62c-.07-.16-.15-.33-.21-.49l0,.09-.19.42v-.42c0-.27,0-.62,0-1a.28.28,0,0,0,0-.09c-.13.57-.26,1.18-.34,1.68a.28.28,0,0,1-.13.21l-.05,0,0,0h0a.47.47,0,0,1-.17.42l-.05,0-.1,0a5.85,5.85,0,0,0-.26-.61l-.21-.5,0,.09-.18.41,0-1.28c-.11.5-.22,1-.3,1.49a.28.28,0,0,1-.13.21l-.06,0h0v0a.45.45,0,0,1-.17.41l-.05,0-.11.05a6.06,6.06,0,0,0-.26-.63c-.07-.16-.15-.33-.21-.49a.3.3,0,0,0,0,.08l-.19.42c0-.14,0-.28,0-.42s0-.61,0-.94v-.13c-.09.42-.16.86-.22,1.27,0,.14-.05.28-.07.42a.31.31,0,0,1-.13.21l-.06,0h0v0a.42.42,0,0,1-.17.41l-.05,0-.1,0c-.07-.19-.16-.41-.26-.62s-.15-.34-.21-.5a.56.56,0,0,0,0,.08l-.18.41v-1.26c-.11.47-.2.94-.29,1.45a.25.25,0,0,1-.13.21l-.05,0,0,0h0a.44.44,0,0,1-.17.41l-.05,0-.11,0a6.06,6.06,0,0,0-.26-.63c-.07-.17-.15-.34-.21-.5l-.05.08-.18.41v-.42c0-.27,0-.63,0-1v-.08c-.14.57-.26,1.18-.35,1.67a.25.25,0,0,1-.13.2l-.05,0,0,0h0a.43.43,0,0,1-.18.41l0,0-.08,0c-.07-.19-.17-.41-.27-.63s-.15-.35-.21-.51a.3.3,0,0,0,0,.08l-.19.4V130c0-.27,0-.62,0-1v-.17c-.06.35-.12.71-.17,1.05s-.07.47-.1.68a.27.27,0,0,1-.14.2l-.05,0,0,0h0a.44.44,0,0,1-.17.41l-.05-.05-.11,0c-.07-.19-.16-.42-.26-.64s-.15-.35-.21-.51a.35.35,0,0,0-.05.08l-.18.4,0-1.28c-.12.48-.23,1-.31,1.46a.25.25,0,0,1-.13.2l-.06,0h0v0a.41.41,0,0,1-.17.4l0-.05-.13,0c-.07-.19-.17-.42-.26-.64l-.22-.52a.59.59,0,0,1,0,.08c-.06.14-.13.27-.19.4v-.42c0-.27,0-.51,0-.76v0c-.12.48-.21.92-.29,1.41a.27.27,0,0,1-.14.19l-.05,0,0,0h0a.42.42,0,0,1-.18.4l0-.05-.11,0c-.07-.2-.17-.43-.26-.65l-.22-.52a.59.59,0,0,0,0,.08l-.19.4v-.43c0-.27,0-.64.07-1a.22.22,0,0,1,0-.08c-.15.59-.28,1.22-.36,1.67a.24.24,0,0,1-.14.2l-.05,0h0a.41.41,0,0,1-.17.4l-.05-.05-.11,0a6.28,6.28,0,0,0-.26-.65c-.07-.18-.15-.36-.21-.52l0,.07-.18.4,0-1.29c-.12.49-.23,1-.31,1.45a.25.25,0,0,1-.13.2l-.06,0,0,0h0a.39.39,0,0,1-.17.39l-.05-.05-.11,0a5.61,5.61,0,0,0-.26-.66c-.07-.18-.15-.36-.21-.53a.35.35,0,0,0,0,.08l-.19.38v-.41c0-.27,0-.48,0-.7h0a10.44,10.44,0,0,0-.31,1.28.27.27,0,0,1-.14.19l-.05,0h0v0a.4.4,0,0,1-.17.39l-.05-.05-.08,0c-.07-.2-.17-.44-.27-.67s-.15-.36-.21-.53a.56.56,0,0,1,0,.08l-.18.39,0-1.28c-.12.47-.23.95-.31,1.43a.22.22,0,0,1-.13.19l-.06,0h0a.38.38,0,0,1-.17.39l-.05-.05-.11,0a6.5,6.5,0,0,0-.26-.67c-.07-.18-.15-.37-.21-.54a.35.35,0,0,0,0,.08l-.19.38v-.42c0-.28,0-.63,0-1v-.09c-.1.49-.19,1-.27,1.47l0,.17a.24.24,0,0,1-.14.19l0,0h0v0a.37.37,0,0,1-.18.38l0-.05-.11,0c-.07-.2-.17-.44-.26-.68s-.15-.36-.22-.53l0,.07c-.06.13-.12.26-.19.39l0-1.29c-.12.48-.22.95-.3,1.43a.24.24,0,0,1-.14.18l0,0h0v0a.37.37,0,0,1-.18.38l0-.06-.11,0c-.07-.2-.17-.44-.26-.68s-.16-.37-.22-.54l0,.08c-.06.12-.13.25-.19.38,0-.14,0-.28,0-.43s0-.48,0-.7v0c-.12.43-.21.83-.3,1.31a.2.2,0,0,1-.13.19l-.06,0h0a.37.37,0,0,1-.18.38l0,0-.11,0c-.07-.2-.17-.45-.26-.68l-.22-.55a.43.43,0,0,1,0,.07l-.19.38,0-1.28c-.12.47-.22.94-.31,1.42a.18.18,0,0,1-.13.17l-.06,0,0,0h0a.35.35,0,0,1-.18.37l0-.05-.11,0c-.07-.2-.17-.45-.26-.69s-.16-.37-.22-.54a.16.16,0,0,0,0,.07l-.19.37,0-1.28c-.12.47-.22.94-.31,1.41a.2.2,0,0,1-.13.18l0,0h0a.35.35,0,0,1-.18.37l0-.05-.09,0a6,6,0,0,0-.26-.69c-.07-.19-.15-.38-.21-.55l0,.07-.18.37,0-1.29c-.12.47-.23.94-.31,1.41a.2.2,0,0,1-.13.17l-.06,0h0v0a.33.33,0,0,1-.17.36l0,0-.11,0a6.86,6.86,0,0,0-.26-.7c-.07-.19-.15-.38-.21-.55l0,.06-.19.37,0-1.28c-.12.47-.22.94-.31,1.4a.18.18,0,0,1-.13.17l-.06,0h0a.35.35,0,0,1-.18.37l0-.07-.13,0c-.07-.21-.16-.46-.26-.71s-.15-.38-.21-.55l0,.06-.18.37,0-1.28c-.12.46-.23.93-.31,1.39a.19.19,0,0,1-.13.17l-.06,0h0a.33.33,0,0,1-.18.36l0-.06-.1,0c-.07-.21-.17-.46-.26-.71s-.15-.38-.22-.56l0,.07c-.06.12-.12.24-.19.36l0-1.28c-.12.46-.22.93-.3,1.39a.19.19,0,0,1-.13.17h-.09v0a.31.31,0,0,1-.17.35l0-.05h-.1c-.07-.21-.17-.47-.26-.71s-.15-.39-.21-.57l0,.07-.18.36,0-1.28c-.12.45-.23.92-.31,1.38a.18.18,0,0,1-.13.17h-.08a.33.33,0,0,1-.18.36l0-.06h-.11c-.07-.21-.16-.47-.26-.71s-.15-.39-.21-.57l0,.06-.18.36,0-1.28q-.18.69-.3,1.38a.19.19,0,0,1-.14.16h-.08v0a.32.32,0,0,1-.17.35l0-.06h-.09c-.07-.21-.17-.47-.26-.72s-.15-.39-.21-.57l0,.06c-.07.12-.13.24-.19.36v-.42c0-.28,0-.71,0-1.14v-.15c-.09.47-.18,1-.26,1.42l-.06.38a.18.18,0,0,1-.13.16h-.09a.3.3,0,0,1-.17.35l0-.06h-.1c-.07-.21-.17-.47-.26-.72s-.15-.4-.21-.58a.21.21,0,0,0,0,.06l-.19.35,0-1.28c-.12.46-.22.92-.3,1.37a.17.17,0,0,1-.13.16h-.08a.31.31,0,0,1-.18.35l0-.06h-.1c-.07-.21-.16-.47-.26-.72s-.15-.4-.21-.58l0,.06-.18.35v-.43c0-.26,0-.57,0-.86,0-.06,0-.12,0-.18,0,.26-.08.54-.12.81s-.06.5-.11.74a.17.17,0,0,1-.13.16h-.08v0a.3.3,0,0,1-.17.34l0-.06h-.1c-.07-.22-.17-.48-.26-.73s-.15-.4-.21-.59a.25.25,0,0,0,0,.07c-.06.11-.12.23-.19.34,0-.14,0-.28,0-.42s0-.64.07-1.12c-.15.62-.28,1.26-.35,1.62a.15.15,0,0,1-.13.15h-.08a.3.3,0,0,1-.17.34l0-.06h-.11c-.06-.22-.16-.48-.25-.74s-.15-.4-.21-.58l-.05.06-.18.34,0-1.28c-.12.44-.22.9-.3,1.35a.16.16,0,0,1-.13.15h-.08a.3.3,0,0,1-.17.34l0-.07h-.1c-.07-.21-.16-.48-.26-.74l-.21-.59,0,.06-.18.34,0-1.28q-.18.67-.3,1.35a.17.17,0,0,1-.13.15h-.08a.29.29,0,0,1-.17.34l0-.06h-.09c-.06-.22-.16-.49-.25-.75s-.15-.41-.21-.59l0,.06-.18.33,0-1.28c-.12.44-.22.89-.3,1.34a.16.16,0,0,1-.13.15h-.08v0a.28.28,0,0,1-.17.33l0-.07h-.11c-.06-.22-.16-.49-.25-.75s-.15-.41-.21-.6a.21.21,0,0,0,0,.06l-.18.33,0-1.28c-.12.44-.22.89-.3,1.34a.14.14,0,0,1-.13.14H99a.28.28,0,0,1-.16.33l-.06-.07h-.12c-.06-.22-.16-.49-.25-.75s-.15-.42-.21-.61l0,.06-.18.33,0-1.28c-.12.44-.22.89-.3,1.34a.14.14,0,0,1-.12.14h-.09v0a.26.26,0,0,1-.17.32l0-.06h-.1c-.06-.22-.16-.5-.25-.76s-.15-.42-.21-.61l0,.06-.06.12v-2l.12-.39c0,.67,0,1.34,0,2l.1-.06,0,.15.25.76c.08.2.15.41.21.6a.16.16,0,0,0,0-.12s0-.12,0-.15l.08,0h0s0,0,0-.05a15.5,15.5,0,0,1,.49-2c.06-.2.13-.4.19-.6,0,.67,0,1.34,0,2l.11-.06,0,.15c.07.22.16.49.25.75s.16.43.22.63a.15.15,0,0,0,0-.14s0-.12,0-.15a.11.11,0,0,1,.08,0h0s0,0,0-.06a15.11,15.11,0,0,1,.49-2l.19-.61,0,2,.11-.07,0,.15c.07.22.16.49.26.75s.14.41.2.6a.16.16,0,0,0,0-.12s0-.13,0-.16l.09,0h0s0,0,0-.06a16.56,16.56,0,0,1,.5-2c.06-.2.12-.41.19-.61,0,.67,0,1.34-.05,2l.11-.06,0,.14c.07.22.16.49.26.75s.14.39.19.56c0,0,0-.05,0-.09s0-.13,0-.16l.09,0h0s0,0,0,0a17.68,17.68,0,0,1,.5-2l.19-.62c0,.67,0,1.35,0,2l.1-.07,0,.15c.06.22.16.48.25.74s.15.4.21.59a.16.16,0,0,0,0-.12s0-.13,0-.16a.15.15,0,0,1,.09,0h0s0,0,0,0a16.88,16.88,0,0,1,.5-2c.06-.21.13-.41.19-.62l0,2,.1-.08,0,.15c.06.22.16.48.25.74s.15.4.21.58a.16.16,0,0,0,0-.12s0-.12,0-.16l.09,0h0s0,0,0-.05c.1-.6.4-1.93.61-2.69,0-.39.07-.38.14-.36h0c.1,0,.1.11.11.19h0c0,.07,0,.13-.06.21,0,.48-.12,1.43-.14,2l.1-.07,0,.15c.07.21.17.48.26.73s.15.4.21.58a.16.16,0,0,0,0-.12.12.12,0,0,1,0-.16.32.32,0,0,1,.09,0h0s0,0,0-.06c0-.23.08-.47.11-.73a9.47,9.47,0,0,1,.28-1.48l.19-.63v.69c0,.27,0,.58,0,.88s0,.41,0,.61h0l.11-.08,0,.15c.07.21.17.47.26.72s.15.39.21.57a.14.14,0,0,0,0-.11s0-.12,0-.16a.32.32,0,0,1,.09,0h0s0,0,0,0a16.42,16.42,0,0,1,.5-2.07c.07-.21.13-.42.2-.63,0,.67,0,1.35,0,2l.11-.08,0,.15c.07.21.17.47.26.72s.15.39.21.58a.19.19,0,0,0,0-.13s0-.12,0-.16l.09,0h0s0,0,0-.06l.06-.38a22.51,22.51,0,0,1,.48-2.3l.19-.63v.69c0,.26,0,.66,0,1.07s0,.61,0,.86l.11-.08,0,.14c.07.22.17.47.26.72s.14.37.2.55a.11.11,0,0,0,0-.1.14.14,0,0,1,.05-.17l.09,0h0s0,0,0-.06a17.15,17.15,0,0,1,.5-2.09c.07-.21.13-.42.2-.63l0,2,.11-.08,0,.14c.07.21.17.47.26.72s.15.38.21.56a.12.12,0,0,0,0-.12.14.14,0,0,1,0-.17l.08,0h0s0,0,0-.06A18.89,18.89,0,0,1,113,128c.06-.21.13-.42.19-.63,0,.67,0,1.34,0,2l.1-.09,0,.14c.07.22.16.47.26.72s.15.38.21.55a.11.11,0,0,0,0-.11.15.15,0,0,1,.05-.17l.09,0h0s0,0,0-.06a17.3,17.3,0,0,1,.5-2.1l.2-.65c0,.68,0,1.35,0,2l.11-.09,0,.14c.06.21.16.46.26.71s.15.38.21.56a.19.19,0,0,0,0-.13.13.13,0,0,1,0-.16l.09,0h0s0,0,0-.06a16.18,16.18,0,0,1,.51-2.11l.19-.65c0,.68,0,1.36,0,2l.11-.09,0,.14c.07.21.17.46.26.7s.16.4.22.59a.17.17,0,0,0,0-.15.14.14,0,0,1,.05-.17s0,0,.08,0h0s0,0,0-.06a20,20,0,0,1,.51-2.13l.2-.65,0,2,.11-.09,0,.14c.07.21.17.46.27.7s.15.37.21.55a.13.13,0,0,0,0-.12s0-.12,0-.17l.09,0h0s0,0,0-.06a17.36,17.36,0,0,1,.51-2.13c.06-.22.13-.44.19-.65,0,.67,0,1.35,0,2l.11-.09,0,.14c.07.2.17.45.26.69s.15.35.21.52a.16.16,0,0,0,0-.1.14.14,0,0,1,.05-.17.11.11,0,0,1,.08,0l0,0s0,0,0-.06a20.74,20.74,0,0,1,.51-2.14c.07-.22.13-.44.2-.66l0,2,.11-.09,0,.14a6.62,6.62,0,0,0,.26.68c.07.19.15.38.21.55a.14.14,0,0,0,0-.12.15.15,0,0,1,.05-.18l.08,0,0,0s0,0,0-.06a20.32,20.32,0,0,1,.51-2.15c.07-.22.13-.44.2-.66,0,.68,0,1.35,0,2l.11-.1,0,.14a6.62,6.62,0,0,0,.26.68c.07.19.15.37.21.54a.16.16,0,0,0,0-.12.15.15,0,0,1,0-.17l.09,0,0,0s0,0,0-.06a15.47,15.47,0,0,1,.49-2c.06-.22.13-.44.19-.67,0,.24,0,.47,0,.7s0,.5,0,.72v.44h0l.11-.1,0,.14c.06.2.16.44.26.68s.15.37.21.54a.15.15,0,0,0,0-.13.14.14,0,0,1,0-.17l.08,0,0,0s0,0,0-.06a21.28,21.28,0,0,1,.51-2.17c.07-.22.13-.44.2-.67,0,.68,0,1.36,0,2l.11-.1,0,.14c.07.2.17.44.26.68s.15.36.21.53a.15.15,0,0,0,0-.13.14.14,0,0,1,0-.17l.09,0,0,0s0,0,0-.06l0-.17a23,23,0,0,1,.48-2.28l.2-.67,0,.69c0,.26,0,.58,0,.9s0,.49,0,.71h0l.11-.1,0,.14c.07.2.17.44.26.67s.15.36.22.53a.19.19,0,0,0,0-.13.15.15,0,0,1,0-.18l.09,0,0,0s0,0,0-.06a18.6,18.6,0,0,1,.51-2.18c.06-.23.13-.45.2-.68,0,.68,0,1.36-.05,2h0l.11-.1,0,.13c.07.2.17.44.27.67s.14.34.2.5a.17.17,0,0,0,0-.1.15.15,0,0,1,.05-.18l.09,0,0,0s0,0,0-.06a11.91,11.91,0,0,1,.4-1.59c0-.13.07-.26.11-.4l.2-.68c0,.23,0,.46,0,.69s0,.5,0,.72,0,.27,0,.42l.11-.11,0,.14c.07.2.17.43.26.66s.15.35.22.52a.19.19,0,0,0,0-.13.14.14,0,0,1,.05-.17l.09-.05,0,0s0,0,0-.06a19.08,19.08,0,0,1,.51-2.21c.06-.22.13-.45.2-.68,0,.68,0,1.36-.05,2h0l.11-.11,0,.13c.07.2.17.43.26.66s.15.35.22.51a.16.16,0,0,0,0-.12.15.15,0,0,1,.05-.18l.09,0,0,0a.07.07,0,0,0,0-.07c.13-.72.39-1.83.61-2.6.06-.23.13-.46.2-.69,0,.24,0,.47,0,.7s0,.64-.07,1,0,.49-.05.71l.1-.1,0,.13c.07.2.17.43.26.65s.15.35.21.52a.15.15,0,0,0,0-.13.16.16,0,0,1,.05-.18l.09-.05,0,0s0,0,0-.06a20.34,20.34,0,0,1,.5-2.13c.06-.23.13-.46.19-.69v.7c0,.27,0,.51,0,.76s0,.32,0,.49h0l.11-.11,0,.14a6.16,6.16,0,0,0,.26.64c.08.18.16.37.22.54a.19.19,0,0,0,0-.16.16.16,0,0,1,0-.18l.09,0,0,0s0,0,0-.07a19.24,19.24,0,0,1,.51-2.22l.19-.7c0,.68,0,1.36,0,2h0l.11-.11,0,.13c.07.19.17.42.26.64s.15.35.21.51a.16.16,0,0,0,0-.13.16.16,0,0,1,0-.18l.09-.05,0,0a.07.07,0,0,0,0-.07c0-.21.07-.44.11-.68a14.13,14.13,0,0,1,.35-1.85c.06-.24.13-.47.19-.7v.7c0,.27,0,.61,0,.95s0,.47,0,.69h0l.11-.11,0,.13c.07.19.17.42.27.63l.2.48a.16.16,0,0,0,0-.1.16.16,0,0,1,0-.18l.08-.05,0,0a.07.07,0,0,0,0-.07c.13-.77.38-1.85.58-2.59.07-.23.13-.46.2-.7,0,.24,0,.47,0,.7s0,.64-.05,1,0,.47,0,.69l.11-.12,0,.13c.07.19.17.42.26.64a5.32,5.32,0,0,1,.21.5.16.16,0,0,0,0-.13.15.15,0,0,1,.05-.18l.09-.06,0,0a.07.07,0,0,0,0-.07,20.65,20.65,0,0,1,.47-2.19l.2-.7c0,.23,0,.46,0,.7s0,.52,0,.77,0,.33,0,.5h0l.11-.12,0,.13c.07.19.17.41.26.63a5.16,5.16,0,0,1,.21.49.19.19,0,0,0,0-.13.17.17,0,0,1,0-.18l.09-.06,0,0s0,0,0-.07,0-.27.07-.42a19.13,19.13,0,0,1,.41-2.08l.19-.71c0,.24,0,.47,0,.7s0,.59,0,.91V129h0l.11-.12,0,.13c.07.19.17.41.26.62s.15.34.22.5a.2.2,0,0,0,0-.13.17.17,0,0,1,.05-.19l.08-.06,0,0a.07.07,0,0,0,0-.07,23.13,23.13,0,0,1,.51-2.27c.06-.24.13-.48.19-.71,0,.68,0,1.36,0,2h0l.11-.12.05.12a5.17,5.17,0,0,0,.26.62l.2.48a.17.17,0,0,0,0-.12.16.16,0,0,1,.05-.18l.08-.06,0,0a.07.07,0,0,0,0-.07c.13-.78.36-1.85.57-2.59.06-.24.13-.48.19-.72v.7c0,.27,0,.63-.05,1s0,.46,0,.67l.1-.12,0,.13c.07.19.17.41.26.62s.15.33.21.48a.21.21,0,0,0,0-.13.17.17,0,0,1,0-.19l.08-.06,0,0s0,0,0-.08a21.19,21.19,0,0,1,.5-2.28c.06-.24.13-.48.19-.72,0,.68,0,1.36,0,2h0l.1-.12.05.12a5.06,5.06,0,0,0,.26.61c.07.15.14.31.2.46a.38.38,0,0,0,0-.1.19.19,0,0,1,0-.19l.09-.06,0,0a.12.12,0,0,0,0-.07,21.53,21.53,0,0,1,.5-2.3c.06-.24.13-.48.19-.72,0,.68,0,1.36-.05,2h0l.11-.12,0,.12c.07.18.17.4.26.61s.15.32.21.47a.19.19,0,0,0,0-.13.17.17,0,0,1,0-.19l.09-.06,0,0s0,0,0-.08l0-.22c.12-.75.27-1.68.46-2.39.06-.24.13-.48.19-.72v.7c0,.27,0,.61,0,1s0,.47,0,.69h0l.1-.13.05.13c.06.18.16.39.25.6s.15.32.21.47a.2.2,0,0,0,0-.13.17.17,0,0,1,.05-.19l.09-.06,0,0a.07.07,0,0,0,0-.07c.13-.77.29-1.55.5-2.32.06-.24.13-.48.19-.72,0,.68,0,1.36,0,2l.11-.13,0,.12c.07.18.17.39.26.6s.15.32.21.47a.23.23,0,0,0,0-.14.18.18,0,0,1,.05-.19l.08-.06,0,0s0,0,0-.08c.06-.41.3-1.82.54-2.75.07-.24.13-.49.19-.73,0,.23,0,.47,0,.7s0,.65-.05,1,0,.52,0,.74l.1-.13.05.12c.06.18.16.39.25.6s.15.33.22.48a.24.24,0,0,0,0-.16.19.19,0,0,1,0-.19l.09-.07,0,0a.12.12,0,0,0,0-.07,22.7,22.7,0,0,1,.49-2.34l.19-.73c0,.68,0,1.37-.05,2.05h0l.11-.14,0,.12c.06.18.16.39.25.59s.15.31.21.46a.2.2,0,0,0,0-.13.17.17,0,0,1,.05-.19.5.5,0,0,1,.08-.07l0,0s0,0,0-.08l0-.26c.12-.75.28-1.79.46-2.5.07-.24.13-.49.19-.74v.7c0,.28,0,.65,0,1s0,.51,0,.74l.11-.14,0,.12c.06.18.16.39.25.59s.14.29.2.43a.17.17,0,0,0,0-.1.19.19,0,0,1,0-.19l.09-.07,0,0s0,0,0-.08l.12-.65Zm-.59-10.73c-.34.28-.22.27-.62.31l-.45,0,0,0a.25.25,0,0,0-.26-.09.71.71,0,0,0-.37.27l0,0-.39.25c-.42.26-1,.42-1.26.22a.38.38,0,0,1-.09-.13c-.05-.08-.08-.14-.2-.13a.77.77,0,0,0-.51.34l-.05.09a1,1,0,0,1-.41.46.78.78,0,0,1-1.06-.15l-.12-.21a.39.39,0,0,0-.35,0,.81.81,0,0,0-.36.35,1.91,1.91,0,0,1-.69.57,2.13,2.13,0,0,1-1.4.29.36.36,0,0,1-.28-.25s0,0,0-.08,0-.13-.08-.14-.33.11-.52.41a2.2,2.2,0,0,1-1.39.82,1.25,1.25,0,0,1-1.28-.35l0-.07a.43.43,0,0,0-.09-.13.31.31,0,0,0-.31,0,.22.22,0,0,0-.09.1c0,.07-.07.15-.11.22a1.45,1.45,0,0,1-.76.84,1.49,1.49,0,0,1-1.35-.05.92.92,0,0,1-.36-.8.32.32,0,0,0-.15-.25.28.28,0,0,0-.24,0,.32.32,0,0,0-.2.22s0,.09-.05.13a1.66,1.66,0,0,1-.29.6,1.56,1.56,0,0,1-1,.56h0c-.75.1-1-.2-1-.21a.36.36,0,0,0-.32-.19.51.51,0,0,0-.36.21,2.3,2.3,0,0,1-1.4.71h-.06a1.39,1.39,0,0,1-.94-.23l-.23-.19a.42.42,0,0,0-.52-.18l-.07.13a.61.61,0,0,0-.07.14.9.9,0,0,1-.24.36,1.67,1.67,0,0,1-1.61.08c-.42-.22-.43-.23-.44-.26a.76.76,0,0,1,0-.11.41.41,0,0,0,0,.12s0,.3-.64.62a1.31,1.31,0,0,1-1.08,0,.94.94,0,0,1-.33-.39c-.2-.32-.36-.53-.64-.49s-.21.12-.29.24a1.08,1.08,0,0,1-.62.46l-.64.17,0,0c-.08,0-.08,0-.5-.52a2.13,2.13,0,0,0-.77.33,2.08,2.08,0,0,1-1.38.12l-.47-.12,0,0a.37.37,0,0,0-.27-.19.55.55,0,0,0-.38.14v0l-.42.11a1.43,1.43,0,0,1-1.3-.24.7.7,0,0,1-.1-.16.27.27,0,0,0-.19-.2.53.53,0,0,0-.53.15.35.35,0,0,1,0,.08.67.67,0,0,1-.42.31,1.07,1.07,0,0,1-1.08-.54l-.12-.25a.53.53,0,0,0-.36-.13.48.48,0,0,0-.36.23s-.14.18-.71.32a2.15,2.15,0,0,1-1.41-.22.54.54,0,0,1-.28-.35.19.19,0,0,1,0-.08c0-.1,0-.14-.09-.17s-.33,0-.52.23a1.53,1.53,0,0,1-1.39.31,1.78,1.78,0,0,1-1.29-.8l0-.08a.35.35,0,0,0-.09-.17.38.38,0,0,0-.3-.11.13.13,0,0,0-.09.07,1.18,1.18,0,0,0-.11.19.9.9,0,0,1-.76.56,1.79,1.79,0,0,1-1.34-.53,1.39,1.39,0,0,1-.36-.92.45.45,0,0,0-.15-.31.35.35,0,0,0-.23-.09.2.2,0,0,0-.2.14s0,.08,0,.12a1.16,1.16,0,0,1-.29.5,1.12,1.12,0,0,1-1,.21h0a1.38,1.38,0,0,1-.95-.55.6.6,0,0,0-.31-.3.35.35,0,0,0-.35.08,1.57,1.57,0,0,1-1.37.22,1.87,1.87,0,0,1-1-.57l-.22-.27a.62.62,0,0,0-.51-.37l-.07.11-.06.11a.53.53,0,0,1-.24.28,1.79,1.79,0,0,1-1.55-.48c-.41-.37-.41-.38-.42-.42s0-.09,0-.12a.37.37,0,0,0,0,.11s0,.29-.61.4a.81.81,0,0,1-.43,0,2,2,0,0,1-.61-.34,1.93,1.93,0,0,1-.32-.52c-.19-.38-.35-.65-.6-.7a.26.26,0,0,0-.28.13.93.93,0,0,1-1.07.25v-.18a.82.82,0,0,0,.92-.2.36.36,0,0,1,.4-.18c.41.07.62.51.79.85a1.47,1.47,0,0,0,.25.43,1.26,1.26,0,0,0,.86.33c.5-.09.52-.28.52-.29,0-.24.05-.33.15-.32s.16.12.24.36c0,0,.12.12.35.34a1.68,1.68,0,0,0,1.35.43.38.38,0,0,0,.18-.23.83.83,0,0,1,.07-.13l.1-.15h0a.87.87,0,0,1,.76.5l.18.22a1.69,1.69,0,0,0,.85.49,1.44,1.44,0,0,0,1.23-.19.52.52,0,0,1,.51-.1.85.85,0,0,1,.45.41,1.16,1.16,0,0,0,.79.43h0a1,1,0,0,0,.85-.18,1.07,1.07,0,0,0,.25-.44,1.12,1.12,0,0,0,0-.13.33.33,0,0,1,.33-.22.55.55,0,0,1,.38.15.64.64,0,0,1,.22.45,1.18,1.18,0,0,0,.31.8,1.62,1.62,0,0,0,1.16.45.74.74,0,0,0,.64-.49l.12-.2a.26.26,0,0,1,.18-.13.66.66,0,0,1,.5.18.48.48,0,0,1,.13.24l0,.07a1.6,1.6,0,0,0,1.12.68,1.45,1.45,0,0,0,1.24-.27c.3-.37.57-.35.74-.26a.35.35,0,0,1,.2.32.15.15,0,0,0,0,.07.38.38,0,0,0,.19.22,1.88,1.88,0,0,0,1.26.19,1.26,1.26,0,0,0,.61-.25.62.62,0,0,1,.49-.29.69.69,0,0,1,.53.19l0,0,.13.26a.86.86,0,0,0,.85.43.47.47,0,0,0,.32-.24l.06-.08a.7.7,0,0,1,.73-.21.48.48,0,0,1,.31.3.35.35,0,0,0,.07.12,1.25,1.25,0,0,0,1.1.18l.38-.1a.63.63,0,0,1,.51-.17.55.55,0,0,1,.39.24l.4.1a1.82,1.82,0,0,0,1.23-.11c.78-.42,1-.38,1-.31l.36.47.66-.17a.92.92,0,0,0,.5-.38.58.58,0,0,1,.42-.32c.43-.08.65.28.83.56a.86.86,0,0,0,.27.33,1.12,1.12,0,0,0,.9,0c.51-.27.54-.47.54-.48,0-.24,0-.35.14-.37s.18.06.26.27a3.8,3.8,0,0,0,.37.21,1.54,1.54,0,0,0,1.39-.06.7.7,0,0,0,.19-.29,1.11,1.11,0,0,1,.07-.16l.11-.19h0a.61.61,0,0,1,.78.23l.2.14a1.2,1.2,0,0,0,.87.2,2.17,2.17,0,0,0,1.26-.64.73.73,0,0,1,.52-.29.54.54,0,0,1,.46.25s.17.24.8.15h0a1.39,1.39,0,0,0,.86-.48,1.5,1.5,0,0,0,.26-.54.78.78,0,0,1,0-.14.51.51,0,0,1,.33-.34.42.42,0,0,1,.61.38.8.8,0,0,0,.31.69,1.33,1.33,0,0,0,1.17,0,1.22,1.22,0,0,0,.64-.73l.12-.24a.63.63,0,0,1,.18-.19.52.52,0,0,1,.5,0,.41.41,0,0,1,.14.19l0,.06c.13.25.61.37,1.12.28a2,2,0,0,0,1.23-.71c.3-.48.57-.55.74-.52s.18.16.19.25,0,0,0,.07a.25.25,0,0,0,.19.15,1.88,1.88,0,0,0,1.24-.26,2.11,2.11,0,0,0,.61-.48,1,1,0,0,1,.48-.46.59.59,0,0,1,.52,0l0,0,.12.22a.64.64,0,0,0,.85.13.88.88,0,0,0,.31-.36l.06-.1a1,1,0,0,1,.7-.47.32.32,0,0,1,.31.19.36.36,0,0,0,.07.1c.15.14.68,0,1.06-.21l.37-.24a.91.91,0,0,1,.5-.35.35.35,0,0,1,.37.1l.39,0m.82,5.72v.17a6.8,6.8,0,0,1-1.83.65,7.2,7.2,0,0,0-1.24.35c-.71.24-1.39.45-1.66,0a2.21,2.21,0,0,0-.53-.56,4.3,4.3,0,0,1-.8-.81.81.81,0,0,0-.63-.28,3.06,3.06,0,0,0-1.69,1.08,12.14,12.14,0,0,0-.79.93c-.21.26-.43.53-.82.94a1.8,1.8,0,0,1-1.14.48,3.12,3.12,0,0,0-.93.24l-.56.25c-.68.3-1.71.74-2,.86a3.3,3.3,0,0,1-2.23,0,4.15,4.15,0,0,1-1.38-1l-.14-.14a1.51,1.51,0,0,0-1.41-.64,2.89,2.89,0,0,0-1.9,1.45,2.73,2.73,0,0,1-2.29,1.28,2.19,2.19,0,0,1-1.45-.77l0,0a1.88,1.88,0,0,0-1.53-.61,1.92,1.92,0,0,0-1.33.85,2,2,0,0,1-1.51.87h0a2.79,2.79,0,0,1-1.14-.32l-1.75-.81a2,2,0,0,0-.67-.24,1.56,1.56,0,0,0-1.21.39,2.77,2.77,0,0,0-.24.25,2.18,2.18,0,0,1-.65.53,3.44,3.44,0,0,1-2.84-.3,5.69,5.69,0,0,1-1.69-1.61l0-.06a1.44,1.44,0,0,0-1-.61,1.08,1.08,0,0,0-.46.14l-1.8.86a3.8,3.8,0,0,1-3,.35,4.49,4.49,0,0,1-1.12-.62,7.49,7.49,0,0,0-.73-.45,3.34,3.34,0,0,0-2.75-.26l0,0a.67.67,0,0,1-.47.12,1.33,1.33,0,0,1-.57-.28,7.36,7.36,0,0,1-1.9-2l0-.05a1.48,1.48,0,0,0-.32-.4,1.24,1.24,0,0,0-1.45-.07,1.35,1.35,0,0,0-.26.47,1.38,1.38,0,0,1-.29.53,2.15,2.15,0,0,1-2,.1,3.72,3.72,0,0,1-.76-.35l0-.15c.93.58,2.13.68,2.57.25a1.33,1.33,0,0,0,.27-.48,1.38,1.38,0,0,1,.29-.51,1.4,1.4,0,0,1,1.68.09,1.57,1.57,0,0,1,.38.47l0,0a7.14,7.14,0,0,0,1.83,2,1.17,1.17,0,0,0,.47.24.6.6,0,0,0,.38-.1l0,0a3.65,3.65,0,0,1,2.93.27,8,8,0,0,1,.75.47,4.85,4.85,0,0,0,1.07.59,3.62,3.62,0,0,0,2.82-.35l1.8-.85a1.28,1.28,0,0,1,.53-.16,1.62,1.62,0,0,1,1.22.69l0,.07a5.69,5.69,0,0,0,1.64,1.55,3.29,3.29,0,0,0,2.65.29,2,2,0,0,0,.6-.5c.08-.08.16-.17.25-.25a1.72,1.72,0,0,1,1.37-.44,2.51,2.51,0,0,1,.73.26l1.75.81a2.65,2.65,0,0,0,1.06.3,1.77,1.77,0,0,0,1.37-.81,2.19,2.19,0,0,1,1.47-.91,2.15,2.15,0,0,1,1.68.66l.05,0a2.07,2.07,0,0,0,1.33.73,2.57,2.57,0,0,0,2.12-1.2,3.08,3.08,0,0,1,2-1.54,1.7,1.7,0,0,1,1.57.68l.13.14a4.18,4.18,0,0,0,1.33,1,3.14,3.14,0,0,0,2.11,0c.32-.12,1.34-.55,2-.86l.57-.25a3.35,3.35,0,0,1,1-.25,1.61,1.61,0,0,0,1-.41,10.8,10.8,0,0,0,.8-.92c.21-.26.42-.53.81-1a3.12,3.12,0,0,1,1.84-1.15.91.91,0,0,1,.76.33,4,4,0,0,0,.78.78,2.38,2.38,0,0,1,.55.58c.22.34.81.15,1.5-.08a7.51,7.51,0,0,1,1.27-.35A6.74,6.74,0,0,0,156.1,121.26Z"/><path id="AAAP" class="cls-2" d="M112.09,106.41h-2.75l-.79-1.91h-4l-.79,1.91h-2.73l4.07-8.59h3ZM108,103l-1.2-2.88a3.18,3.18,0,0,1-.19-.78h-.06a2.61,2.61,0,0,1-.2.75L105.11,103Zm18.54,3.4h-2.74l-.8-1.91h-4l-.78,1.91h-2.73l4.07-8.59h3Zm-4.12-3.4-1.2-2.88a3.18,3.18,0,0,1-.19-.78h-.06a2.59,2.59,0,0,1-.19.75L119.53,103Zm11.23.44v3H131.1V97.82h4q4.22,0,4.22,2.74a2.4,2.4,0,0,1-1.21,2.09,5.84,5.84,0,0,1-3.24.8Zm0-4.15V102h1q2,0,2-1.35c0-.88-.67-1.33-2-1.33Zm13,4.15v3h-2.52V97.82h3.94q4.23,0,4.23,2.74a2.4,2.4,0,0,1-1.21,2.09,5.84,5.84,0,0,1-3.24.8Zm0-4.15V102h1q2,0,2-1.35c0-.88-.67-1.33-2-1.33Z"/><path id="Founded" class="cls-3" d="M115.36,136v.32h-2.21v1.11h1.92v.31h-1.92v1.54h-.43V136ZM120,137.6a1.94,1.94,0,0,1-.12.7,1.42,1.42,0,0,1-.36.54,1.64,1.64,0,0,1-.57.36,2.26,2.26,0,0,1-.77.13,2.3,2.3,0,0,1-.77-.13,1.64,1.64,0,0,1-.57-.36,1.53,1.53,0,0,1-.35-.54,2.07,2.07,0,0,1,0-1.39,1.53,1.53,0,0,1,.35-.54,1.5,1.5,0,0,1,.57-.36,2.3,2.3,0,0,1,.77-.13,2.26,2.26,0,0,1,.77.13,1.5,1.5,0,0,1,.57.36,1.42,1.42,0,0,1,.36.54A1.92,1.92,0,0,1,120,137.6Zm-.44,0a1.55,1.55,0,0,0-.1-.59,1.27,1.27,0,0,0-.3-.44,1.18,1.18,0,0,0-.44-.28,1.51,1.51,0,0,0-1.08,0,1.18,1.18,0,0,0-.44.28,1.13,1.13,0,0,0-.29.44,1.55,1.55,0,0,0-.11.59,1.6,1.6,0,0,0,.11.6,1.13,1.13,0,0,0,.29.44,1.18,1.18,0,0,0,.44.28,1.51,1.51,0,0,0,1.08,0,1.18,1.18,0,0,0,.44-.28,1.27,1.27,0,0,0,.3-.44A1.61,1.61,0,0,0,119.59,137.6Zm1.92-1.64v2.21a.74.74,0,0,0,.09.36.78.78,0,0,0,.24.27,1,1,0,0,0,.33.17,1.15,1.15,0,0,0,.37.06,1.32,1.32,0,0,0,.39-.06,1,1,0,0,0,.36-.16.77.77,0,0,0,.25-.26.66.66,0,0,0,.1-.37V136h.43v2.19a1,1,0,0,1-.13.51,1.27,1.27,0,0,1-.36.37,1.69,1.69,0,0,1-.49.23,2,2,0,0,1-.55.08,1.88,1.88,0,0,1-.52-.08,1.58,1.58,0,0,1-.47-.23,1.1,1.1,0,0,1-.34-.37,1,1,0,0,1-.13-.51V136Zm4.19,0,2,2.83V136h.43v3.28h-.57l-2.06-2.84v2.84h-.43V136Zm3.54,0h1.5a1.85,1.85,0,0,1,.72.13,1.73,1.73,0,0,1,.55.35,1.69,1.69,0,0,1,.47,1.15,1.67,1.67,0,0,1-.13.65,1.77,1.77,0,0,1-.36.53,1.84,1.84,0,0,1-.55.35,2,2,0,0,1-.7.12h-1.5Zm.42,3h.9a1.87,1.87,0,0,0,.59-.09,1.27,1.27,0,0,0,.78-.67,1.43,1.43,0,0,0,.11-.56,1.48,1.48,0,0,0-.11-.59,1.17,1.17,0,0,0-.31-.41,1.41,1.41,0,0,0-.47-.25,2.22,2.22,0,0,0-.59-.07h-.9Zm6.56-3v.32H134v1.11h2.13v.31H134v1.22h2.37v.32h-2.8V136Zm1.15,0h1.5a1.81,1.81,0,0,1,.72.13,1.62,1.62,0,0,1,.55.35,1.54,1.54,0,0,1,.35.52,1.68,1.68,0,0,1,.12.63,1.51,1.51,0,0,1-.13.65,1.47,1.47,0,0,1-.36.53,1.62,1.62,0,0,1-.55.35,1.94,1.94,0,0,1-.7.12h-1.5Zm.43,3h.89a1.78,1.78,0,0,0,.59-.09,1.27,1.27,0,0,0,.47-.26,1.14,1.14,0,0,0,.31-.41,1.27,1.27,0,0,0,.11-.56,1.32,1.32,0,0,0-.11-.59,1.06,1.06,0,0,0-.31-.41,1.41,1.41,0,0,0-.47-.25,2.17,2.17,0,0,0-.59-.07h-.89ZM121.41,144v-2.59a1.69,1.69,0,0,1-.61.45,2.28,2.28,0,0,1-.78.12v-.33a1.66,1.66,0,0,0,.61-.1,1.44,1.44,0,0,0,.43-.22.78.78,0,0,0,.26-.29.54.54,0,0,0,.09-.26h.41V144Zm2.45-.72a.51.51,0,0,0,.09.18.61.61,0,0,0,.16.16l.23.11a1,1,0,0,0,.3,0,.83.83,0,0,0,.49-.13,1,1,0,0,0,.32-.35,1.29,1.29,0,0,0,.16-.44,2.48,2.48,0,0,0,0-.45.8.8,0,0,1-.22.23,1.35,1.35,0,0,1-.26.15,1.71,1.71,0,0,1-.27.09,1.06,1.06,0,0,1-.24,0,1.39,1.39,0,0,1-.52-.08,1.05,1.05,0,0,1-.4-.23.92.92,0,0,1-.24-.34,1,1,0,0,1-.09-.43.86.86,0,0,1,.09-.39.78.78,0,0,1,.24-.33,1.26,1.26,0,0,1,.39-.23,1.74,1.74,0,0,1,.53-.08,1.37,1.37,0,0,1,1,.37,1.5,1.5,0,0,1,.38,1.1,2.8,2.8,0,0,1-.1.81,1.55,1.55,0,0,1-.28.56,1.25,1.25,0,0,1-.45.33,1.54,1.54,0,0,1-.58.1,1.68,1.68,0,0,1-.47-.06,1.2,1.2,0,0,1-.36-.17.77.77,0,0,1-.23-.25.81.81,0,0,1-.12-.29Zm.81-2.23a.88.88,0,0,0-.33.06,1,1,0,0,0-.26.16.74.74,0,0,0-.17.25.72.72,0,0,0-.06.29.73.73,0,0,0,.06.3.75.75,0,0,0,.42.41.9.9,0,0,0,.34.06.92.92,0,0,0,.38-.07.68.68,0,0,0,.26-.18.63.63,0,0,0,.16-.24.65.65,0,0,0,0-.27.6.6,0,0,0-.07-.3.67.67,0,0,0-.19-.25.92.92,0,0,0-.27-.16A.87.87,0,0,0,124.67,141Zm3,2.95a6.49,6.49,0,0,1,.19-.76,5.45,5.45,0,0,1,.32-.75,5,5,0,0,1,.46-.71,5.64,5.64,0,0,1,.63-.68h-2.22v-.28h2.71v.27c-.21.21-.4.42-.58.63a6.08,6.08,0,0,0-.47.66,4.61,4.61,0,0,0-.36.74,4.53,4.53,0,0,0-.24.88Zm3.71,0a5,5,0,0,1,.19-.76,5.45,5.45,0,0,1,.32-.75,5,5,0,0,1,.46-.71,5.64,5.64,0,0,1,.63-.68H130.8v-.28h2.71v.27c-.21.21-.4.42-.58.63a5,5,0,0,0-.47.66,4.65,4.65,0,0,0-.37.74,4.53,4.53,0,0,0-.23.88Z"/></svg>