<?xml version="1.0" encoding="UTF-8"?>
<svg width="197px" height="47px" viewBox="0 0 197 47" version="1.1" xmlns="http://www.w3.org/2000/svg" xmlns:xlink="http://www.w3.org/1999/xlink">
    <!-- Generator: Sketch 47.1 (45422) - http://www.bohemiancoding.com/sketch -->
    <title>Path</title>
    <desc>Created with Sketch.</desc>
    <defs></defs>
    <g id="Icons" stroke="none" stroke-width="1" fill="none" fill-rule="evenodd">
        <g id="Artboard" transform="translate(-2.000000, -3.000000)" fill-rule="nonzero" fill="#FFFFFF">
            <path d="M37,46.8307351 L36.6464466,46.9619918 L36.7928932,46.8307351 L37,46.8307351 Z M37.2071068,47.7270123 L2,47.7270123 L2,46.8307351 L36.7928932,46.8307351 L44,40.3711694 L50.7679404,46.4371202 L59.9749882,19.8471258 L69.8664077,45.5569423 L78.9742266,3.83427468 L88.9271904,44.8691029 L93.9181425,17.1347876 L101.048405,45.4364236 L108.971771,19.6933674 L117.93233,45.5715009 L129.048916,3 L138.11791,45.4479592 L148.96057,14.5269586 L162.181045,46.4286793 L170.980903,37.6652212 L181.207107,46.8307351 L199,46.8307351 L199,47.7270123 L180.792893,47.7270123 L171.019097,38.9669817 L161.818955,48.1290681 L149.03943,17.2913831 L137.88209,49.1097882 L128.951084,7.30768839 L118.06767,48.9862464 L109.028229,22.880301 L100.951595,49.1213237 L94.0818575,21.8537719 L89.0728096,49.6886444 L79.0257734,8.26596816 L70.1335923,49.000805 L60.0250118,22.7265426 L51.2320596,48.1206271 L44,41.6386968 L37.2071068,47.7270123 Z" id="Path"></path>
        </g>
    </g>
</svg>